M48
; DRILL file {KiCad (6.0.7-1)-1} date Tuesday, August 23, 2022 at 01:01:51 PM
; FORMAT={-:-/ absolute / metric / decimal}
; #@! TF.CreationDate,2022-08-23T13:01:51-05:00
; #@! TF.GenerationSoftware,Kicad,Pcbnew,(6.0.7-1)-1
; #@! TF.FileFunction,Plated,1,4,PTH
FMAT,2
METRIC
; #@! TA.AperFunction,Plated,PTH,ViaDrill
T1C0.260
; #@! TA.AperFunction,Plated,PTH,ViaDrill
T2C0.400
; #@! TA.AperFunction,Plated,PTH,ComponentDrill
T3C0.700
; #@! TA.AperFunction,Plated,PTH,ComponentDrill
T4C1.000
; #@! TA.AperFunction,Plated,PTH,ComponentDrill
T5C1.020
%
G90
G05
T1
X71.79Y-71.03
X72.0Y-72.4
X74.3Y-90.0
X76.1Y-84.0
X81.542Y-79.212
X96.5Y-79.9
X97.32Y-111.03
X97.337Y-80.573
X97.35Y-90.0
X98.45Y-92.8
X99.2Y-87.6
X99.208Y-79.212
T2
X54.254Y-145.0
X55.397Y-150.283
X60.706Y-43.434
X60.96Y-27.686
X62.23Y-27.686
X62.23Y-43.434
X62.315Y-134.854
X63.5Y-27.686
X63.754Y-43.434
X63.949Y-136.525
X64.15Y-128.8
X64.2Y-126.2
X64.9Y-63.5
X65.278Y-132.142
X66.05Y-60.25
X67.132Y-25.527
X67.2Y-134.1
X67.5Y-108.4
X68.25Y-25.527
X69.2Y-124.7
X69.2Y-132.8
X69.4Y-66.3
X69.596Y-36.576
X69.596Y-40.64
X69.6Y-61.3
X69.6Y-63.0
X69.6Y-64.6
X70.55Y-66.4
X70.612Y-36.576
X70.612Y-40.64
X71.2Y-61.3
X71.2Y-63.0
X71.2Y-64.6
X71.45Y-66.4
X72.8Y-61.3
X72.8Y-63.0
X72.8Y-64.6
X72.8Y-66.3
X74.5Y-61.3
X74.5Y-63.0
X74.65Y-65.45
X74.93Y-25.146
X75.438Y-41.148
X77.2Y-42.7
X77.2Y-44.196
X77.216Y-39.624
X77.216Y-41.148
X77.47Y-28.702
X77.5Y-25.47
X77.52Y-23.71
X78.3Y-60.55
X78.39Y-24.7
X78.4Y-67.95
X79.65Y-64.8
X79.65Y-65.7
X79.9Y-60.75
X80.01Y-44.196
X81.05Y-64.35
X81.325Y-36.57
X83.75Y-62.75
X85.11Y-30.18
X86.0Y-51.35
X86.233Y-98.679
X86.5Y-54.9
X86.7Y-70.05
X87.0Y-49.8
X87.0Y-51.3
X87.5Y-54.9
X87.6Y-46.6
X88.0Y-51.3
X88.062Y-27.102
X88.3Y-97.7
X88.7Y-93.0
X88.845Y-23.755
X89.8Y-45.0
X89.8Y-46.0
X92.3Y-31.6
X92.3Y-32.6
X92.7Y-36.65
X93.1Y-25.0
X93.1Y-26.3
X93.1Y-27.6
X93.3Y-31.6
X93.3Y-32.6
X94.2Y-25.0
X94.234Y-26.3
X94.234Y-27.6
X94.45Y-35.6
X94.6Y-66.3
X94.8Y-61.3
X94.8Y-63.0
X94.8Y-64.6
X94.9Y-21.1
X95.75Y-66.4
X95.755Y-39.655
X95.8Y-35.6
X96.4Y-61.3
X96.4Y-63.0
X96.4Y-64.6
X96.6Y-23.1
X96.6Y-27.9
X96.65Y-66.4
X97.0Y-39.0
X97.05Y-35.6
X98.0Y-61.3
X98.0Y-63.0
X98.0Y-64.6
X98.0Y-66.3
X98.3Y-21.1
X99.7Y-61.3
X99.7Y-63.0
X99.75Y-65.5
X100.1Y-49.9
X100.7Y-28.2
X100.95Y-123.3
X101.0Y-119.95
X101.1Y-98.3
X101.6Y-28.2
X101.6Y-38.354
X101.9Y-99.8
X102.85Y-60.0
X103.6Y-68.05
X103.79Y-49.9
X104.85Y-64.9
X104.85Y-65.8
X105.05Y-60.7
X105.1Y-55.4
X106.0Y-47.243
X106.45Y-63.65
X106.85Y-61.8
X107.2Y-50.4
X109.372Y-28.956
X110.236Y-32.512
X110.465Y-27.203
X110.8Y-55.4
T3
X61.4Y-109.9
X61.4Y-112.3
X61.4Y-114.7
X61.4Y-117.1
X63.4Y-109.9
X63.4Y-112.3
X63.4Y-114.7
X63.4Y-117.1
X92.1Y-85.54
X92.1Y-88.08
X92.1Y-90.62
X92.1Y-93.16
X92.1Y-95.7
X94.1Y-85.54
X94.1Y-88.08
X94.1Y-90.62
X94.1Y-93.16
X94.1Y-95.7
X100.4Y-125.9
X100.4Y-128.3
X100.4Y-130.7
X100.4Y-133.1
X100.4Y-135.5
X102.4Y-125.9
X102.4Y-128.3
X102.4Y-130.7
X102.4Y-133.1
X102.4Y-135.5
T4
X52.807Y-22.987
X52.807Y-25.527
X52.807Y-38.227
X52.807Y-40.767
X52.807Y-43.307
X52.807Y-45.847
X52.807Y-50.927
X52.807Y-53.467
X52.807Y-56.007
X52.807Y-58.547
X52.807Y-61.087
X52.807Y-63.627
X52.807Y-66.167
X52.807Y-68.707
X52.807Y-71.247
X52.807Y-73.787
X52.807Y-76.327
X52.807Y-78.867
X52.807Y-81.407
X52.807Y-83.947
X52.807Y-86.487
X52.807Y-89.027
X52.807Y-91.567
X52.807Y-94.107
X52.807Y-96.647
X52.807Y-99.187
X52.807Y-101.727
X52.807Y-104.267
X52.807Y-106.807
X52.807Y-109.347
X52.807Y-111.887
X52.807Y-114.427
X52.807Y-116.967
X52.807Y-119.507
X52.807Y-122.047
X52.807Y-124.587
X52.807Y-127.127
X52.807Y-129.667
X52.807Y-132.207
X52.807Y-134.747
X52.807Y-137.287
X52.807Y-139.827
X55.347Y-38.227
X55.347Y-40.767
X55.347Y-43.307
X55.347Y-45.847
X55.347Y-50.927
X55.347Y-53.467
X55.347Y-56.007
X55.347Y-58.547
X55.347Y-61.087
X55.347Y-63.627
X55.347Y-66.167
X55.347Y-68.707
X55.347Y-71.247
X55.347Y-73.787
X55.347Y-76.327
X55.347Y-78.867
X55.347Y-81.407
X55.347Y-83.947
X55.347Y-86.487
X55.347Y-89.027
X55.347Y-91.567
X55.347Y-94.107
X55.347Y-96.647
X55.347Y-99.187
X55.347Y-101.727
X55.347Y-104.267
X55.347Y-106.807
X55.347Y-109.347
X55.347Y-111.887
X55.347Y-114.427
X55.347Y-116.967
X55.347Y-119.507
X55.347Y-122.047
X55.347Y-124.587
X55.347Y-127.127
X55.347Y-129.667
X55.347Y-132.207
X55.347Y-134.747
X55.347Y-137.287
X55.347Y-139.827
X58.745Y-142.405
X61.285Y-142.405
X63.825Y-142.405
X102.99Y-141.925
X105.53Y-141.925
X108.07Y-141.925
X110.61Y-141.925
X113.767Y-38.227
X113.767Y-40.767
X113.767Y-43.307
X113.767Y-45.847
X113.767Y-50.927
X113.767Y-53.467
X113.767Y-56.007
X113.767Y-58.547
X113.767Y-61.087
X113.767Y-63.627
X113.767Y-66.167
X113.767Y-68.707
X113.767Y-71.247
X113.767Y-73.787
X113.767Y-76.327
X113.767Y-78.867
X113.767Y-81.407
X113.767Y-83.947
X113.767Y-86.487
X113.767Y-89.027
X113.767Y-91.567
X113.767Y-94.107
X113.767Y-96.647
X113.767Y-99.187
X113.767Y-101.727
X113.767Y-104.267
X113.767Y-106.807
X113.767Y-109.347
X113.767Y-111.887
X113.767Y-114.427
X113.767Y-116.967
X113.767Y-119.507
X113.767Y-122.047
X113.767Y-124.587
X113.767Y-127.127
X113.767Y-129.667
X113.767Y-132.207
X113.767Y-134.747
X113.767Y-137.287
X113.767Y-139.827
X116.307Y-22.987
X116.307Y-25.527
X116.307Y-38.227
X116.307Y-40.767
X116.307Y-43.307
X116.307Y-45.847
X116.307Y-50.927
X116.307Y-53.467
X116.307Y-56.007
X116.307Y-58.547
X116.307Y-61.087
X116.307Y-63.627
X116.307Y-66.167
X116.307Y-68.707
X116.307Y-71.247
X116.307Y-73.787
X116.307Y-76.327
X116.307Y-78.867
X116.307Y-81.407
X116.307Y-83.947
X116.307Y-86.487
X116.307Y-89.027
X116.307Y-91.567
X116.307Y-94.107
X116.307Y-96.647
X116.307Y-99.187
X116.307Y-101.727
X116.307Y-104.267
X116.307Y-106.807
X116.307Y-109.347
X116.307Y-111.887
X116.307Y-114.427
X116.307Y-116.967
X116.307Y-119.507
X116.307Y-122.047
X116.307Y-124.587
X116.307Y-127.127
X116.307Y-129.667
X116.307Y-132.207
X116.307Y-134.747
X116.307Y-137.287
X116.307Y-139.827
T5
X75.71Y-102.15
X75.71Y-104.69
X75.71Y-107.23
X75.71Y-109.77
X75.71Y-112.31
X75.71Y-114.85
X75.71Y-117.39
X75.71Y-119.93
X75.71Y-122.47
X75.71Y-125.01
X75.71Y-127.55
X75.71Y-130.09
X75.71Y-132.63
X75.71Y-135.17
X75.71Y-137.71
X75.71Y-140.25
X75.71Y-142.79
X75.71Y-145.33
X75.71Y-147.87
X75.71Y-150.41
X82.06Y-102.38
X84.6Y-102.38
X87.14Y-102.38
X93.49Y-102.15
X93.49Y-104.69
X93.49Y-107.23
X93.49Y-109.77
X93.49Y-112.31
X93.49Y-114.85
X93.49Y-117.39
X93.49Y-119.93
X93.49Y-122.47
X93.49Y-125.01
X93.49Y-127.55
X93.49Y-130.09
X93.49Y-132.63
X93.49Y-135.17
X93.49Y-137.71
X93.49Y-140.25
X93.49Y-142.79
X93.49Y-145.33
X93.49Y-147.87
X93.49Y-150.41
T0
M30
