%TF.GenerationSoftware,KiCad,Pcbnew,(6.0.7-1)-1*%
%TF.CreationDate,2022-08-23T13:01:28-05:00*%
%TF.ProjectId,NR1B-analog,4e523142-2d61-46e6-916c-6f672e6b6963,rev?*%
%TF.SameCoordinates,Original*%
%TF.FileFunction,OtherDrawing,Comment*%
%FSLAX46Y46*%
G04 Gerber Fmt 4.6, Leading zero omitted, Abs format (unit mm)*
G04 Created by KiCad (PCBNEW (6.0.7-1)-1) date 2022-08-23 13:01:28*
%MOMM*%
%LPD*%
G01*
G04 APERTURE LIST*
%ADD10C,0.150000*%
%ADD11C,0.100000*%
G04 APERTURE END LIST*
D10*
X84590000Y-18640000D02*
X84590000Y-153260000D01*
%TO.C,U5*%
G36*
X88100000Y-144780000D02*
G01*
X86100000Y-144780000D01*
X86100000Y-142780000D01*
X88100000Y-142780000D01*
X88100000Y-144780000D01*
G37*
D11*
X88100000Y-144780000D02*
X86100000Y-144780000D01*
X86100000Y-142780000D01*
X88100000Y-142780000D01*
X88100000Y-144780000D01*
G36*
X88300000Y-151180000D02*
G01*
X80900000Y-151180000D01*
X80900000Y-146480000D01*
X88300000Y-146480000D01*
X88300000Y-151180000D01*
G37*
X88300000Y-151180000D02*
X80900000Y-151180000D01*
X80900000Y-146480000D01*
X88300000Y-146480000D01*
X88300000Y-151180000D01*
G36*
X88100000Y-142280000D02*
G01*
X86100000Y-142280000D01*
X86100000Y-140280000D01*
X88100000Y-140280000D01*
X88100000Y-142280000D01*
G37*
X88100000Y-142280000D02*
X86100000Y-142280000D01*
X86100000Y-140280000D01*
X88100000Y-140280000D01*
X88100000Y-142280000D01*
G36*
X88100000Y-139780000D02*
G01*
X86100000Y-139780000D01*
X86100000Y-137780000D01*
X88100000Y-137780000D01*
X88100000Y-139780000D01*
G37*
X88100000Y-139780000D02*
X86100000Y-139780000D01*
X86100000Y-137780000D01*
X88100000Y-137780000D01*
X88100000Y-139780000D01*
%TD*%
M02*
