%TF.GenerationSoftware,KiCad,Pcbnew,(6.0.7-1)-1*%
%TF.CreationDate,2022-08-23T13:00:43-05:00*%
%TF.ProjectId,NR1B-analog,4e523142-2d61-46e6-916c-6f672e6b6963,rev?*%
%TF.SameCoordinates,Original*%
%TF.FileFunction,Soldermask,Bot*%
%TF.FilePolarity,Negative*%
%FSLAX46Y46*%
G04 Gerber Fmt 4.6, Leading zero omitted, Abs format (unit mm)*
G04 Created by KiCad (PCBNEW (6.0.7-1)-1) date 2022-08-23 13:00:43*
%MOMM*%
%LPD*%
G01*
G04 APERTURE LIST*
%ADD10C,1.400000*%
%ADD11O,1.500000X1.500000*%
%ADD12O,1.800000X1.800000*%
%ADD13O,1.700000X1.700000*%
%ADD14R,1.700000X1.700000*%
%ADD15C,3.000000*%
%ADD16C,1.700000*%
G04 APERTURE END LIST*
D10*
%TO.C,TP3*%
X61400000Y-114700000D03*
X63400000Y-114700000D03*
%TD*%
%TO.C,SCK_DAC1*%
X92100000Y-85540000D03*
X94100000Y-85540000D03*
%TD*%
%TO.C,TP2*%
X63400000Y-112300000D03*
X61400000Y-112300000D03*
%TD*%
%TO.C,SCK_SYS1*%
X100400000Y-130700000D03*
X102400000Y-130700000D03*
%TD*%
%TO.C,TP4*%
X63400000Y-117100000D03*
X61400000Y-117100000D03*
%TD*%
D11*
%TO.C,U5*%
X82175000Y-147250000D03*
D12*
X81875000Y-150280000D03*
X87325000Y-150280000D03*
D11*
X87025000Y-147250000D03*
D13*
X93490000Y-150410000D03*
X93490000Y-147870000D03*
D14*
X93490000Y-145330000D03*
D13*
X93490000Y-142790000D03*
X93490000Y-140250000D03*
X93490000Y-137710000D03*
X93490000Y-135170000D03*
D14*
X93490000Y-132630000D03*
D13*
X93490000Y-130090000D03*
X93490000Y-127550000D03*
X93490000Y-125010000D03*
X93490000Y-122470000D03*
D14*
X93490000Y-119930000D03*
D13*
X93490000Y-117390000D03*
X93490000Y-114850000D03*
X93490000Y-112310000D03*
X93490000Y-109770000D03*
D14*
X93490000Y-107230000D03*
D13*
X93490000Y-104690000D03*
X93490000Y-102150000D03*
X75710000Y-102150000D03*
X75710000Y-104690000D03*
D14*
X75710000Y-107230000D03*
D13*
X75710000Y-109770000D03*
X75710000Y-112310000D03*
X75710000Y-114850000D03*
X75710000Y-117390000D03*
D14*
X75710000Y-119930000D03*
D13*
X75710000Y-122470000D03*
X75710000Y-125010000D03*
X75710000Y-127550000D03*
X75710000Y-130090000D03*
D14*
X75710000Y-132630000D03*
D13*
X75710000Y-135170000D03*
X75710000Y-137710000D03*
X75710000Y-140250000D03*
X75710000Y-142790000D03*
D14*
X75710000Y-145330000D03*
D13*
X75710000Y-147870000D03*
X75710000Y-150410000D03*
X87140000Y-102380000D03*
D14*
X84600000Y-102380000D03*
D13*
X82060000Y-102380000D03*
%TD*%
D10*
%TO.C,MISO_SYS1*%
X102400000Y-128300000D03*
X100400000Y-128300000D03*
%TD*%
%TO.C,MISO_DAC1*%
X94100000Y-88080000D03*
X92100000Y-88080000D03*
%TD*%
%TO.C,MOSI_SYS1*%
X100400000Y-135500000D03*
X102400000Y-135500000D03*
%TD*%
D14*
%TO.C,J1*%
X113766600Y-38227000D03*
D13*
X116306600Y-38227000D03*
X113766600Y-40767000D03*
X116306600Y-40767000D03*
X113766600Y-43307000D03*
X116306600Y-43307000D03*
X113766600Y-45847000D03*
X116306600Y-45847000D03*
%TD*%
D14*
%TO.C,J8*%
X110610000Y-141925000D03*
D13*
X108070000Y-141925000D03*
X105530000Y-141925000D03*
X102990000Y-141925000D03*
%TD*%
D14*
%TO.C,J3*%
X63825000Y-142405000D03*
D13*
X61285000Y-142405000D03*
X58745000Y-142405000D03*
%TD*%
D15*
%TO.C,X1*%
X61696600Y-123317000D03*
X108706600Y-48427000D03*
X60426600Y-47117000D03*
X107406600Y-123327000D03*
D16*
X52806600Y-50927000D03*
X55346600Y-50927000D03*
X52806600Y-53467000D03*
X55346600Y-53467000D03*
X52806600Y-56007000D03*
X55346600Y-56007000D03*
X52806600Y-58547000D03*
X55346600Y-58547000D03*
X52806600Y-61087000D03*
X55346600Y-61087000D03*
X52806600Y-63627000D03*
X55346600Y-63627000D03*
X52806600Y-66167000D03*
X55346600Y-66167000D03*
X52806600Y-68707000D03*
X55346600Y-68707000D03*
X52806600Y-71247000D03*
X55346600Y-71247000D03*
X52806600Y-73787000D03*
X55346600Y-73787000D03*
X52806600Y-76327000D03*
X55346600Y-76327000D03*
X52806600Y-78867000D03*
X55346600Y-78867000D03*
X52806600Y-81407000D03*
X55346600Y-81407000D03*
X52806600Y-83947000D03*
X55346600Y-83947000D03*
X52806600Y-86487000D03*
X55346600Y-86487000D03*
X52806600Y-89027000D03*
X55346600Y-89027000D03*
X52806600Y-91567000D03*
X55346600Y-91567000D03*
X52806600Y-94107000D03*
X55346600Y-94107000D03*
X52806600Y-96647000D03*
X55346600Y-96647000D03*
X52806600Y-99187000D03*
X55346600Y-99187000D03*
X52806600Y-101727000D03*
X55346600Y-101727000D03*
X52806600Y-104267000D03*
X55346600Y-104267000D03*
X52806600Y-106807000D03*
X55346600Y-106807000D03*
X52806600Y-109347000D03*
X55346600Y-109347000D03*
X52806600Y-111887000D03*
X55346600Y-111887000D03*
X52806600Y-114427000D03*
X55346600Y-114427000D03*
X52806600Y-116967000D03*
X55346600Y-116967000D03*
X52806600Y-119507000D03*
X55346600Y-119507000D03*
X52806600Y-122047000D03*
X55346600Y-122047000D03*
X52806600Y-124587000D03*
X55346600Y-124587000D03*
X52806600Y-127127000D03*
X55346600Y-127127000D03*
X52806600Y-129667000D03*
X55346600Y-129667000D03*
X52806600Y-132207000D03*
X55346600Y-132207000D03*
X52806600Y-134747000D03*
X55346600Y-134747000D03*
X52806600Y-137287000D03*
X55346600Y-137287000D03*
X52806600Y-139827000D03*
X55346600Y-139827000D03*
X113766600Y-50927000D03*
X116306600Y-50927000D03*
X113766600Y-53467000D03*
X116306600Y-53467000D03*
X113766600Y-56007000D03*
X116306600Y-56007000D03*
X113766600Y-58547000D03*
X116306600Y-58547000D03*
X113766600Y-61087000D03*
X116306600Y-61087000D03*
X113766600Y-63627000D03*
X116306600Y-63627000D03*
X113766600Y-66167000D03*
X116306600Y-66167000D03*
X113766600Y-68707000D03*
X116306600Y-68707000D03*
X113766600Y-71247000D03*
X116306600Y-71247000D03*
X113766600Y-73787000D03*
X116306600Y-73787000D03*
X113766600Y-76327000D03*
X116306600Y-76327000D03*
X113766600Y-78867000D03*
X116306600Y-78867000D03*
X113766600Y-81407000D03*
X116306600Y-81407000D03*
X113766600Y-83947000D03*
X116306600Y-83947000D03*
X113766600Y-86487000D03*
X116306600Y-86487000D03*
X113766600Y-89027000D03*
X116306600Y-89027000D03*
X113766600Y-91567000D03*
X116306600Y-91567000D03*
X113766600Y-94107000D03*
X116306600Y-94107000D03*
X113766600Y-96647000D03*
X116306600Y-96647000D03*
X113766600Y-99187000D03*
X116306600Y-99187000D03*
X113766600Y-101727000D03*
X116306600Y-101727000D03*
X113766600Y-104267000D03*
X116306600Y-104267000D03*
X113766600Y-106807000D03*
X116306600Y-106807000D03*
X113766600Y-109347000D03*
X116306600Y-109347000D03*
X113766600Y-111887000D03*
X116306600Y-111887000D03*
X113766600Y-114427000D03*
X116306600Y-114427000D03*
X113766600Y-116967000D03*
X116306600Y-116967000D03*
X113766600Y-119507000D03*
X116306600Y-119507000D03*
X113766600Y-122047000D03*
X116306600Y-122047000D03*
X113766600Y-124587000D03*
X116306600Y-124587000D03*
X113766600Y-127127000D03*
X116306600Y-127127000D03*
X113766600Y-129667000D03*
X116306600Y-129667000D03*
X113766600Y-132207000D03*
X116306600Y-132207000D03*
X113766600Y-134747000D03*
X116306600Y-134747000D03*
X113766600Y-137287000D03*
X116306600Y-137287000D03*
X113766600Y-139827000D03*
X116306600Y-139827000D03*
X52806600Y-22987000D03*
X52806600Y-25527000D03*
X116306600Y-22987000D03*
X116306600Y-25527000D03*
%TD*%
D10*
%TO.C,CS_DAC1*%
X92100000Y-95700000D03*
X94100000Y-95700000D03*
%TD*%
%TO.C,TP1*%
X61400000Y-109900000D03*
X63400000Y-109900000D03*
%TD*%
%TO.C,MOSI_DAC1*%
X94100000Y-90620000D03*
X92100000Y-90620000D03*
%TD*%
%TO.C,GND1*%
X100400000Y-125900000D03*
X102400000Y-125900000D03*
%TD*%
D14*
%TO.C,J2*%
X52806600Y-38227000D03*
D13*
X55346600Y-38227000D03*
X52806600Y-40767000D03*
X55346600Y-40767000D03*
X52806600Y-43307000D03*
X55346600Y-43307000D03*
X52806600Y-45847000D03*
X55346600Y-45847000D03*
%TD*%
D10*
%TO.C,CS_DAC0*%
X92100000Y-93160000D03*
X94100000Y-93160000D03*
%TD*%
%TO.C,CS_SYS1*%
X102400000Y-133100000D03*
X100400000Y-133100000D03*
%TD*%
M02*
