%TF.GenerationSoftware,KiCad,Pcbnew,(6.0.7-1)-1*%
%TF.CreationDate,2022-08-23T13:00:42-05:00*%
%TF.ProjectId,NR1B-analog,4e523142-2d61-46e6-916c-6f672e6b6963,rev?*%
%TF.SameCoordinates,Original*%
%TF.FileFunction,Copper,L1,Top*%
%TF.FilePolarity,Positive*%
%FSLAX46Y46*%
G04 Gerber Fmt 4.6, Leading zero omitted, Abs format (unit mm)*
G04 Created by KiCad (PCBNEW (6.0.7-1)-1) date 2022-08-23 13:00:42*
%MOMM*%
%LPD*%
G01*
G04 APERTURE LIST*
G04 Aperture macros list*
%AMRoundRect*
0 Rectangle with rounded corners*
0 $1 Rounding radius*
0 $2 $3 $4 $5 $6 $7 $8 $9 X,Y pos of 4 corners*
0 Add a 4 corners polygon primitive as box body*
4,1,4,$2,$3,$4,$5,$6,$7,$8,$9,$2,$3,0*
0 Add four circle primitives for the rounded corners*
1,1,$1+$1,$2,$3*
1,1,$1+$1,$4,$5*
1,1,$1+$1,$6,$7*
1,1,$1+$1,$8,$9*
0 Add four rect primitives between the rounded corners*
20,1,$1+$1,$2,$3,$4,$5,0*
20,1,$1+$1,$4,$5,$6,$7,0*
20,1,$1+$1,$6,$7,$8,$9,0*
20,1,$1+$1,$8,$9,$2,$3,0*%
%AMFreePoly0*
4,1,9,3.862500,-0.866500,0.737500,-0.866500,0.737500,-0.450000,-0.737500,-0.450000,-0.737500,0.450000,0.737500,0.450000,0.737500,0.866500,3.862500,0.866500,3.862500,-0.866500,3.862500,-0.866500,$1*%
G04 Aperture macros list end*
%TA.AperFunction,ComponentPad*%
%ADD10C,1.400000*%
%TD*%
%TA.AperFunction,SMDPad,CuDef*%
%ADD11R,1.295400X2.006600*%
%TD*%
%TA.AperFunction,SMDPad,CuDef*%
%ADD12R,2.006600X2.006600*%
%TD*%
%TA.AperFunction,SMDPad,CuDef*%
%ADD13C,0.500000*%
%TD*%
%TA.AperFunction,SMDPad,CuDef*%
%ADD14RoundRect,0.200000X0.275000X-0.200000X0.275000X0.200000X-0.275000X0.200000X-0.275000X-0.200000X0*%
%TD*%
%TA.AperFunction,SMDPad,CuDef*%
%ADD15RoundRect,0.075000X-0.075000X0.662500X-0.075000X-0.662500X0.075000X-0.662500X0.075000X0.662500X0*%
%TD*%
%TA.AperFunction,SMDPad,CuDef*%
%ADD16RoundRect,0.075000X-0.662500X0.075000X-0.662500X-0.075000X0.662500X-0.075000X0.662500X0.075000X0*%
%TD*%
%TA.AperFunction,SMDPad,CuDef*%
%ADD17RoundRect,0.075000X-0.650000X-0.075000X0.650000X-0.075000X0.650000X0.075000X-0.650000X0.075000X0*%
%TD*%
%TA.AperFunction,SMDPad,CuDef*%
%ADD18R,1.680000X1.880000*%
%TD*%
%TA.AperFunction,SMDPad,CuDef*%
%ADD19RoundRect,0.200000X0.200000X0.275000X-0.200000X0.275000X-0.200000X-0.275000X0.200000X-0.275000X0*%
%TD*%
%TA.AperFunction,SMDPad,CuDef*%
%ADD20RoundRect,0.200000X-0.275000X0.200000X-0.275000X-0.200000X0.275000X-0.200000X0.275000X0.200000X0*%
%TD*%
%TA.AperFunction,SMDPad,CuDef*%
%ADD21RoundRect,0.150000X0.150000X-0.825000X0.150000X0.825000X-0.150000X0.825000X-0.150000X-0.825000X0*%
%TD*%
%TA.AperFunction,SMDPad,CuDef*%
%ADD22RoundRect,0.218750X-0.381250X0.218750X-0.381250X-0.218750X0.381250X-0.218750X0.381250X0.218750X0*%
%TD*%
%TA.AperFunction,SMDPad,CuDef*%
%ADD23RoundRect,0.225000X-0.250000X0.225000X-0.250000X-0.225000X0.250000X-0.225000X0.250000X0.225000X0*%
%TD*%
%TA.AperFunction,ComponentPad*%
%ADD24O,1.700000X1.700000*%
%TD*%
%TA.AperFunction,SMDPad,CuDef*%
%ADD25R,3.500000X1.700000*%
%TD*%
%TA.AperFunction,ComponentPad*%
%ADD26R,1.700000X1.700000*%
%TD*%
%TA.AperFunction,SMDPad,CuDef*%
%ADD27R,1.700000X3.500000*%
%TD*%
%TA.AperFunction,SMDPad,CuDef*%
%ADD28RoundRect,0.200000X-0.200000X-0.275000X0.200000X-0.275000X0.200000X0.275000X-0.200000X0.275000X0*%
%TD*%
%TA.AperFunction,SMDPad,CuDef*%
%ADD29RoundRect,0.225000X0.250000X-0.225000X0.250000X0.225000X-0.250000X0.225000X-0.250000X-0.225000X0*%
%TD*%
%TA.AperFunction,SMDPad,CuDef*%
%ADD30RoundRect,0.250000X-0.550000X1.250000X-0.550000X-1.250000X0.550000X-1.250000X0.550000X1.250000X0*%
%TD*%
%TA.AperFunction,SMDPad,CuDef*%
%ADD31RoundRect,0.150000X0.725000X0.150000X-0.725000X0.150000X-0.725000X-0.150000X0.725000X-0.150000X0*%
%TD*%
%TA.AperFunction,SMDPad,CuDef*%
%ADD32RoundRect,0.218750X0.218750X0.381250X-0.218750X0.381250X-0.218750X-0.381250X0.218750X-0.381250X0*%
%TD*%
%TA.AperFunction,SMDPad,CuDef*%
%ADD33RoundRect,0.150000X-0.150000X0.825000X-0.150000X-0.825000X0.150000X-0.825000X0.150000X0.825000X0*%
%TD*%
%TA.AperFunction,SMDPad,CuDef*%
%ADD34RoundRect,0.225000X0.225000X0.250000X-0.225000X0.250000X-0.225000X-0.250000X0.225000X-0.250000X0*%
%TD*%
%TA.AperFunction,SMDPad,CuDef*%
%ADD35RoundRect,0.250000X0.550000X-1.250000X0.550000X1.250000X-0.550000X1.250000X-0.550000X-1.250000X0*%
%TD*%
%TA.AperFunction,SMDPad,CuDef*%
%ADD36RoundRect,0.218750X-0.218750X-0.381250X0.218750X-0.381250X0.218750X0.381250X-0.218750X0.381250X0*%
%TD*%
%TA.AperFunction,ComponentPad*%
%ADD37C,1.700000*%
%TD*%
%TA.AperFunction,SMDPad,CuDef*%
%ADD38RoundRect,0.225000X-0.225000X-0.250000X0.225000X-0.250000X0.225000X0.250000X-0.225000X0.250000X0*%
%TD*%
%TA.AperFunction,SMDPad,CuDef*%
%ADD39RoundRect,0.250000X1.272792X-0.494975X-0.494975X1.272792X-1.272792X0.494975X0.494975X-1.272792X0*%
%TD*%
%TA.AperFunction,SMDPad,CuDef*%
%ADD40RoundRect,0.250000X-0.550000X1.500000X-0.550000X-1.500000X0.550000X-1.500000X0.550000X1.500000X0*%
%TD*%
%TA.AperFunction,SMDPad,CuDef*%
%ADD41R,0.900000X1.300000*%
%TD*%
%TA.AperFunction,SMDPad,CuDef*%
%ADD42FreePoly0,90.000000*%
%TD*%
%TA.AperFunction,SMDPad,CuDef*%
%ADD43RoundRect,0.100000X-0.625000X-0.100000X0.625000X-0.100000X0.625000X0.100000X-0.625000X0.100000X0*%
%TD*%
%TA.AperFunction,SMDPad,CuDef*%
%ADD44R,1.650000X2.850000*%
%TD*%
%TA.AperFunction,SMDPad,CuDef*%
%ADD45R,1.600200X1.397000*%
%TD*%
%TA.AperFunction,SMDPad,CuDef*%
%ADD46RoundRect,0.250000X0.550000X-1.500000X0.550000X1.500000X-0.550000X1.500000X-0.550000X-1.500000X0*%
%TD*%
%TA.AperFunction,ViaPad*%
%ADD47C,0.800000*%
%TD*%
%TA.AperFunction,ViaPad*%
%ADD48C,0.480000*%
%TD*%
%TA.AperFunction,Conductor*%
%ADD49C,0.220000*%
%TD*%
%TA.AperFunction,Conductor*%
%ADD50C,0.400000*%
%TD*%
%TA.AperFunction,Conductor*%
%ADD51C,0.300000*%
%TD*%
%TA.AperFunction,Conductor*%
%ADD52C,0.250000*%
%TD*%
G04 APERTURE END LIST*
D10*
%TO.P,TP3,1,1*%
%TO.N,Net-(TP3-Pad1)*%
X61400000Y-114700000D03*
X63400000Y-114700000D03*
%TD*%
D11*
%TO.P,U8,1,CCW*%
%TO.N,Net-(R2-Pad1)*%
X71720000Y-31110001D03*
D12*
%TO.P,U8,2,WIPER*%
%TO.N,Net-(C4-Pad2)*%
X70570000Y-27109999D03*
D11*
%TO.P,U8,3,CW*%
%TO.N,unconnected-(U8-Pad3)*%
X69420000Y-31110001D03*
%TD*%
D13*
%TO.P,FID1,*%
%TO.N,*%
X50770000Y-20350000D03*
%TD*%
D14*
%TO.P,R2,1*%
%TO.N,Net-(R2-Pad1)*%
X75870000Y-30675000D03*
%TO.P,R2,2*%
%TO.N,GND*%
X75870000Y-29025000D03*
%TD*%
D11*
%TO.P,U12,1,CCW*%
%TO.N,Net-(R1-Pad1)*%
X68650000Y-46930001D03*
D12*
%TO.P,U12,2,WIPER*%
%TO.N,Net-(C11-Pad1)*%
X67500000Y-42929999D03*
D11*
%TO.P,U12,3,CW*%
%TO.N,unconnected-(U12-Pad3)*%
X66350000Y-46930001D03*
%TD*%
D15*
%TO.P,U14,1,NC*%
%TO.N,unconnected-(U14-Pad1)*%
X74770000Y-59587500D03*
%TO.P,U14,2,AGND*%
%TO.N,GND*%
X74270000Y-59587500D03*
%TO.P,U14,3,REFPF*%
%TO.N,Net-(C36-Pad2)*%
X73770000Y-59587500D03*
%TO.P,U14,4,REFPS*%
%TO.N,Net-(C36-Pad1)*%
X73270000Y-59587500D03*
%TO.P,U14,5,REFNF*%
%TO.N,GND*%
X72770000Y-59587500D03*
%TO.P,U14,6,REFNS*%
X72270000Y-59587500D03*
%TO.P,U14,7,OUT*%
%TO.N,Net-(U14-Pad7)*%
X71770000Y-59587500D03*
%TO.P,U14,8,AGND-OUT*%
%TO.N,GND*%
X71270000Y-59587500D03*
%TO.P,U14,9,RFB*%
%TO.N,unconnected-(U14-Pad9)*%
X70770000Y-59587500D03*
%TO.P,U14,10,ROFS*%
%TO.N,unconnected-(U14-Pad10)*%
X70270000Y-59587500D03*
%TO.P,U14,11,RCM*%
%TO.N,unconnected-(U14-Pad11)*%
X69770000Y-59587500D03*
%TO.P,U14,12,NC*%
%TO.N,unconnected-(U14-Pad12)*%
X69270000Y-59587500D03*
D16*
%TO.P,U14,13,NC*%
%TO.N,unconnected-(U14-Pad13)*%
X67857500Y-61000000D03*
%TO.P,U14,14,AGND-TNH*%
%TO.N,GND*%
X67857500Y-61500000D03*
%TO.P,U14,15,NC*%
%TO.N,unconnected-(U14-Pad15)*%
X67857500Y-62000000D03*
%TO.P,U14,16,DGND*%
%TO.N,GND*%
X67857500Y-62500000D03*
%TO.P,U14,17,DGND*%
X67857500Y-63000000D03*
%TO.P,U14,18,LDAC*%
%TO.N,/MCU/LDAC*%
X67857500Y-63500000D03*
%TO.P,U14,19,ALARM*%
%TO.N,/MCU/ALARM_DAC1*%
X67857500Y-64000000D03*
%TO.P,U14,20,DGND*%
%TO.N,GND*%
X67857500Y-64500000D03*
%TO.P,U14,21,DGND*%
X67857500Y-65000000D03*
%TO.P,U14,22,DGND*%
X67857500Y-65500000D03*
%TO.P,U14,23,DGND*%
X67857500Y-66000000D03*
%TO.P,U14,24,NC*%
%TO.N,unconnected-(U14-Pad24)*%
X67857500Y-66500000D03*
D15*
%TO.P,U14,25,NC*%
%TO.N,unconnected-(U14-Pad25)*%
X69270000Y-67912500D03*
%TO.P,U14,26,DGND*%
%TO.N,GND*%
X69770000Y-67912500D03*
%TO.P,U14,27,DVDD*%
%TO.N,+3V3*%
X70270000Y-67912500D03*
%TO.P,U14,28,IOVDD*%
X70770000Y-67912500D03*
%TO.P,U14,29,NC*%
%TO.N,unconnected-(U14-Pad29)*%
X71270000Y-67912500D03*
%TO.P,U14,30,CLR*%
%TO.N,+3V3*%
X71770000Y-67912500D03*
%TO.P,U14,31,SCLK*%
%TO.N,/MCU/SCK_DAC*%
X72270000Y-67912500D03*
%TO.P,U14,32,SDIN*%
%TO.N,/MCU/MOSI_DAC*%
X72770000Y-67912500D03*
%TO.P,U14,33,SYNC*%
%TO.N,/MCU/CS_DAC1*%
X73270000Y-67912500D03*
%TO.P,U14,34,SDO*%
%TO.N,Net-(R19-Pad2)*%
X73770000Y-67912500D03*
%TO.P,U14,35,AGND*%
%TO.N,GND*%
X74270000Y-67912500D03*
%TO.P,U14,36,NC*%
%TO.N,unconnected-(U14-Pad36)*%
X74770000Y-67912500D03*
D16*
%TO.P,U14,37,NC*%
%TO.N,unconnected-(U14-Pad37)*%
X76182500Y-66500000D03*
%TO.P,U14,38,AGND*%
%TO.N,GND*%
X76182500Y-66000000D03*
%TO.P,U14,39,AVDD*%
%TO.N,+5V*%
X76182500Y-65500000D03*
%TO.P,U14,40,AGND*%
%TO.N,GND*%
X76182500Y-65000000D03*
%TO.P,U14,41,AVDD*%
%TO.N,+5V*%
X76182500Y-64500000D03*
%TO.P,U14,42,AGND*%
%TO.N,GND*%
X76182500Y-64000000D03*
%TO.P,U14,43,AGND*%
X76182500Y-63500000D03*
%TO.P,U14,44,VSS*%
%TO.N,-14Vreg*%
X76182500Y-63000000D03*
%TO.P,U14,45,VCC*%
%TO.N,+14Vreg*%
X76182500Y-62500000D03*
%TO.P,U14,46,AGND*%
%TO.N,GND*%
X76182500Y-62000000D03*
%TO.P,U14,47,AGND*%
X76182500Y-61500000D03*
%TO.P,U14,48,NC*%
%TO.N,unconnected-(U14-Pad48)*%
X76182500Y-61000000D03*
%TD*%
D17*
%TO.P,U10,1,IN*%
%TO.N,+15Vreg*%
X67960000Y-37640000D03*
%TO.P,U10,2,IN*%
X67960000Y-38140000D03*
%TO.P,U10,3,EN/UV*%
X67960000Y-38640000D03*
%TO.P,U10,4,PG*%
%TO.N,unconnected-(U10-Pad4)*%
X67960000Y-39140000D03*
%TO.P,U10,5,ILIM*%
%TO.N,GND*%
X67960000Y-39640000D03*
%TO.P,U10,6,PGFB*%
%TO.N,+15Vreg*%
X72260000Y-39640000D03*
%TO.P,U10,7,SET*%
%TO.N,Net-(C11-Pad1)*%
X72260000Y-39140000D03*
%TO.P,U10,8,GND*%
%TO.N,GND*%
X72260000Y-38640000D03*
%TO.P,U10,9,OUTS*%
%TO.N,+14Vreg*%
X72260000Y-38140000D03*
%TO.P,U10,10,OUT*%
X72260000Y-37640000D03*
D18*
%TO.P,U10,11,GND*%
%TO.N,GND*%
X70110000Y-38640000D03*
%TD*%
D10*
%TO.P,SCK_DAC1,1,1*%
%TO.N,/MCU/SCK_DAC*%
X92100000Y-85540000D03*
X94100000Y-85540000D03*
%TD*%
D19*
%TO.P,R17,1*%
%TO.N,+3V3*%
X74925000Y-84000000D03*
%TO.P,R17,2*%
%TO.N,/MCU/CS_DAC1*%
X73275000Y-84000000D03*
%TD*%
D20*
%TO.P,R7,1*%
%TO.N,Net-(R7-Pad1)*%
X101630000Y-35510000D03*
%TO.P,R7,2*%
%TO.N,GND*%
X101630000Y-37160000D03*
%TD*%
D21*
%TO.P,U6,1,NC*%
%TO.N,unconnected-(U6-Pad1)*%
X101330000Y-57050000D03*
%TO.P,U6,2,-*%
%TO.N,Net-(R11-Pad1)*%
X102600000Y-57050000D03*
%TO.P,U6,3,+*%
%TO.N,OUT_DRIVE0*%
X103870000Y-57050000D03*
%TO.P,U6,4,V-*%
%TO.N,GND*%
X105140000Y-57050000D03*
%TO.P,U6,5,NC*%
%TO.N,unconnected-(U6-Pad5)*%
X105140000Y-52100000D03*
%TO.P,U6,6*%
%TO.N,Net-(R11-Pad1)*%
X103870000Y-52100000D03*
%TO.P,U6,7,V+*%
%TO.N,+12Vref*%
X102600000Y-52100000D03*
%TO.P,U6,8,NC*%
%TO.N,unconnected-(U6-Pad8)*%
X101330000Y-52100000D03*
%TD*%
D10*
%TO.P,TP2,1,1*%
%TO.N,Net-(TP2-Pad1)*%
X63400000Y-112300000D03*
X61400000Y-112300000D03*
%TD*%
D22*
%TO.P,FB2,1*%
%TO.N,-15Vreg*%
X52820000Y-31847500D03*
%TO.P,FB2,2*%
%TO.N,Net-(FB2-Pad2)*%
X52820000Y-33972500D03*
%TD*%
D23*
%TO.P,C23,1*%
%TO.N,+5V*%
X103600000Y-65225000D03*
%TO.P,C23,2*%
%TO.N,GND*%
X103600000Y-66775000D03*
%TD*%
D10*
%TO.P,SCK_SYS1,1,1*%
%TO.N,/Interconnect/SCK*%
X100400000Y-130700000D03*
X102400000Y-130700000D03*
%TD*%
%TO.P,TP4,1,1*%
%TO.N,Net-(TP4-Pad1)*%
X63400000Y-117100000D03*
X61400000Y-117100000D03*
%TD*%
D24*
%TO.P,U5,1,GPIO0*%
%TO.N,/MCU/UART_TX*%
X93490000Y-150410000D03*
D25*
X94390000Y-150410000D03*
%TO.P,U5,2,GPIO1*%
%TO.N,/MCU/UART_RX*%
X94390000Y-147870000D03*
D24*
X93490000Y-147870000D03*
D25*
%TO.P,U5,3,GND*%
%TO.N,GND*%
X94390000Y-145330000D03*
D26*
X93490000Y-145330000D03*
D25*
%TO.P,U5,4,GPIO2*%
%TO.N,/Interconnect/ACK*%
X94390000Y-142790000D03*
D24*
X93490000Y-142790000D03*
D25*
%TO.P,U5,5,GPIO3*%
%TO.N,/Interconnect/ERROR*%
X94390000Y-140250000D03*
D24*
X93490000Y-140250000D03*
D25*
%TO.P,U5,6,GPIO4*%
%TO.N,/Interconnect/MOSI*%
X94390000Y-137710000D03*
D24*
X93490000Y-137710000D03*
%TO.P,U5,7,GPIO5*%
%TO.N,/Interconnect/NSS*%
X93490000Y-135170000D03*
D25*
X94390000Y-135170000D03*
D26*
%TO.P,U5,8,GND*%
%TO.N,GND*%
X93490000Y-132630000D03*
D25*
X94390000Y-132630000D03*
D24*
%TO.P,U5,9,GPIO6*%
%TO.N,/Interconnect/SCK*%
X93490000Y-130090000D03*
D25*
X94390000Y-130090000D03*
%TO.P,U5,10,GPIO7*%
%TO.N,/Interconnect/MISO*%
X94390000Y-127550000D03*
D24*
X93490000Y-127550000D03*
%TO.P,U5,11,GPIO8*%
%TO.N,/MCU/MISO_DAC*%
X93490000Y-125010000D03*
D25*
X94390000Y-125010000D03*
%TO.P,U5,12,GPIO9*%
%TO.N,/MCU/CS_DAC0*%
X94390000Y-122470000D03*
D24*
X93490000Y-122470000D03*
D26*
%TO.P,U5,13,GND*%
%TO.N,GND*%
X93490000Y-119930000D03*
D25*
X94390000Y-119930000D03*
D24*
%TO.P,U5,14,GPIO10*%
%TO.N,/MCU/SCK_DAC*%
X93490000Y-117390000D03*
D25*
X94390000Y-117390000D03*
%TO.P,U5,15,GPIO11*%
%TO.N,/MCU/MOSI_DAC*%
X94390000Y-114850000D03*
D24*
X93490000Y-114850000D03*
%TO.P,U5,16,GPIO12*%
%TO.N,/MCU/CS_DAC1*%
X93490000Y-112310000D03*
D25*
X94390000Y-112310000D03*
%TO.P,U5,17,GPIO13*%
%TO.N,/MCU/LDAC*%
X94390000Y-109770000D03*
D24*
X93490000Y-109770000D03*
D25*
%TO.P,U5,18,GND*%
%TO.N,GND*%
X94390000Y-107230000D03*
D26*
X93490000Y-107230000D03*
D25*
%TO.P,U5,19,GPIO14*%
%TO.N,/MCU/ALARM_DAC0*%
X94390000Y-104690000D03*
D24*
X93490000Y-104690000D03*
D25*
%TO.P,U5,20,GPIO15*%
%TO.N,/MCU/ALARM_DAC1*%
X94390000Y-102150000D03*
D24*
X93490000Y-102150000D03*
%TO.P,U5,21,GPIO16*%
%TO.N,Net-(TP1-Pad1)*%
X75710000Y-102150000D03*
D25*
X74810000Y-102150000D03*
%TO.P,U5,22,GPIO17*%
%TO.N,Net-(TP2-Pad1)*%
X74810000Y-104690000D03*
D24*
X75710000Y-104690000D03*
D26*
%TO.P,U5,23,GND*%
%TO.N,GND*%
X75710000Y-107230000D03*
D25*
X74810000Y-107230000D03*
%TO.P,U5,24,GPIO18*%
%TO.N,Net-(R25-Pad1)*%
X74810000Y-109770000D03*
D24*
X75710000Y-109770000D03*
%TO.P,U5,25,GPIO19*%
%TO.N,Net-(R24-Pad1)*%
X75710000Y-112310000D03*
D25*
X74810000Y-112310000D03*
%TO.P,U5,26,GPIO20*%
%TO.N,Net-(R23-Pad1)*%
X74810000Y-114850000D03*
D24*
X75710000Y-114850000D03*
%TO.P,U5,27,GPIO21*%
%TO.N,Net-(R22-Pad1)*%
X75710000Y-117390000D03*
D25*
X74810000Y-117390000D03*
%TO.P,U5,28,GND*%
%TO.N,GND*%
X74810000Y-119930000D03*
D26*
X75710000Y-119930000D03*
D25*
%TO.P,U5,29,GPIO22*%
%TO.N,Net-(TP3-Pad1)*%
X74810000Y-122470000D03*
D24*
X75710000Y-122470000D03*
%TO.P,U5,30,RUN*%
%TO.N,Net-(SW1-Pad1)*%
X75710000Y-125010000D03*
D25*
X74810000Y-125010000D03*
%TO.P,U5,31,GPIO26_ADC0*%
%TO.N,/MCU/DAC0_READ*%
X74810000Y-127550000D03*
D24*
X75710000Y-127550000D03*
D25*
%TO.P,U5,32,GPIO27_ADC1*%
%TO.N,/MCU/DAC1_READ*%
X74810000Y-130090000D03*
D24*
X75710000Y-130090000D03*
D25*
%TO.P,U5,33,AGND*%
%TO.N,GND*%
X74810000Y-132630000D03*
D26*
X75710000Y-132630000D03*
D25*
%TO.P,U5,34,GPIO28_ADC2*%
%TO.N,Net-(TP4-Pad1)*%
X74810000Y-135170000D03*
D24*
X75710000Y-135170000D03*
%TO.P,U5,35,ADC_VREF*%
%TO.N,unconnected-(U5-Pad35)*%
X75710000Y-137710000D03*
D25*
X74810000Y-137710000D03*
D24*
%TO.P,U5,36,3V3*%
%TO.N,+3V3*%
X75710000Y-140250000D03*
D25*
X74810000Y-140250000D03*
D24*
%TO.P,U5,37,3V3_EN*%
%TO.N,unconnected-(U5-Pad37)*%
X75710000Y-142790000D03*
D25*
X74810000Y-142790000D03*
D26*
%TO.P,U5,38,GND*%
%TO.N,GND*%
X75710000Y-145330000D03*
D25*
X74810000Y-145330000D03*
D24*
%TO.P,U5,39,VSYS*%
%TO.N,unconnected-(U5-Pad39)*%
X75710000Y-147870000D03*
D25*
X74810000Y-147870000D03*
D24*
%TO.P,U5,40,VBUS*%
%TO.N,unconnected-(U5-Pad40)*%
X75710000Y-150410000D03*
D25*
X74810000Y-150410000D03*
D27*
%TO.P,U5,41,SWCLK*%
%TO.N,Net-(J3-Pad1)*%
X87140000Y-101480000D03*
D24*
X87140000Y-102380000D03*
D27*
%TO.P,U5,42,GND*%
%TO.N,GND*%
X84600000Y-101480000D03*
D26*
X84600000Y-102380000D03*
D27*
%TO.P,U5,43,SWDIO*%
%TO.N,Net-(J3-Pad3)*%
X82060000Y-101480000D03*
D24*
X82060000Y-102380000D03*
%TD*%
D19*
%TO.P,R12,1*%
%TO.N,/MCU/DAC1_READ*%
X65825000Y-130000000D03*
%TO.P,R12,2*%
%TO.N,Net-(R12-Pad2)*%
X64175000Y-130000000D03*
%TD*%
D28*
%TO.P,R21,1*%
%TO.N,/Interconnect/ERROR*%
X98775000Y-140800000D03*
%TO.P,R21,2*%
%TO.N,+3V3*%
X100425000Y-140800000D03*
%TD*%
D13*
%TO.P,FID3,*%
%TO.N,*%
X117100000Y-151110000D03*
%TD*%
D14*
%TO.P,R9,1*%
%TO.N,OUT_DRIVE0*%
X108200000Y-45325000D03*
%TO.P,R9,2*%
%TO.N,OUT_SENSE0*%
X108200000Y-43675000D03*
%TD*%
D29*
%TO.P,C17,1*%
%TO.N,OUT_DRIVE0*%
X109850000Y-45275000D03*
%TO.P,C17,2*%
%TO.N,OUT_SENSE0*%
X109850000Y-43725000D03*
%TD*%
D10*
%TO.P,MISO_SYS1,1,1*%
%TO.N,/Interconnect/MISO*%
X102400000Y-128300000D03*
X100400000Y-128300000D03*
%TD*%
D11*
%TO.P,U9,1,CCW*%
%TO.N,Net-(R3-Pad2)*%
X108220600Y-24320716D03*
D12*
%TO.P,U9,2,WIPER*%
%TO.N,Net-(R4-Pad2)*%
X107070600Y-20320714D03*
D11*
%TO.P,U9,3,CW*%
%TO.N,Net-(C8-Pad1)*%
X105920600Y-24320716D03*
%TD*%
D10*
%TO.P,MISO_DAC1,1,1*%
%TO.N,/MCU/MISO_DAC*%
X94100000Y-88080000D03*
X92100000Y-88080000D03*
%TD*%
%TO.P,MOSI_SYS1,1,1*%
%TO.N,/Interconnect/MOSI*%
X100400000Y-135500000D03*
X102400000Y-135500000D03*
%TD*%
D26*
%TO.P,J1,1,Pin_1*%
%TO.N,OUT_SENSE1*%
X113766600Y-38227000D03*
D24*
%TO.P,J1,2,Pin_2*%
%TO.N,unconnected-(J1-Pad2)*%
X116306600Y-38227000D03*
%TO.P,J1,3,Pin_3*%
%TO.N,OUT_DRIVE1*%
X113766600Y-40767000D03*
%TO.P,J1,4,Pin_4*%
%TO.N,unconnected-(J1-Pad4)*%
X116306600Y-40767000D03*
%TO.P,J1,5,Pin_5*%
%TO.N,OUT_SENSE0*%
X113766600Y-43307000D03*
%TO.P,J1,6,Pin_6*%
%TO.N,unconnected-(J1-Pad6)*%
X116306600Y-43307000D03*
%TO.P,J1,7,Pin_7*%
%TO.N,OUT_DRIVE0*%
X113766600Y-45847000D03*
%TO.P,J1,8,Pin_8*%
%TO.N,unconnected-(J1-Pad8)*%
X116306600Y-45847000D03*
%TD*%
D26*
%TO.P,J8,1,Pin_1*%
%TO.N,GND*%
X110610000Y-141925000D03*
D24*
%TO.P,J8,2,Pin_2*%
%TO.N,/MCU/UART_TX*%
X108070000Y-141925000D03*
%TO.P,J8,3,Pin_3*%
%TO.N,/MCU/UART_RX*%
X105530000Y-141925000D03*
%TO.P,J8,4,Pin_4*%
%TO.N,+3V3*%
X102990000Y-141925000D03*
%TD*%
D26*
%TO.P,J3,1,Pin_1*%
%TO.N,Net-(J3-Pad1)*%
X63825000Y-142405000D03*
D24*
%TO.P,J3,2,Pin_2*%
%TO.N,GND*%
X61285000Y-142405000D03*
%TO.P,J3,3,Pin_3*%
%TO.N,Net-(J3-Pad3)*%
X58745000Y-142405000D03*
%TD*%
D30*
%TO.P,C7,1*%
%TO.N,+15Vreg*%
X62240000Y-36490000D03*
%TO.P,C7,2*%
%TO.N,GND*%
X62240000Y-40890000D03*
%TD*%
D31*
%TO.P,U2,1,TP*%
%TO.N,unconnected-(U2-Pad1)*%
X108285000Y-33695000D03*
%TO.P,U2,2,VIN*%
%TO.N,+12Vref*%
X108285000Y-32425000D03*
%TO.P,U2,3,NC*%
%TO.N,unconnected-(U2-Pad3)*%
X108285000Y-31155000D03*
%TO.P,U2,4,GND*%
%TO.N,GND*%
X108285000Y-29885000D03*
%TO.P,U2,5,TRIM*%
%TO.N,Net-(R4-Pad1)*%
X103135000Y-29885000D03*
%TO.P,U2,6,VOUT*%
%TO.N,Net-(C8-Pad1)*%
X103135000Y-31155000D03*
%TO.P,U2,7,NC*%
%TO.N,unconnected-(U2-Pad7)*%
X103135000Y-32425000D03*
%TO.P,U2,8,TP*%
%TO.N,unconnected-(U2-Pad8)*%
X103135000Y-33695000D03*
%TD*%
D19*
%TO.P,R14,1*%
%TO.N,+3V3*%
X100900000Y-99800000D03*
%TO.P,R14,2*%
%TO.N,/MCU/MISO_DAC*%
X99250000Y-99800000D03*
%TD*%
D32*
%TO.P,FB1,1*%
%TO.N,+5V*%
X62276500Y-51562000D03*
%TO.P,FB1,2*%
%TO.N,Net-(FB1-Pad2)*%
X60151500Y-51562000D03*
%TD*%
D33*
%TO.P,U3,1*%
%TO.N,N/C*%
X98295000Y-32315000D03*
%TO.P,U3,2,-IN*%
%TO.N,Net-(R7-Pad1)*%
X97025000Y-32315000D03*
%TO.P,U3,3,+IN*%
%TO.N,Net-(C8-Pad1)*%
X95755000Y-32315000D03*
%TO.P,U3,4,V-*%
%TO.N,GND*%
X94485000Y-32315000D03*
%TO.P,U3,5*%
%TO.N,N/C*%
X94485000Y-37265000D03*
%TO.P,U3,6,OUT*%
%TO.N,REF_OUT*%
X95755000Y-37265000D03*
%TO.P,U3,7,V+*%
%TO.N,+12Vref*%
X97025000Y-37265000D03*
%TO.P,U3,8*%
%TO.N,N/C*%
X98295000Y-37265000D03*
%TD*%
D20*
%TO.P,R18,1*%
%TO.N,Net-(R18-Pad1)*%
X99950000Y-75645000D03*
%TO.P,R18,2*%
%TO.N,/MCU/MISO_DAC*%
X99950000Y-77295000D03*
%TD*%
D34*
%TO.P,C38,1*%
%TO.N,GND*%
X79875000Y-62000000D03*
%TO.P,C38,2*%
%TO.N,+14Vreg*%
X78325000Y-62000000D03*
%TD*%
D35*
%TO.P,C2,1*%
%TO.N,GND*%
X62180000Y-25370000D03*
%TO.P,C2,2*%
%TO.N,-15Vreg*%
X62180000Y-20970000D03*
%TD*%
D19*
%TO.P,R20,1*%
%TO.N,+3V3*%
X100425000Y-143400000D03*
%TO.P,R20,2*%
%TO.N,/Interconnect/ACK*%
X98775000Y-143400000D03*
%TD*%
%TO.P,R22,1*%
%TO.N,Net-(R22-Pad1)*%
X69125000Y-117400000D03*
%TO.P,R22,2*%
%TO.N,GND*%
X67475000Y-117400000D03*
%TD*%
D36*
%TO.P,FB3,1*%
%TO.N,Net-(FB3-Pad1)*%
X55747500Y-34280000D03*
%TO.P,FB3,2*%
%TO.N,+15Vreg*%
X57872500Y-34280000D03*
%TD*%
D37*
%TO.P,X1,1,PC10*%
%TO.N,unconnected-(X1-Pad1)*%
X52806600Y-50927000D03*
%TO.P,X1,2,PC11*%
%TO.N,unconnected-(X1-Pad2)*%
X55346600Y-50927000D03*
%TO.P,X1,3,PC12*%
%TO.N,unconnected-(X1-Pad3)*%
X52806600Y-53467000D03*
%TO.P,X1,4,PD2*%
%TO.N,unconnected-(X1-Pad4)*%
X55346600Y-53467000D03*
%TO.P,X1,5,VDD*%
%TO.N,unconnected-(X1-Pad5)*%
X52806600Y-56007000D03*
%TO.P,X1,6,E5V*%
%TO.N,unconnected-(X1-Pad6)*%
X55346600Y-56007000D03*
%TO.P,X1,7,~{BOOT0}*%
%TO.N,unconnected-(X1-Pad7)*%
X52806600Y-58547000D03*
%TO.P,X1,8,GND*%
%TO.N,GND*%
X55346600Y-58547000D03*
%TO.P,X1,9,PF6*%
%TO.N,unconnected-(X1-Pad9)*%
X52806600Y-61087000D03*
%TO.P,X1,10,NC*%
%TO.N,unconnected-(X1-Pad10)*%
X55346600Y-61087000D03*
%TO.P,X1,11,PF7*%
%TO.N,unconnected-(X1-Pad11)*%
X52806600Y-63627000D03*
%TO.P,X1,12,IOREF*%
%TO.N,unconnected-(X1-Pad12)*%
X55346600Y-63627000D03*
%TO.P,X1,13,TMS/PA13*%
%TO.N,unconnected-(X1-Pad13)*%
X52806600Y-66167000D03*
%TO.P,X1,14,~{RST}*%
%TO.N,unconnected-(X1-Pad14)*%
X55346600Y-66167000D03*
%TO.P,X1,15,TCK/PA14*%
%TO.N,unconnected-(X1-Pad15)*%
X52806600Y-68707000D03*
%TO.P,X1,16,+3V3*%
%TO.N,+3V3*%
X55346600Y-68707000D03*
%TO.P,X1,17,PA15*%
%TO.N,unconnected-(X1-Pad17)*%
X52806600Y-71247000D03*
%TO.P,X1,18,+5V*%
%TO.N,unconnected-(X1-Pad18)*%
X55346600Y-71247000D03*
%TO.P,X1,19,GND*%
%TO.N,GND*%
X52806600Y-73787000D03*
%TO.P,X1,20,GND*%
X55346600Y-73787000D03*
%TO.P,X1,21,LD2/PB7*%
%TO.N,unconnected-(X1-Pad21)*%
X52806600Y-76327000D03*
%TO.P,X1,22,GND*%
%TO.N,GND*%
X55346600Y-76327000D03*
%TO.P,X1,23,BT/PC13*%
%TO.N,unconnected-(X1-Pad23)*%
X52806600Y-78867000D03*
%TO.P,X1,24,VIN*%
%TO.N,unconnected-(X1-Pad24)*%
X55346600Y-78867000D03*
%TO.P,X1,25,RTC_CRYSTAL/PC14*%
%TO.N,unconnected-(X1-Pad25)*%
X52806600Y-81407000D03*
%TO.P,X1,26,NC*%
%TO.N,unconnected-(X1-Pad26)*%
X55346600Y-81407000D03*
%TO.P,X1,27,RTC_CRYSTAL/PC15*%
%TO.N,unconnected-(X1-Pad27)*%
X52806600Y-83947000D03*
%TO.P,X1,28,ETH_REF_CLK/PA0*%
%TO.N,unconnected-(X1-Pad28)*%
X55346600Y-83947000D03*
%TO.P,X1,29,PH0*%
%TO.N,unconnected-(X1-Pad29)*%
X52806600Y-86487000D03*
%TO.P,X1,30,ETH_MDIO/PA1*%
%TO.N,unconnected-(X1-Pad30)*%
X55346600Y-86487000D03*
%TO.P,X1,31,PH1*%
%TO.N,unconnected-(X1-Pad31)*%
X52806600Y-89027000D03*
%TO.P,X1,32,PA4*%
%TO.N,/Interconnect/NSS*%
X55346600Y-89027000D03*
%TO.P,X1,33,VBAT*%
%TO.N,unconnected-(X1-Pad33)*%
X52806600Y-91567000D03*
%TO.P,X1,34,PB0*%
%TO.N,unconnected-(X1-Pad34)*%
X55346600Y-91567000D03*
%TO.P,X1,35,PC2*%
%TO.N,unconnected-(X1-Pad35)*%
X52806600Y-94107000D03*
%TO.P,X1,36,ETH_MDC/PC1*%
%TO.N,unconnected-(X1-Pad36)*%
X55346600Y-94107000D03*
%TO.P,X1,37,PC3*%
%TO.N,unconnected-(X1-Pad37)*%
X52806600Y-96647000D03*
%TO.P,X1,38,PC0*%
%TO.N,unconnected-(X1-Pad38)*%
X55346600Y-96647000D03*
%TO.P,X1,39,PD4*%
%TO.N,unconnected-(X1-Pad39)*%
X52806600Y-99187000D03*
%TO.P,X1,40,PD3*%
%TO.N,unconnected-(X1-Pad40)*%
X55346600Y-99187000D03*
%TO.P,X1,41,PD5*%
%TO.N,unconnected-(X1-Pad41)*%
X52806600Y-101727000D03*
%TO.P,X1,42,PG2*%
%TO.N,unconnected-(X1-Pad42)*%
X55346600Y-101727000D03*
%TO.P,X1,43,PD6*%
%TO.N,unconnected-(X1-Pad43)*%
X52806600Y-104267000D03*
%TO.P,X1,44,PG3*%
%TO.N,unconnected-(X1-Pad44)*%
X55346600Y-104267000D03*
%TO.P,X1,45,PD7*%
%TO.N,/Interconnect/MOSI*%
X52806600Y-106807000D03*
%TO.P,X1,46,PE2*%
%TO.N,unconnected-(X1-Pad46)*%
X55346600Y-106807000D03*
%TO.P,X1,47,PE3*%
%TO.N,unconnected-(X1-Pad47)*%
X52806600Y-109347000D03*
%TO.P,X1,48,PE4*%
%TO.N,unconnected-(X1-Pad48)*%
X55346600Y-109347000D03*
%TO.P,X1,49,GND*%
%TO.N,GND*%
X52806600Y-111887000D03*
%TO.P,X1,50,PE5*%
%TO.N,unconnected-(X1-Pad50)*%
X55346600Y-111887000D03*
%TO.P,X1,51,PF1*%
%TO.N,unconnected-(X1-Pad51)*%
X52806600Y-114427000D03*
%TO.P,X1,52,PF2*%
%TO.N,unconnected-(X1-Pad52)*%
X55346600Y-114427000D03*
%TO.P,X1,53,PF0*%
%TO.N,unconnected-(X1-Pad53)*%
X52806600Y-116967000D03*
%TO.P,X1,54,PF8*%
%TO.N,unconnected-(X1-Pad54)*%
X55346600Y-116967000D03*
%TO.P,X1,55,PD1*%
%TO.N,unconnected-(X1-Pad55)*%
X52806600Y-119507000D03*
%TO.P,X1,56,PF9*%
%TO.N,unconnected-(X1-Pad56)*%
X55346600Y-119507000D03*
%TO.P,X1,57,PD0*%
%TO.N,unconnected-(X1-Pad57)*%
X52806600Y-122047000D03*
%TO.P,X1,58,PG1*%
%TO.N,unconnected-(X1-Pad58)*%
X55346600Y-122047000D03*
%TO.P,X1,59,PG0*%
%TO.N,unconnected-(X1-Pad59)*%
X52806600Y-124587000D03*
%TO.P,X1,60,GND*%
%TO.N,GND*%
X55346600Y-124587000D03*
%TO.P,X1,61,PE1*%
%TO.N,unconnected-(X1-Pad61)*%
X52806600Y-127127000D03*
%TO.P,X1,62,PE6*%
%TO.N,unconnected-(X1-Pad62)*%
X55346600Y-127127000D03*
%TO.P,X1,63,PG9*%
%TO.N,unconnected-(X1-Pad63)*%
X52806600Y-129667000D03*
%TO.P,X1,64,PG15*%
%TO.N,unconnected-(X1-Pad64)*%
X55346600Y-129667000D03*
%TO.P,X1,65,PG12*%
%TO.N,unconnected-(X1-Pad65)*%
X52806600Y-132207000D03*
%TO.P,X1,66,PG10*%
%TO.N,unconnected-(X1-Pad66)*%
X55346600Y-132207000D03*
%TO.P,X1,67,NC*%
%TO.N,unconnected-(X1-Pad67)*%
X52806600Y-134747000D03*
%TO.P,X1,68,PG13/ETH_TXD0*%
%TO.N,unconnected-(X1-Pad68)*%
X55346600Y-134747000D03*
%TO.P,X1,69,STLINK_RX/PD9*%
%TO.N,unconnected-(X1-Pad69)*%
X52806600Y-137287000D03*
%TO.P,X1,70,PG11/ETH_TX_EN*%
%TO.N,unconnected-(X1-Pad70)*%
X55346600Y-137287000D03*
%TO.P,X1,71,GND*%
%TO.N,GND*%
X52806600Y-139827000D03*
%TO.P,X1,72,GND*%
X55346600Y-139827000D03*
%TO.P,X1,73,PC9*%
%TO.N,unconnected-(X1-Pad73)*%
X113766600Y-50927000D03*
%TO.P,X1,74,PC8*%
%TO.N,unconnected-(X1-Pad74)*%
X116306600Y-50927000D03*
%TO.P,X1,75,PB8*%
%TO.N,unconnected-(X1-Pad75)*%
X113766600Y-53467000D03*
%TO.P,X1,76,PC6*%
%TO.N,unconnected-(X1-Pad76)*%
X116306600Y-53467000D03*
%TO.P,X1,77,PB9*%
%TO.N,unconnected-(X1-Pad77)*%
X113766600Y-56007000D03*
%TO.P,X1,78,ETH_RXD1/PC5*%
%TO.N,unconnected-(X1-Pad78)*%
X116306600Y-56007000D03*
%TO.P,X1,79,AVDD*%
%TO.N,unconnected-(X1-Pad79)*%
X113766600Y-58547000D03*
%TO.P,X1,80,U5V*%
%TO.N,unconnected-(X1-Pad80)*%
X116306600Y-58547000D03*
%TO.P,X1,81,GND*%
%TO.N,GND*%
X113766600Y-61087000D03*
%TO.P,X1,82,STLINK_TX/PD8*%
%TO.N,unconnected-(X1-Pad82)*%
X116306600Y-61087000D03*
%TO.P,X1,83,PA5*%
%TO.N,/Interconnect/SCK*%
X113766600Y-63627000D03*
%TO.P,X1,84,USB_DP/PA12*%
%TO.N,unconnected-(X1-Pad84)*%
X116306600Y-63627000D03*
%TO.P,X1,85,PA6*%
%TO.N,/Interconnect/MISO*%
X113766600Y-66167000D03*
%TO.P,X1,86,USB_DM/PA11*%
%TO.N,unconnected-(X1-Pad86)*%
X116306600Y-66167000D03*
%TO.P,X1,87,ETH_CRS_DV/PA7*%
%TO.N,unconnected-(X1-Pad87)*%
X113766600Y-68707000D03*
%TO.P,X1,88,PB12*%
%TO.N,unconnected-(X1-Pad88)*%
X116306600Y-68707000D03*
%TO.P,X1,89,PB6*%
%TO.N,unconnected-(X1-Pad89)*%
X113766600Y-71247000D03*
%TO.P,X1,90,PB11*%
%TO.N,unconnected-(X1-Pad90)*%
X116306600Y-71247000D03*
%TO.P,X1,91,PC7*%
%TO.N,unconnected-(X1-Pad91)*%
X113766600Y-73787000D03*
%TO.P,X1,92,GND*%
%TO.N,GND*%
X116306600Y-73787000D03*
%TO.P,X1,93,USB_VBUS/PA9*%
%TO.N,unconnected-(X1-Pad93)*%
X113766600Y-76327000D03*
%TO.P,X1,94,PB2*%
%TO.N,unconnected-(X1-Pad94)*%
X116306600Y-76327000D03*
%TO.P,X1,95,USB_SOF/PA8*%
%TO.N,unconnected-(X1-Pad95)*%
X113766600Y-78867000D03*
%TO.P,X1,96,PB1*%
%TO.N,unconnected-(X1-Pad96)*%
X116306600Y-78867000D03*
%TO.P,X1,97,PB10*%
%TO.N,unconnected-(X1-Pad97)*%
X113766600Y-81407000D03*
%TO.P,X1,98,PB15*%
%TO.N,unconnected-(X1-Pad98)*%
X116306600Y-81407000D03*
%TO.P,X1,99,PB4*%
%TO.N,unconnected-(X1-Pad99)*%
X113766600Y-83947000D03*
%TO.P,X1,100,LD3/PB14*%
%TO.N,unconnected-(X1-Pad100)*%
X116306600Y-83947000D03*
%TO.P,X1,101,PB5*%
%TO.N,unconnected-(X1-Pad101)*%
X113766600Y-86487000D03*
%TO.P,X1,102,ETH_TXD1/PB13*%
%TO.N,unconnected-(X1-Pad102)*%
X116306600Y-86487000D03*
%TO.P,X1,103,SWO/PB3*%
%TO.N,unconnected-(X1-Pad103)*%
X113766600Y-89027000D03*
%TO.P,X1,104,AGND*%
%TO.N,unconnected-(X1-Pad104)*%
X116306600Y-89027000D03*
%TO.P,X1,105,USB_ID/PA10*%
%TO.N,unconnected-(X1-Pad105)*%
X113766600Y-91567000D03*
%TO.P,X1,106,ETH_RXD0/PC4*%
%TO.N,unconnected-(X1-Pad106)*%
X116306600Y-91567000D03*
%TO.P,X1,107,PA2*%
%TO.N,unconnected-(X1-Pad107)*%
X113766600Y-94107000D03*
%TO.P,X1,108,PF5*%
%TO.N,unconnected-(X1-Pad108)*%
X116306600Y-94107000D03*
%TO.P,X1,109,PA3*%
%TO.N,unconnected-(X1-Pad109)*%
X113766600Y-96647000D03*
%TO.P,X1,110,PF4*%
%TO.N,unconnected-(X1-Pad110)*%
X116306600Y-96647000D03*
%TO.P,X1,111,GND*%
%TO.N,GND*%
X113766600Y-99187000D03*
%TO.P,X1,112,PE8*%
%TO.N,unconnected-(X1-Pad112)*%
X116306600Y-99187000D03*
%TO.P,X1,113,PD13*%
%TO.N,unconnected-(X1-Pad113)*%
X113766600Y-101727000D03*
%TO.P,X1,114,PF10*%
%TO.N,unconnected-(X1-Pad114)*%
X116306600Y-101727000D03*
%TO.P,X1,115,PD12*%
%TO.N,unconnected-(X1-Pad115)*%
X113766600Y-104267000D03*
%TO.P,X1,116,PE7*%
%TO.N,unconnected-(X1-Pad116)*%
X116306600Y-104267000D03*
%TO.P,X1,117,PD11*%
%TO.N,unconnected-(X1-Pad117)*%
X113766600Y-106807000D03*
%TO.P,X1,118,PD14*%
%TO.N,unconnected-(X1-Pad118)*%
X116306600Y-106807000D03*
%TO.P,X1,119,PE10*%
%TO.N,unconnected-(X1-Pad119)*%
X113766600Y-109347000D03*
%TO.P,X1,120,PD15*%
%TO.N,unconnected-(X1-Pad120)*%
X116306600Y-109347000D03*
%TO.P,X1,121,PE12*%
%TO.N,unconnected-(X1-Pad121)*%
X113766600Y-111887000D03*
%TO.P,X1,122,PF14*%
%TO.N,unconnected-(X1-Pad122)*%
X116306600Y-111887000D03*
%TO.P,X1,123,PE14*%
%TO.N,unconnected-(X1-Pad123)*%
X113766600Y-114427000D03*
%TO.P,X1,124,PE9*%
%TO.N,unconnected-(X1-Pad124)*%
X116306600Y-114427000D03*
%TO.P,X1,125,PE15*%
%TO.N,unconnected-(X1-Pad125)*%
X113766600Y-116967000D03*
%TO.P,X1,126,GND*%
%TO.N,GND*%
X116306600Y-116967000D03*
%TO.P,X1,127,PE13*%
%TO.N,unconnected-(X1-Pad127)*%
X113766600Y-119507000D03*
%TO.P,X1,128,PE11*%
%TO.N,unconnected-(X1-Pad128)*%
X116306600Y-119507000D03*
%TO.P,X1,129,PF13*%
%TO.N,unconnected-(X1-Pad129)*%
X113766600Y-122047000D03*
%TO.P,X1,130,PF3*%
%TO.N,unconnected-(X1-Pad130)*%
X116306600Y-122047000D03*
%TO.P,X1,131,PF12*%
%TO.N,unconnected-(X1-Pad131)*%
X113766600Y-124587000D03*
%TO.P,X1,132,PF15*%
%TO.N,unconnected-(X1-Pad132)*%
X116306600Y-124587000D03*
%TO.P,X1,133,PG14*%
%TO.N,/Interconnect/ERROR*%
X113766600Y-127127000D03*
%TO.P,X1,134,PF11*%
%TO.N,unconnected-(X1-Pad134)*%
X116306600Y-127127000D03*
%TO.P,X1,135,GND*%
%TO.N,GND*%
X113766600Y-129667000D03*
%TO.P,X1,136,PE0*%
%TO.N,unconnected-(X1-Pad136)*%
X116306600Y-129667000D03*
%TO.P,X1,137,PD10*%
%TO.N,unconnected-(X1-Pad137)*%
X113766600Y-132207000D03*
%TO.P,X1,138,PG8*%
%TO.N,/Interconnect/ACK*%
X116306600Y-132207000D03*
%TO.P,X1,139,PG7/USB_GPIO_IN*%
%TO.N,unconnected-(X1-Pad139)*%
X113766600Y-134747000D03*
%TO.P,X1,140,PG5*%
%TO.N,unconnected-(X1-Pad140)*%
X116306600Y-134747000D03*
%TO.P,X1,141,PG4*%
%TO.N,unconnected-(X1-Pad141)*%
X113766600Y-137287000D03*
%TO.P,X1,142,PG6/USB_GPIO_OUT*%
%TO.N,unconnected-(X1-Pad142)*%
X116306600Y-137287000D03*
%TO.P,X1,143,GND*%
%TO.N,GND*%
X113766600Y-139827000D03*
%TO.P,X1,144,GND*%
X116306600Y-139827000D03*
%TO.P,X1,145*%
%TO.N,N/C*%
X52806600Y-22987000D03*
%TO.P,X1,146*%
X52806600Y-25527000D03*
%TO.P,X1,147*%
X116306600Y-22987000D03*
%TO.P,X1,148*%
X116306600Y-25527000D03*
%TD*%
D14*
%TO.P,R3,1*%
%TO.N,GND*%
X110490000Y-25925000D03*
%TO.P,R3,2*%
%TO.N,Net-(R3-Pad2)*%
X110490000Y-24275000D03*
%TD*%
D23*
%TO.P,C15,1*%
%TO.N,+14Vreg*%
X75438000Y-38087000D03*
%TO.P,C15,2*%
%TO.N,GND*%
X75438000Y-39637000D03*
%TD*%
D34*
%TO.P,C20,1*%
%TO.N,+3V3*%
X95675000Y-70100000D03*
%TO.P,C20,2*%
%TO.N,GND*%
X94125000Y-70100000D03*
%TD*%
D19*
%TO.P,R6,1*%
%TO.N,+3V3*%
X100125000Y-98300000D03*
%TO.P,R6,2*%
%TO.N,/MCU/CS_DAC0*%
X98475000Y-98300000D03*
%TD*%
D38*
%TO.P,C36,1*%
%TO.N,Net-(C36-Pad1)*%
X72725000Y-57400000D03*
%TO.P,C36,2*%
%TO.N,Net-(C36-Pad2)*%
X74275000Y-57400000D03*
%TD*%
D13*
%TO.P,FID2,*%
%TO.N,*%
X118080000Y-20350000D03*
%TD*%
D10*
%TO.P,CS_DAC1,1,1*%
%TO.N,/MCU/CS_DAC1*%
X92100000Y-95700000D03*
X94100000Y-95700000D03*
%TD*%
D19*
%TO.P,R19,1*%
%TO.N,/MCU/MISO_DAC*%
X76415000Y-72550000D03*
%TO.P,R19,2*%
%TO.N,Net-(R19-Pad2)*%
X74765000Y-72550000D03*
%TD*%
D20*
%TO.P,R8,1*%
%TO.N,Net-(R7-Pad1)*%
X100100000Y-35505000D03*
%TO.P,R8,2*%
%TO.N,REF_OUT*%
X100100000Y-37155000D03*
%TD*%
D29*
%TO.P,C8,1*%
%TO.N,Net-(C8-Pad1)*%
X101100000Y-30975000D03*
%TO.P,C8,2*%
%TO.N,GND*%
X101100000Y-29425000D03*
%TD*%
D21*
%TO.P,U13,1,NC*%
%TO.N,unconnected-(U13-Pad1)*%
X106995000Y-57075000D03*
%TO.P,U13,2,-*%
%TO.N,Net-(R12-Pad2)*%
X108265000Y-57075000D03*
%TO.P,U13,3,+*%
%TO.N,OUT_DRIVE1*%
X109535000Y-57075000D03*
%TO.P,U13,4,V-*%
%TO.N,GND*%
X110805000Y-57075000D03*
%TO.P,U13,5,NC*%
%TO.N,unconnected-(U13-Pad5)*%
X110805000Y-52125000D03*
%TO.P,U13,6*%
%TO.N,Net-(R12-Pad2)*%
X109535000Y-52125000D03*
%TO.P,U13,7,V+*%
%TO.N,+12Vref*%
X108265000Y-52125000D03*
%TO.P,U13,8,NC*%
%TO.N,unconnected-(U13-Pad8)*%
X106995000Y-52125000D03*
%TD*%
D38*
%TO.P,C39,1*%
%TO.N,-14Vreg*%
X78325000Y-63600000D03*
%TO.P,C39,2*%
%TO.N,GND*%
X79875000Y-63600000D03*
%TD*%
D10*
%TO.P,TP1,1,1*%
%TO.N,Net-(TP1-Pad1)*%
X61400000Y-109900000D03*
X63400000Y-109900000D03*
%TD*%
D14*
%TO.P,R4,1*%
%TO.N,Net-(R4-Pad1)*%
X103080000Y-25875000D03*
%TO.P,R4,2*%
%TO.N,Net-(R4-Pad2)*%
X103080000Y-24225000D03*
%TD*%
D20*
%TO.P,R5,1*%
%TO.N,/MCU/ALARM_DAC0*%
X88700000Y-90025000D03*
%TO.P,R5,2*%
%TO.N,+3V3*%
X88700000Y-91675000D03*
%TD*%
D14*
%TO.P,R10,1*%
%TO.N,/MCU/DAC0_READ*%
X69200000Y-127425000D03*
%TO.P,R10,2*%
%TO.N,GND*%
X69200000Y-125775000D03*
%TD*%
D10*
%TO.P,MOSI_DAC1,1,1*%
%TO.N,/MCU/MOSI_DAC*%
X94100000Y-90620000D03*
X92100000Y-90620000D03*
%TD*%
D39*
%TO.P,C21,1*%
%TO.N,+3V3*%
X67826073Y-137602017D03*
%TO.P,C21,2*%
%TO.N,GND*%
X64714803Y-134490747D03*
%TD*%
D40*
%TO.P,C13,1*%
%TO.N,+14Vreg*%
X79750000Y-36030000D03*
%TO.P,C13,2*%
%TO.N,GND*%
X79750000Y-41430000D03*
%TD*%
D33*
%TO.P,U4,1*%
%TO.N,OUT_DRIVE0*%
X90810000Y-48150000D03*
%TO.P,U4,2,-*%
%TO.N,OUT_SENSE0*%
X89540000Y-48150000D03*
%TO.P,U4,3,+*%
%TO.N,Net-(U1-Pad7)*%
X88270000Y-48150000D03*
%TO.P,U4,4,V+*%
%TO.N,+12Vref*%
X87000000Y-48150000D03*
%TO.P,U4,5,+*%
%TO.N,Net-(U14-Pad7)*%
X85730000Y-48150000D03*
%TO.P,U4,6,-*%
%TO.N,OUT_SENSE1*%
X84460000Y-48150000D03*
%TO.P,U4,7*%
%TO.N,OUT_DRIVE1*%
X83190000Y-48150000D03*
%TO.P,U4,8*%
%TO.N,Net-(C36-Pad2)*%
X83190000Y-53100000D03*
%TO.P,U4,9,-*%
%TO.N,Net-(C36-Pad1)*%
X84460000Y-53100000D03*
%TO.P,U4,10,+*%
%TO.N,REF_OUT*%
X85730000Y-53100000D03*
%TO.P,U4,11,V-*%
%TO.N,GND*%
X87000000Y-53100000D03*
%TO.P,U4,12,+*%
%TO.N,REF_OUT*%
X88270000Y-53100000D03*
%TO.P,U4,13,-*%
%TO.N,Net-(C1-Pad1)*%
X89540000Y-53100000D03*
%TO.P,U4,14*%
%TO.N,Net-(C1-Pad2)*%
X90810000Y-53100000D03*
%TD*%
D34*
%TO.P,C4,1*%
%TO.N,GND*%
X75655000Y-26720000D03*
%TO.P,C4,2*%
%TO.N,Net-(C4-Pad2)*%
X74105000Y-26720000D03*
%TD*%
D28*
%TO.P,R11,1*%
%TO.N,Net-(R11-Pad1)*%
X64175000Y-127400000D03*
%TO.P,R11,2*%
%TO.N,/MCU/DAC0_READ*%
X65825000Y-127400000D03*
%TD*%
D10*
%TO.P,GND1,1,1*%
%TO.N,GND*%
X100400000Y-125900000D03*
X102400000Y-125900000D03*
%TD*%
D29*
%TO.P,C3,1*%
%TO.N,+12Vref*%
X110490000Y-31001000D03*
%TO.P,C3,2*%
%TO.N,GND*%
X110490000Y-29451000D03*
%TD*%
D41*
%TO.P,U11,1,GND*%
%TO.N,GND*%
X88840000Y-25030700D03*
D42*
%TO.P,U11,2,IN*%
%TO.N,+14Vreg*%
X90340000Y-24943200D03*
D41*
%TO.P,U11,3,OUT*%
%TO.N,+12Vref*%
X91840000Y-25030700D03*
%TD*%
D38*
%TO.P,C10,1*%
%TO.N,GND*%
X87615000Y-28730000D03*
%TO.P,C10,2*%
%TO.N,+14Vreg*%
X89165000Y-28730000D03*
%TD*%
D43*
%TO.P,U7,1,IN*%
%TO.N,-15Vreg*%
X68010000Y-21395000D03*
%TO.P,U7,2,IN*%
X68010000Y-22045000D03*
%TO.P,U7,3,EN/UV*%
X68010000Y-22695000D03*
%TO.P,U7,4,PG*%
%TO.N,unconnected-(U7-Pad4)*%
X68010000Y-23345000D03*
%TO.P,U7,5,PGFB*%
%TO.N,-15Vreg*%
X68010000Y-23995000D03*
%TO.P,U7,6,ILIM*%
%TO.N,GND*%
X68010000Y-24645000D03*
%TO.P,U7,7,VOIC*%
%TO.N,unconnected-(U7-Pad7)*%
X72310000Y-24645000D03*
%TO.P,U7,8,SET*%
%TO.N,Net-(C4-Pad2)*%
X72310000Y-23995000D03*
%TO.P,U7,9,GND*%
%TO.N,GND*%
X72310000Y-23345000D03*
%TO.P,U7,10,OUTS*%
%TO.N,-14Vreg*%
X72310000Y-22695000D03*
%TO.P,U7,11,OUT*%
X72310000Y-22045000D03*
%TO.P,U7,12,OUT*%
X72310000Y-21395000D03*
D44*
%TO.P,U7,13,EPAD*%
%TO.N,-15Vreg*%
X70160000Y-23020000D03*
%TD*%
D19*
%TO.P,R25,1*%
%TO.N,Net-(R25-Pad1)*%
X69125000Y-109900000D03*
%TO.P,R25,2*%
%TO.N,GND*%
X67475000Y-109900000D03*
%TD*%
D34*
%TO.P,C9,1*%
%TO.N,GND*%
X88575000Y-45500000D03*
%TO.P,C9,2*%
%TO.N,+12Vref*%
X87025000Y-45500000D03*
%TD*%
D23*
%TO.P,C6,1*%
%TO.N,-14Vreg*%
X74930000Y-21925000D03*
%TO.P,C6,2*%
%TO.N,GND*%
X74930000Y-23475000D03*
%TD*%
%TO.P,C35,1*%
%TO.N,GND*%
X92700000Y-33900000D03*
%TO.P,C35,2*%
%TO.N,+12Vref*%
X92700000Y-35450000D03*
%TD*%
D35*
%TO.P,C12,1*%
%TO.N,+12Vref*%
X96570800Y-25517200D03*
%TO.P,C12,2*%
%TO.N,GND*%
X96570800Y-21117200D03*
%TD*%
D29*
%TO.P,C37,1*%
%TO.N,OUT_DRIVE1*%
X109850000Y-40275000D03*
%TO.P,C37,2*%
%TO.N,OUT_SENSE1*%
X109850000Y-38725000D03*
%TD*%
D38*
%TO.P,C19,1*%
%TO.N,-14Vreg*%
X103525000Y-63600000D03*
%TO.P,C19,2*%
%TO.N,GND*%
X105075000Y-63600000D03*
%TD*%
D26*
%TO.P,J2,1,Pin_1*%
%TO.N,Net-(FB2-Pad2)*%
X52806600Y-38227000D03*
D24*
%TO.P,J2,2,Pin_2*%
%TO.N,Net-(FB3-Pad1)*%
X55346600Y-38227000D03*
%TO.P,J2,3,Pin_3*%
%TO.N,GND*%
X52806600Y-40767000D03*
%TO.P,J2,4,Pin_4*%
X55346600Y-40767000D03*
%TO.P,J2,5,Pin_5*%
%TO.N,Net-(FB1-Pad2)*%
X52806600Y-43307000D03*
%TO.P,J2,6,Pin_6*%
%TO.N,GND*%
X55346600Y-43307000D03*
%TO.P,J2,7,Pin_7*%
%TO.N,+12V*%
X52806600Y-45847000D03*
%TO.P,J2,8,Pin_8*%
%TO.N,+24V*%
X55346600Y-45847000D03*
%TD*%
D19*
%TO.P,R24,1*%
%TO.N,Net-(R24-Pad1)*%
X69125000Y-112300000D03*
%TO.P,R24,2*%
%TO.N,GND*%
X67475000Y-112300000D03*
%TD*%
D38*
%TO.P,C1,1*%
%TO.N,Net-(C1-Pad1)*%
X97925000Y-57500000D03*
%TO.P,C1,2*%
%TO.N,Net-(C1-Pad2)*%
X99475000Y-57500000D03*
%TD*%
%TO.P,C16,1*%
%TO.N,GND*%
X101225000Y-49900000D03*
%TO.P,C16,2*%
%TO.N,+12Vref*%
X102775000Y-49900000D03*
%TD*%
D23*
%TO.P,C22,1*%
%TO.N,+5V*%
X78400000Y-65225000D03*
%TO.P,C22,2*%
%TO.N,GND*%
X78400000Y-66775000D03*
%TD*%
%TO.P,C14,1*%
%TO.N,GND*%
X106000000Y-48300000D03*
%TO.P,C14,2*%
%TO.N,+12Vref*%
X106000000Y-49850000D03*
%TD*%
D28*
%TO.P,R1,1*%
%TO.N,Net-(R1-Pad1)*%
X73815000Y-44670000D03*
%TO.P,R1,2*%
%TO.N,GND*%
X75465000Y-44670000D03*
%TD*%
D14*
%TO.P,R13,1*%
%TO.N,GND*%
X69200000Y-131625000D03*
%TO.P,R13,2*%
%TO.N,/MCU/DAC1_READ*%
X69200000Y-129975000D03*
%TD*%
D19*
%TO.P,R23,1*%
%TO.N,Net-(R23-Pad1)*%
X69125000Y-114900000D03*
%TO.P,R23,2*%
%TO.N,GND*%
X67475000Y-114900000D03*
%TD*%
D10*
%TO.P,CS_DAC0,1,1*%
%TO.N,/MCU/CS_DAC0*%
X92100000Y-93160000D03*
X94100000Y-93160000D03*
%TD*%
D45*
%TO.P,SW1,1,1*%
%TO.N,Net-(SW1-Pad1)*%
X50902100Y-151988500D03*
%TO.P,SW1,2,2*%
X50902100Y-143581100D03*
%TO.P,SW1,3,3*%
%TO.N,GND*%
X55397900Y-151988500D03*
%TO.P,SW1,4,4*%
X55397900Y-143581100D03*
%TO.P,SW1,5,5*%
X53150000Y-143581100D03*
%TD*%
D34*
%TO.P,C18,1*%
%TO.N,GND*%
X105075000Y-62000000D03*
%TO.P,C18,2*%
%TO.N,+14Vreg*%
X103525000Y-62000000D03*
%TD*%
D14*
%TO.P,R16,1*%
%TO.N,OUT_DRIVE1*%
X108200000Y-40325000D03*
%TO.P,R16,2*%
%TO.N,OUT_SENSE1*%
X108200000Y-38675000D03*
%TD*%
D38*
%TO.P,C11,1*%
%TO.N,Net-(C11-Pad1)*%
X73901000Y-42672000D03*
%TO.P,C11,2*%
%TO.N,GND*%
X75451000Y-42672000D03*
%TD*%
D46*
%TO.P,C5,1*%
%TO.N,GND*%
X80160000Y-26580000D03*
%TO.P,C5,2*%
%TO.N,-14Vreg*%
X80160000Y-21180000D03*
%TD*%
D15*
%TO.P,U1,1,NC*%
%TO.N,unconnected-(U1-Pad1)*%
X99950000Y-59587500D03*
%TO.P,U1,2,AGND*%
%TO.N,GND*%
X99450000Y-59587500D03*
%TO.P,U1,3,REFPF*%
%TO.N,Net-(C1-Pad2)*%
X98950000Y-59587500D03*
%TO.P,U1,4,REFPS*%
%TO.N,Net-(C1-Pad1)*%
X98450000Y-59587500D03*
%TO.P,U1,5,REFNF*%
%TO.N,GND*%
X97950000Y-59587500D03*
%TO.P,U1,6,REFNS*%
X97450000Y-59587500D03*
%TO.P,U1,7,OUT*%
%TO.N,Net-(U1-Pad7)*%
X96950000Y-59587500D03*
%TO.P,U1,8,AGND-OUT*%
%TO.N,GND*%
X96450000Y-59587500D03*
%TO.P,U1,9,RFB*%
%TO.N,unconnected-(U1-Pad9)*%
X95950000Y-59587500D03*
%TO.P,U1,10,ROFS*%
%TO.N,unconnected-(U1-Pad10)*%
X95450000Y-59587500D03*
%TO.P,U1,11,RCM*%
%TO.N,unconnected-(U1-Pad11)*%
X94950000Y-59587500D03*
%TO.P,U1,12,NC*%
%TO.N,unconnected-(U1-Pad12)*%
X94450000Y-59587500D03*
D16*
%TO.P,U1,13,NC*%
%TO.N,unconnected-(U1-Pad13)*%
X93037500Y-61000000D03*
%TO.P,U1,14,AGND-TNH*%
%TO.N,GND*%
X93037500Y-61500000D03*
%TO.P,U1,15,NC*%
%TO.N,unconnected-(U1-Pad15)*%
X93037500Y-62000000D03*
%TO.P,U1,16,DGND*%
%TO.N,GND*%
X93037500Y-62500000D03*
%TO.P,U1,17,DGND*%
X93037500Y-63000000D03*
%TO.P,U1,18,LDAC*%
%TO.N,/MCU/LDAC*%
X93037500Y-63500000D03*
%TO.P,U1,19,ALARM*%
%TO.N,/MCU/ALARM_DAC0*%
X93037500Y-64000000D03*
%TO.P,U1,20,DGND*%
%TO.N,GND*%
X93037500Y-64500000D03*
%TO.P,U1,21,DGND*%
X93037500Y-65000000D03*
%TO.P,U1,22,DGND*%
X93037500Y-65500000D03*
%TO.P,U1,23,DGND*%
X93037500Y-66000000D03*
%TO.P,U1,24,NC*%
%TO.N,unconnected-(U1-Pad24)*%
X93037500Y-66500000D03*
D15*
%TO.P,U1,25,NC*%
%TO.N,unconnected-(U1-Pad25)*%
X94450000Y-67912500D03*
%TO.P,U1,26,DGND*%
%TO.N,GND*%
X94950000Y-67912500D03*
%TO.P,U1,27,DVDD*%
%TO.N,+3V3*%
X95450000Y-67912500D03*
%TO.P,U1,28,IOVDD*%
X95950000Y-67912500D03*
%TO.P,U1,29,NC*%
%TO.N,unconnected-(U1-Pad29)*%
X96450000Y-67912500D03*
%TO.P,U1,30,CLR*%
%TO.N,+3V3*%
X96950000Y-67912500D03*
%TO.P,U1,31,SCLK*%
%TO.N,/MCU/SCK_DAC*%
X97450000Y-67912500D03*
%TO.P,U1,32,SDIN*%
%TO.N,/MCU/MOSI_DAC*%
X97950000Y-67912500D03*
%TO.P,U1,33,SYNC*%
%TO.N,/MCU/CS_DAC0*%
X98450000Y-67912500D03*
%TO.P,U1,34,SDO*%
%TO.N,Net-(R18-Pad1)*%
X98950000Y-67912500D03*
%TO.P,U1,35,AGND*%
%TO.N,GND*%
X99450000Y-67912500D03*
%TO.P,U1,36,NC*%
%TO.N,unconnected-(U1-Pad36)*%
X99950000Y-67912500D03*
D16*
%TO.P,U1,37,NC*%
%TO.N,unconnected-(U1-Pad37)*%
X101362500Y-66500000D03*
%TO.P,U1,38,AGND*%
%TO.N,GND*%
X101362500Y-66000000D03*
%TO.P,U1,39,AVDD*%
%TO.N,+5V*%
X101362500Y-65500000D03*
%TO.P,U1,40,AGND*%
%TO.N,GND*%
X101362500Y-65000000D03*
%TO.P,U1,41,AVDD*%
%TO.N,+5V*%
X101362500Y-64500000D03*
%TO.P,U1,42,AGND*%
%TO.N,GND*%
X101362500Y-64000000D03*
%TO.P,U1,43,AGND*%
X101362500Y-63500000D03*
%TO.P,U1,44,VSS*%
%TO.N,-14Vreg*%
X101362500Y-63000000D03*
%TO.P,U1,45,VCC*%
%TO.N,+14Vreg*%
X101362500Y-62500000D03*
%TO.P,U1,46,AGND*%
%TO.N,GND*%
X101362500Y-62000000D03*
%TO.P,U1,47,AGND*%
X101362500Y-61500000D03*
%TO.P,U1,48,NC*%
%TO.N,unconnected-(U1-Pad48)*%
X101362500Y-61000000D03*
%TD*%
D10*
%TO.P,CS_SYS1,1,1*%
%TO.N,/Interconnect/NSS*%
X102400000Y-133100000D03*
X100400000Y-133100000D03*
%TD*%
D28*
%TO.P,R15,1*%
%TO.N,+3V3*%
X75775000Y-90000000D03*
%TO.P,R15,2*%
%TO.N,/MCU/ALARM_DAC1*%
X77425000Y-90000000D03*
%TD*%
D34*
%TO.P,C40,1*%
%TO.N,+3V3*%
X70500000Y-70000000D03*
%TO.P,C40,2*%
%TO.N,GND*%
X68950000Y-70000000D03*
%TD*%
D47*
%TO.N,+12Vref*%
X96600000Y-27900000D03*
X93100000Y-27600000D03*
X93100000Y-25000000D03*
X94234000Y-27600000D03*
X110236000Y-32512000D03*
X87600000Y-46600000D03*
X93100000Y-26300000D03*
X94200000Y-25000000D03*
X94234000Y-26300000D03*
X87000000Y-49800000D03*
X97000000Y-39000000D03*
X107200000Y-50400000D03*
X95800000Y-35600000D03*
X103790500Y-49900000D03*
X97050000Y-35600000D03*
X94450000Y-35600000D03*
X92700000Y-36650000D03*
%TO.N,GND*%
X72800000Y-61300000D03*
X69596000Y-36576000D03*
X71200000Y-64600000D03*
X105050000Y-60700000D03*
X78390000Y-24700000D03*
X79900000Y-60750000D03*
X96400000Y-63000000D03*
X69200000Y-132800000D03*
X89800000Y-46000000D03*
X69600000Y-61300000D03*
X60706000Y-43434000D03*
X110800000Y-55400000D03*
X98000000Y-64600000D03*
X62230000Y-27686000D03*
X92300000Y-31600000D03*
X88845000Y-23755000D03*
X96400000Y-64600000D03*
X68249800Y-25527000D03*
X89800000Y-45000000D03*
X77200000Y-44196000D03*
X98300000Y-21100000D03*
X106450000Y-63650000D03*
X77500000Y-25470000D03*
X99700000Y-63000000D03*
X101600000Y-28200000D03*
X98000000Y-66300000D03*
X72800000Y-66300000D03*
X101600000Y-38354000D03*
X98000000Y-63000000D03*
X78400000Y-67950000D03*
X69600000Y-64600000D03*
X63500000Y-27686000D03*
X72800000Y-64600000D03*
X69200000Y-124700000D03*
X77520000Y-23710000D03*
X99700000Y-61300000D03*
X65278226Y-132142304D03*
X72800000Y-63000000D03*
X69400000Y-66300000D03*
X88061800Y-27101800D03*
X94800000Y-64600000D03*
X103600000Y-68050000D03*
X109372400Y-28956000D03*
X94800000Y-63000000D03*
X62230000Y-43434000D03*
X106000000Y-47242815D03*
X77200000Y-42700000D03*
X74500000Y-61300000D03*
X55397400Y-150283200D03*
X80010000Y-44196000D03*
X94800000Y-61300000D03*
X86500000Y-54900000D03*
X81050000Y-64350000D03*
X67200000Y-134100000D03*
X69600000Y-63000000D03*
X71200000Y-63000000D03*
X100700000Y-28200000D03*
X96400000Y-61300000D03*
X63754000Y-43434000D03*
X60960000Y-27686000D03*
X94900000Y-21100000D03*
X100100000Y-49900000D03*
X93300000Y-32600000D03*
X93300000Y-31600000D03*
X77216000Y-39624000D03*
X87500000Y-54900000D03*
X63949148Y-136524669D03*
X98000000Y-61300000D03*
X105100000Y-55400000D03*
X74930000Y-25146000D03*
X94600000Y-66300000D03*
X67132200Y-25527000D03*
X92300000Y-32600000D03*
X96600000Y-23100000D03*
X75438000Y-41148000D03*
X77216000Y-41148000D03*
X77470000Y-28702000D03*
X69596000Y-40640000D03*
X70612000Y-40640000D03*
X54254400Y-145000000D03*
X74500000Y-63000000D03*
X62314741Y-134854342D03*
X71200000Y-61300000D03*
X110464600Y-27203400D03*
X67500000Y-108400000D03*
X70612000Y-36576000D03*
%TO.N,-14Vreg*%
X106850000Y-61800000D03*
X85110000Y-30180000D03*
X83750000Y-62750000D03*
%TO.N,+14Vreg*%
X102850000Y-60000000D03*
X78300000Y-60550000D03*
X81325000Y-36570000D03*
D48*
%TO.N,+3V3*%
X74300000Y-90000000D03*
D47*
X101100000Y-98300000D03*
X95750000Y-66400000D03*
D48*
X76100000Y-84000000D03*
D47*
X96650000Y-66400000D03*
X88700000Y-93000000D03*
X70550000Y-66400000D03*
X71450000Y-66400000D03*
X101900000Y-99800000D03*
%TO.N,+5V*%
X104850000Y-64900000D03*
X104850000Y-65800000D03*
X79650000Y-65700000D03*
X66050000Y-60250000D03*
X79650000Y-64800000D03*
X74650000Y-65450000D03*
X99750000Y-65500000D03*
D48*
%TO.N,/MCU/CS_DAC0*%
X98450000Y-92800000D03*
D47*
%TO.N,REF_OUT*%
X86000000Y-51350000D03*
X95755000Y-39655000D03*
X87000000Y-51300000D03*
X88000000Y-51300000D03*
%TO.N,/MCU/ALARM_DAC1*%
X86233000Y-98679000D03*
%TO.N,/MCU/CS_DAC1*%
X88300000Y-97700000D03*
%TO.N,/MCU/LDAC*%
X86700000Y-70050000D03*
X64900000Y-63500000D03*
D48*
%TO.N,/MCU/SCK_DAC*%
X96500000Y-79900000D03*
X71790000Y-71030000D03*
%TO.N,/MCU/MOSI_DAC*%
X97350000Y-90000000D03*
X97337400Y-80572600D03*
X97320000Y-111030000D03*
X72000000Y-72400000D03*
%TO.N,/MCU/MISO_DAC*%
X81541985Y-79211985D03*
X99200000Y-87600000D03*
X99208015Y-79211985D03*
D47*
%TO.N,Net-(R11-Pad1)*%
X64200000Y-126200000D03*
X101000000Y-119950000D03*
%TO.N,Net-(R12-Pad2)*%
X64150000Y-128800000D03*
X100950000Y-123300000D03*
%TD*%
D49*
%TO.N,Net-(C1-Pad1)*%
X97925000Y-58125000D02*
X97925000Y-57500000D01*
X94825000Y-54412259D02*
X94825000Y-55100000D01*
X96025000Y-54412259D02*
X96025000Y-54800000D01*
X91818870Y-55100000D02*
X91825000Y-55100000D01*
X95425000Y-55100000D02*
X95425000Y-54412259D01*
X93025000Y-55100000D02*
X93025000Y-54412259D01*
X97925000Y-56025000D02*
X97925000Y-57500000D01*
X93625000Y-55100000D02*
X93625000Y-55218871D01*
X91818870Y-55218870D02*
X91818870Y-55100000D01*
X94225000Y-55218871D02*
X94225000Y-55100000D01*
X98450000Y-59587500D02*
X98450000Y-58650000D01*
X92425000Y-55100000D02*
X92425000Y-55218871D01*
X91218870Y-55218870D02*
X91218870Y-55218871D01*
X98450000Y-58650000D02*
X97925000Y-58125000D01*
X91337740Y-55337741D02*
X91700000Y-55337741D01*
X96325000Y-55100000D02*
X97000000Y-55100000D01*
X93025000Y-55218871D02*
X93025000Y-55100000D01*
X91818870Y-55218871D02*
X91818870Y-55218870D01*
X93625000Y-54412259D02*
X93625000Y-55100000D01*
X92425000Y-54412259D02*
X92425000Y-55100000D01*
X94225000Y-55100000D02*
X94225000Y-54412259D01*
X95425000Y-55268871D02*
X95425000Y-55100000D01*
X94825000Y-55100000D02*
X94825000Y-55268871D01*
X89540000Y-53100000D02*
X89540000Y-54140000D01*
X94993870Y-55437741D02*
X95256130Y-55437741D01*
X89540000Y-54140000D02*
X90500000Y-55100000D01*
X91825000Y-55100000D02*
X91825000Y-54412259D01*
X97000000Y-55100000D02*
X97925000Y-56025000D01*
X92543870Y-55337741D02*
X92906130Y-55337741D01*
X90500000Y-55100000D02*
X91100000Y-55100000D01*
X93743870Y-55337741D02*
X94106130Y-55337741D01*
X96325000Y-55100000D02*
G75*
G02*
X96025000Y-54800000I0J300000D01*
G01*
X93743870Y-55337800D02*
G75*
G02*
X93625000Y-55218871I30J118900D01*
G01*
X91818841Y-55218871D02*
G75*
G02*
X91700000Y-55337741I-118841J-29D01*
G01*
X91218900Y-55218870D02*
G75*
G03*
X91100000Y-55100000I-118900J-30D01*
G01*
X92543870Y-55337800D02*
G75*
G02*
X92425000Y-55218871I30J118900D01*
G01*
X93024941Y-55218871D02*
G75*
G02*
X92906130Y-55337741I-118841J-29D01*
G01*
X95424941Y-55268871D02*
G75*
G02*
X95256130Y-55437741I-168841J-29D01*
G01*
X92125000Y-54112300D02*
G75*
G03*
X91825000Y-54412259I0J-300000D01*
G01*
X94825041Y-54412259D02*
G75*
G03*
X94525000Y-54112259I-300041J-41D01*
G01*
X95725000Y-54112300D02*
G75*
G03*
X95425000Y-54412259I0J-300000D01*
G01*
X94993870Y-55437800D02*
G75*
G02*
X94825000Y-55268871I30J168900D01*
G01*
X92425041Y-54412259D02*
G75*
G03*
X92125000Y-54112259I-300041J-41D01*
G01*
X91337740Y-55337730D02*
G75*
G02*
X91218870Y-55218871I-40J118830D01*
G01*
X94224941Y-55218871D02*
G75*
G02*
X94106130Y-55337741I-118841J-29D01*
G01*
X93325000Y-54112300D02*
G75*
G03*
X93025000Y-54412259I0J-300000D01*
G01*
X94525000Y-54112300D02*
G75*
G03*
X94225000Y-54412259I0J-300000D01*
G01*
X96025041Y-54412259D02*
G75*
G03*
X95725000Y-54112259I-300041J-41D01*
G01*
X93625041Y-54412259D02*
G75*
G03*
X93325000Y-54112259I-300041J-41D01*
G01*
%TO.N,Net-(C1-Pad2)*%
X96100000Y-53400000D02*
X96100000Y-52442361D01*
X94300000Y-52442361D02*
X94300000Y-53100000D01*
X97800000Y-53100000D02*
X97000000Y-53100000D01*
X91723750Y-53100000D02*
X90810000Y-53100000D01*
X96700000Y-53400000D02*
X96700000Y-53557639D01*
X99475000Y-55225000D02*
X99475000Y-54775000D01*
X94900000Y-53100000D02*
X94900000Y-52442361D01*
X99475000Y-58125000D02*
X99475000Y-57500000D01*
X93700000Y-53457639D02*
X93700000Y-53400000D01*
X93400000Y-53100000D02*
X91723750Y-53100000D01*
X94900000Y-53457639D02*
X94900000Y-53100000D01*
X99475000Y-55275000D02*
X99475000Y-55225000D01*
X98950000Y-59587500D02*
X98950000Y-58650000D01*
X99775000Y-56175000D02*
X100175000Y-56175000D01*
X96100000Y-53557639D02*
X96100000Y-53400000D01*
X95500000Y-53100000D02*
X95500000Y-53457639D01*
X100175000Y-55575000D02*
X99775000Y-55575000D01*
X99475000Y-57500000D02*
X99475000Y-56475000D01*
X94300000Y-53100000D02*
X94300000Y-53457639D01*
X95500000Y-52442361D02*
X95500000Y-53100000D01*
X99475000Y-54775000D02*
X97800000Y-53100000D01*
X98950000Y-58650000D02*
X99475000Y-58125000D01*
X96400000Y-53857600D02*
G75*
G03*
X96700000Y-53557639I0J300000D01*
G01*
X96099961Y-53557639D02*
G75*
G03*
X96400000Y-53857639I300039J39D01*
G01*
X95499961Y-52442361D02*
G75*
G02*
X95800000Y-52142361I300039J-39D01*
G01*
X93400000Y-53100000D02*
G75*
G02*
X93700000Y-53400000I0J-300000D01*
G01*
X95200000Y-53757600D02*
G75*
G03*
X95500000Y-53457639I0J300000D01*
G01*
X100175000Y-55575000D02*
G75*
G02*
X100475000Y-55875000I0J-300000D01*
G01*
X94299961Y-52442361D02*
G75*
G02*
X94600000Y-52142361I300039J-39D01*
G01*
X94000000Y-53757600D02*
G75*
G03*
X94300000Y-53457639I0J300000D01*
G01*
X100475000Y-55875000D02*
G75*
G02*
X100175000Y-56175000I-300000J0D01*
G01*
X96700000Y-53400000D02*
G75*
G02*
X97000000Y-53100000I300000J0D01*
G01*
X95800000Y-52142400D02*
G75*
G02*
X96100000Y-52442361I0J-300000D01*
G01*
X93699961Y-53457639D02*
G75*
G03*
X94000000Y-53757639I300039J39D01*
G01*
X99475000Y-55275000D02*
G75*
G03*
X99775000Y-55575000I300000J0D01*
G01*
X94899961Y-53457639D02*
G75*
G03*
X95200000Y-53757639I300039J39D01*
G01*
X94600000Y-52142400D02*
G75*
G02*
X94900000Y-52442361I0J-300000D01*
G01*
X99775000Y-56175000D02*
G75*
G03*
X99475000Y-56475000I0J-300000D01*
G01*
D50*
%TO.N,+12Vref*%
X102775000Y-49900000D02*
X102600000Y-50075000D01*
X102775000Y-49900000D02*
X103790500Y-49900000D01*
X108265000Y-52125000D02*
X108265000Y-51465000D01*
X108265000Y-51465000D02*
X107200000Y-50400000D01*
X87025000Y-46625000D02*
X87025000Y-48125000D01*
X102600000Y-50075000D02*
X102600000Y-52100000D01*
X87050000Y-46600000D02*
X87025000Y-46625000D01*
X110236000Y-32512000D02*
X110236000Y-31255000D01*
X106000000Y-49850000D02*
X106650000Y-49850000D01*
X87025000Y-45500000D02*
X87025000Y-46625000D01*
X110236000Y-31255000D02*
X110490000Y-31001000D01*
X87025000Y-48125000D02*
X87000000Y-48150000D01*
X106650000Y-49850000D02*
X107200000Y-50400000D01*
X91835000Y-25373000D02*
X91835000Y-27319000D01*
X108173800Y-32425000D02*
X110236000Y-32512000D01*
X87600000Y-46600000D02*
X87050000Y-46600000D01*
X87000000Y-49800000D02*
X87000000Y-48150000D01*
D51*
X97025000Y-38975000D02*
X97000000Y-39000000D01*
D50*
X91835000Y-27319000D02*
X92202000Y-27686000D01*
D51*
X97025000Y-37265000D02*
X97025000Y-38975000D01*
D49*
%TO.N,GND*%
X78400000Y-66775000D02*
X77875000Y-66775000D01*
X93037500Y-61500000D02*
X94300000Y-61500000D01*
X100580528Y-65000000D02*
X100230528Y-64650000D01*
X74270000Y-67912500D02*
X74270000Y-66520000D01*
D51*
X109867400Y-29451000D02*
X109372400Y-28956000D01*
D49*
X71270000Y-59587500D02*
X71270000Y-60770000D01*
X67857500Y-61500000D02*
X69050000Y-61500000D01*
X71270000Y-60770000D02*
X71300000Y-60800000D01*
X103600000Y-66775000D02*
X103600000Y-68050000D01*
D50*
X87000000Y-53100000D02*
X87000000Y-54700000D01*
X88845000Y-20730600D02*
X88845000Y-23755000D01*
D49*
X101630000Y-37160000D02*
X101630000Y-38324000D01*
X67857500Y-62500000D02*
X69100000Y-62500000D01*
X96450000Y-59587500D02*
X96450000Y-60700000D01*
X69100000Y-65500000D02*
X69150000Y-65550000D01*
D50*
X69200000Y-131625000D02*
X69200000Y-132800000D01*
D49*
X79875000Y-63600000D02*
X80300000Y-63600000D01*
X68950000Y-69514472D02*
X69770000Y-68694472D01*
X94950000Y-67912500D02*
X94950000Y-66900000D01*
D50*
X88845000Y-27500000D02*
X88460000Y-27500000D01*
D51*
X105075000Y-60725000D02*
X105050000Y-60700000D01*
D49*
X99450000Y-59587500D02*
X99450000Y-60700000D01*
X69050000Y-64500000D02*
X69150000Y-64600000D01*
X74270000Y-66520000D02*
X74250000Y-66500000D01*
X76182500Y-64000000D02*
X75400000Y-64000000D01*
X55397900Y-151988500D02*
X55397900Y-150283700D01*
X93037500Y-62500000D02*
X94650000Y-62500000D01*
D50*
X96570800Y-21117200D02*
X95722800Y-20269200D01*
D49*
X54232500Y-144978100D02*
X54254400Y-145000000D01*
D50*
X89306400Y-20269200D02*
X88845000Y-20730600D01*
D49*
X54232500Y-143581100D02*
X53150000Y-143581100D01*
X76182500Y-62000000D02*
X75050000Y-62000000D01*
D51*
X67896652Y-39656000D02*
X69094000Y-39656000D01*
D50*
X67475000Y-117400000D02*
X67475000Y-114900000D01*
X101225000Y-49900000D02*
X100100000Y-49900000D01*
D49*
X80300000Y-63600000D02*
X81050000Y-64350000D01*
D50*
X67475000Y-109900000D02*
X67475000Y-108425000D01*
D51*
X70120300Y-38650300D02*
X70110000Y-38640000D01*
D49*
X94125000Y-69519472D02*
X94950000Y-68694472D01*
X67857500Y-65500000D02*
X69100000Y-65500000D01*
D51*
X106400000Y-63600000D02*
X106450000Y-63650000D01*
D49*
X55397900Y-150283700D02*
X55397400Y-150283200D01*
D51*
X110490000Y-27178000D02*
X110464600Y-27203400D01*
D50*
X67972699Y-24644998D02*
X67972699Y-25249899D01*
X74800001Y-23345001D02*
X74930000Y-23475000D01*
D49*
X101362500Y-64000000D02*
X100200000Y-64000000D01*
D50*
X67972699Y-24686501D02*
X67132200Y-25527000D01*
X105140000Y-57050000D02*
X105140000Y-55440000D01*
X67475000Y-108425000D02*
X67500000Y-108400000D01*
D49*
X102150000Y-66000000D02*
X101362500Y-66000000D01*
X94950000Y-66900000D02*
X94800000Y-66750000D01*
X75400528Y-65000000D02*
X74950000Y-64549472D01*
X76182500Y-65000000D02*
X75400528Y-65000000D01*
D50*
X94005400Y-20269200D02*
X89306400Y-20269200D01*
D49*
X69000000Y-66000000D02*
X69050000Y-66050000D01*
X93037500Y-64500000D02*
X94200000Y-64500000D01*
X67857500Y-64500000D02*
X69050000Y-64500000D01*
X67857500Y-65000000D02*
X69100000Y-65000000D01*
X74270000Y-60730000D02*
X74250000Y-60750000D01*
X75400000Y-64000000D02*
X74850000Y-64000000D01*
X69100000Y-65000000D02*
X69200000Y-65100000D01*
D51*
X110490000Y-29451000D02*
X109867400Y-29451000D01*
D49*
X79875000Y-60775000D02*
X79900000Y-60750000D01*
D51*
X70110000Y-38640000D02*
X72260000Y-38640000D01*
X105075000Y-63600000D02*
X106400000Y-63600000D01*
D49*
X101362500Y-66000000D02*
X100400000Y-66000000D01*
X101362500Y-65000000D02*
X100580528Y-65000000D01*
X69770000Y-68694472D02*
X69770000Y-67912500D01*
X67857500Y-66000000D02*
X69000000Y-66000000D01*
X78400000Y-66775000D02*
X78400000Y-67950000D01*
X101630000Y-38324000D02*
X101600000Y-38354000D01*
X76182500Y-66000000D02*
X75250000Y-66000000D01*
X67857500Y-63000000D02*
X69050000Y-63000000D01*
D50*
X88845000Y-23755000D02*
X88845000Y-25373000D01*
X88460000Y-27500000D02*
X88061800Y-27101800D01*
D49*
X101362500Y-63500000D02*
X100200000Y-63500000D01*
X94950000Y-68694472D02*
X94950000Y-67912500D01*
X74270000Y-59587500D02*
X74270000Y-60730000D01*
D50*
X67972699Y-24644998D02*
X67972699Y-24686501D01*
X69200000Y-125775000D02*
X69200000Y-124700000D01*
D51*
X108443400Y-29885000D02*
X109372400Y-28956000D01*
D49*
X93037500Y-65500000D02*
X94250000Y-65500000D01*
X99450000Y-67912500D02*
X99450000Y-66600000D01*
X94650000Y-62500000D02*
X94700000Y-62450000D01*
D50*
X88845000Y-27500000D02*
X87615000Y-28730000D01*
D51*
X105075000Y-62000000D02*
X105075000Y-60725000D01*
D49*
X94125000Y-70100000D02*
X94125000Y-69519472D01*
X101362500Y-62000000D02*
X100200000Y-62000000D01*
D50*
X95722800Y-20269200D02*
X94005400Y-20269200D01*
D51*
X69094000Y-39656000D02*
X70110000Y-38640000D01*
X108173800Y-29885000D02*
X108443400Y-29885000D01*
D49*
X54232500Y-143581100D02*
X54232500Y-144978100D01*
X93037500Y-66000000D02*
X94250000Y-66000000D01*
X101362500Y-61500000D02*
X100250000Y-61500000D01*
X55397900Y-143581100D02*
X54232500Y-143581100D01*
D50*
X110805000Y-55405000D02*
X110800000Y-55400000D01*
D49*
X72770000Y-60770000D02*
X72850000Y-60850000D01*
X93037500Y-65000000D02*
X94250000Y-65000000D01*
X77875000Y-66775000D02*
X77100000Y-66000000D01*
X68950000Y-70000000D02*
X68950000Y-69514472D01*
X72770000Y-59587500D02*
X72770000Y-60770000D01*
D50*
X110805000Y-57075000D02*
X110805000Y-55405000D01*
D49*
X103600000Y-66775000D02*
X102925000Y-66775000D01*
D50*
X67972699Y-25249899D02*
X68249800Y-25527000D01*
D49*
X93037500Y-63000000D02*
X94250000Y-63000000D01*
X76182500Y-61500000D02*
X75000000Y-61500000D01*
X75250000Y-66000000D02*
X74850000Y-66400000D01*
X72270000Y-59587500D02*
X72270000Y-60930000D01*
X102925000Y-66775000D02*
X102150000Y-66000000D01*
X97450000Y-59587500D02*
X97450000Y-60800000D01*
D50*
X67475000Y-114900000D02*
X67475000Y-112300000D01*
D49*
X79875000Y-62000000D02*
X79875000Y-60775000D01*
D50*
X67475000Y-112300000D02*
X67475000Y-109900000D01*
X88845000Y-25373000D02*
X88845000Y-27500000D01*
X106000000Y-48300000D02*
X106000000Y-47242815D01*
D49*
X97950000Y-59587500D02*
X97950000Y-60750000D01*
D50*
X105140000Y-55440000D02*
X105100000Y-55400000D01*
D51*
X110490000Y-25925000D02*
X110490000Y-27178000D01*
D49*
X69770000Y-67912500D02*
X69770000Y-66870000D01*
D50*
X72347301Y-23345001D02*
X74800001Y-23345001D01*
D49*
X100400000Y-66000000D02*
X100050000Y-66350000D01*
X76182500Y-63500000D02*
X75000000Y-63500000D01*
X77100000Y-66000000D02*
X76182500Y-66000000D01*
%TO.N,Net-(C4-Pad2)*%
X70570000Y-27109999D02*
X73715001Y-27109999D01*
X72310000Y-23995000D02*
X73221500Y-23995000D01*
X73221500Y-23995000D02*
X74105000Y-24878500D01*
X74105000Y-26720000D02*
X74105000Y-24878500D01*
X73715001Y-27109999D02*
X74105000Y-26720000D01*
%TO.N,-14Vreg*%
X104310000Y-62815000D02*
X105835000Y-62815000D01*
D50*
X85115400Y-26655400D02*
X85115400Y-30174600D01*
X85115400Y-30174600D02*
X85110000Y-30180000D01*
D49*
X103525000Y-63600000D02*
X104310000Y-62815000D01*
D50*
X79820000Y-20410000D02*
X85115400Y-25705400D01*
D49*
X76182500Y-63000000D02*
X77725000Y-63000000D01*
X101362500Y-63000000D02*
X102925000Y-63000000D01*
D50*
X85115400Y-25705400D02*
X85115400Y-26655400D01*
X72347301Y-22045001D02*
X74809999Y-22045001D01*
X72347301Y-22695002D02*
X72347301Y-21395002D01*
X78305000Y-21925000D02*
X79820000Y-20410000D01*
X74809999Y-22045001D02*
X74930000Y-21925000D01*
D49*
X105835000Y-62815000D02*
X106850000Y-61800000D01*
X77725000Y-63000000D02*
X78325000Y-63600000D01*
X83700000Y-62800000D02*
X83750000Y-62750000D01*
X78325000Y-63600000D02*
X79125000Y-62800000D01*
X102925000Y-63000000D02*
X103525000Y-63600000D01*
X79125000Y-62800000D02*
X83700000Y-62800000D01*
D50*
X74930000Y-21925000D02*
X78305000Y-21925000D01*
D49*
%TO.N,Net-(C8-Pad1)*%
X103860199Y-31155000D02*
X103246200Y-31155000D01*
D51*
X103135000Y-31155000D02*
X101280000Y-31155000D01*
X95755000Y-31145000D02*
X96100000Y-30800000D01*
X100925000Y-30800000D02*
X101100000Y-30975000D01*
X101280000Y-31155000D02*
X101100000Y-30975000D01*
X96100000Y-30800000D02*
X100925000Y-30800000D01*
X95755000Y-32315000D02*
X95755000Y-31145000D01*
D49*
X105920600Y-29094599D02*
X103860199Y-31155000D01*
X105920600Y-24320716D02*
X105920600Y-29094599D01*
D50*
%TO.N,+15Vreg*%
X60030000Y-34280000D02*
X62240000Y-36490000D01*
D49*
X66922703Y-38817497D02*
X67100200Y-38640000D01*
D50*
X62240000Y-36490000D02*
X63374000Y-37624000D01*
X63374000Y-37624000D02*
X67896652Y-37624000D01*
X67896652Y-37624000D02*
X67896652Y-38132000D01*
D49*
X67100200Y-38640000D02*
X67896652Y-38640000D01*
X72323348Y-39656000D02*
X72323348Y-40015700D01*
X72323348Y-40015700D02*
X70989048Y-41350000D01*
D50*
X67960000Y-38140000D02*
X67960000Y-38590000D01*
D49*
X68248600Y-41350000D02*
X66922703Y-40024103D01*
D50*
X57872500Y-34280000D02*
X60030000Y-34280000D01*
D49*
X66922703Y-40024103D02*
X66922703Y-38817497D01*
X70989048Y-41350000D02*
X68248600Y-41350000D01*
%TO.N,Net-(C11-Pad1)*%
X72323348Y-39148000D02*
X73238997Y-39148000D01*
X73238997Y-39148000D02*
X73901000Y-39810003D01*
X73901000Y-42672000D02*
X73643001Y-42929999D01*
X73901000Y-39810003D02*
X73901000Y-42672000D01*
X73643001Y-42929999D02*
X67500000Y-42929999D01*
D50*
%TO.N,+14Vreg*%
X72260000Y-37640000D02*
X74991000Y-37640000D01*
X72260000Y-37640000D02*
X72260000Y-38090000D01*
X89165000Y-28730000D02*
X90340000Y-27555000D01*
X103525000Y-60675000D02*
X103525000Y-62000000D01*
X78300000Y-61975000D02*
X78325000Y-62000000D01*
X90340000Y-27555000D02*
X90340000Y-25373000D01*
D49*
X101402500Y-62460000D02*
X103065000Y-62460000D01*
X103065000Y-62460000D02*
X103525000Y-62000000D01*
D50*
X102850000Y-60000000D02*
X103525000Y-60675000D01*
D49*
X77825000Y-62500000D02*
X78325000Y-62000000D01*
D50*
X74991000Y-37640000D02*
X75438000Y-38087000D01*
X77883000Y-38087000D02*
X79400000Y-36570000D01*
X75438000Y-38087000D02*
X77883000Y-38087000D01*
D49*
X101362500Y-62500000D02*
X101402500Y-62460000D01*
D50*
X79400000Y-36570000D02*
X81325000Y-36570000D01*
D49*
X76182500Y-62500000D02*
X77825000Y-62500000D01*
D50*
X81325000Y-36570000D02*
X89165000Y-28730000D01*
X78300000Y-60550000D02*
X78300000Y-61975000D01*
D49*
%TO.N,OUT_DRIVE0*%
X94950000Y-48150000D02*
X94950000Y-47605640D01*
X113080285Y-46533315D02*
X105066685Y-46533315D01*
X94350000Y-47605640D02*
X94350000Y-48150000D01*
X113080285Y-46533315D02*
X113766600Y-45847000D01*
X91950000Y-48450000D02*
X91950000Y-48794360D01*
X93150000Y-48150000D02*
X93150000Y-48794360D01*
X95850000Y-48150000D02*
X96302310Y-48150000D01*
X104725000Y-45275000D02*
X113194600Y-45275000D01*
X92550000Y-48794360D02*
X92550000Y-48450000D01*
X94950000Y-48794360D02*
X94950000Y-48150000D01*
X104500000Y-47100000D02*
X104500000Y-54500000D01*
X93150000Y-47605640D02*
X93150000Y-48150000D01*
X90810000Y-48150000D02*
X91650000Y-48150000D01*
X101850000Y-48150000D02*
X104725000Y-45275000D01*
X94350000Y-48150000D02*
X94350000Y-48794360D01*
X104500000Y-54500000D02*
X103870000Y-55130000D01*
X103870000Y-55130000D02*
X103870000Y-57050000D01*
X105066685Y-46533315D02*
X104500000Y-47100000D01*
X95550000Y-47605640D02*
X95550000Y-47850000D01*
X92550000Y-48450000D02*
X92550000Y-47605640D01*
X113194600Y-45275000D02*
X113766600Y-45847000D01*
X93750000Y-48150000D02*
X93750000Y-47605640D01*
X93750000Y-48794360D02*
X93750000Y-48150000D01*
X96302310Y-48150000D02*
X101850000Y-48150000D01*
X95549960Y-47605640D02*
G75*
G03*
X95250000Y-47305640I-299960J40D01*
G01*
X92850000Y-47305600D02*
G75*
G03*
X92550000Y-47605640I0J-300000D01*
G01*
X92549960Y-48794360D02*
G75*
G02*
X92250000Y-49094360I-299960J-40D01*
G01*
X93749960Y-48794360D02*
G75*
G02*
X93450000Y-49094360I-299960J-40D01*
G01*
X95250000Y-47305600D02*
G75*
G03*
X94950000Y-47605640I0J-300000D01*
G01*
X91950000Y-48450000D02*
G75*
G03*
X91650000Y-48150000I-300000J0D01*
G01*
X94650000Y-49094400D02*
G75*
G02*
X94350000Y-48794360I0J300000D01*
G01*
X94949960Y-48794360D02*
G75*
G02*
X94650000Y-49094360I-299960J-40D01*
G01*
X94050000Y-47305600D02*
G75*
G03*
X93750000Y-47605640I0J-300000D01*
G01*
X95850000Y-48150000D02*
G75*
G02*
X95550000Y-47850000I0J300000D01*
G01*
X93450000Y-49094400D02*
G75*
G02*
X93150000Y-48794360I0J300000D01*
G01*
X94349960Y-47605640D02*
G75*
G03*
X94050000Y-47305640I-299960J40D01*
G01*
X93149960Y-47605640D02*
G75*
G03*
X92850000Y-47305640I-299960J40D01*
G01*
X92250000Y-49094400D02*
G75*
G02*
X91950000Y-48794360I0J300000D01*
G01*
%TO.N,OUT_SENSE0*%
X113348600Y-43725000D02*
X113766600Y-43307000D01*
X89900000Y-46800000D02*
X96150000Y-46800000D01*
X89540000Y-48150000D02*
X89540000Y-47160000D01*
X97650000Y-46800000D02*
X97650000Y-47269515D01*
X104975000Y-43725000D02*
X113348600Y-43725000D01*
X97650000Y-46230485D02*
X97650000Y-46800000D01*
X97050000Y-47269515D02*
X97050000Y-47100000D01*
X100328489Y-46800000D02*
X101900000Y-46800000D01*
X96450000Y-47100000D02*
X96450000Y-47269515D01*
X99750000Y-46800000D02*
X100328489Y-46800000D01*
X99450000Y-47269515D02*
X99450000Y-47100000D01*
X89540000Y-47160000D02*
X89900000Y-46800000D01*
X98250000Y-47269515D02*
X98250000Y-46800000D01*
X98850000Y-46230485D02*
X98850000Y-46800000D01*
X97050000Y-47100000D02*
X97050000Y-46230485D01*
X98250000Y-46800000D02*
X98250000Y-46230485D01*
X101900000Y-46800000D02*
X104975000Y-43725000D01*
X98850000Y-46800000D02*
X98850000Y-47269515D01*
X97350000Y-45930500D02*
G75*
G03*
X97050000Y-46230485I0J-300000D01*
G01*
X97650015Y-46230485D02*
G75*
G03*
X97350000Y-45930485I-300015J-15D01*
G01*
X99750000Y-46800000D02*
G75*
G03*
X99450000Y-47100000I0J-300000D01*
G01*
X96450000Y-47100000D02*
G75*
G03*
X96150000Y-46800000I-300000J0D01*
G01*
X97950000Y-47569500D02*
G75*
G02*
X97650000Y-47269515I0J300000D01*
G01*
X98550000Y-45930500D02*
G75*
G03*
X98250000Y-46230485I0J-300000D01*
G01*
X98850015Y-46230485D02*
G75*
G03*
X98550000Y-45930485I-300015J-15D01*
G01*
X96750000Y-47569500D02*
G75*
G02*
X96450000Y-47269515I0J300000D01*
G01*
X99150000Y-47569500D02*
G75*
G02*
X98850000Y-47269515I0J300000D01*
G01*
X97050015Y-47269515D02*
G75*
G02*
X96750000Y-47569515I-300015J15D01*
G01*
X98250015Y-47269515D02*
G75*
G02*
X97950000Y-47569515I-300015J15D01*
G01*
X99450015Y-47269515D02*
G75*
G02*
X99150000Y-47569515I-300015J15D01*
G01*
%TO.N,+3V3*%
X100900000Y-99800000D02*
X101900000Y-99800000D01*
X102990000Y-141925000D02*
X100475000Y-141925000D01*
D50*
X67826073Y-137602017D02*
X70474056Y-140250000D01*
D49*
X74925000Y-84000000D02*
X76100000Y-84000000D01*
X75775000Y-90000000D02*
X74300000Y-90000000D01*
X100125000Y-98300000D02*
X101100000Y-98300000D01*
D51*
X88700000Y-91675000D02*
X88700000Y-93000000D01*
D49*
X100425000Y-143400000D02*
X100425000Y-141875000D01*
X100475000Y-141925000D02*
X100425000Y-141875000D01*
X100425000Y-141875000D02*
X100425000Y-140800000D01*
D50*
X70474056Y-140250000D02*
X75710000Y-140250000D01*
D49*
%TO.N,Net-(C36-Pad1)*%
X81100000Y-51800000D02*
X81100000Y-51050000D01*
X79540126Y-51500000D02*
X76100000Y-51500000D01*
X76100000Y-51500000D02*
X72725000Y-54875000D01*
X72725000Y-58025000D02*
X72725000Y-57400000D01*
X84400000Y-51500000D02*
X82000000Y-51500000D01*
X81100000Y-52200000D02*
X81100000Y-51800000D01*
X80500000Y-51050000D02*
X80500000Y-51200000D01*
X81700000Y-51800000D02*
X81700000Y-52200000D01*
X84460000Y-51560000D02*
X84400000Y-51500000D01*
X73270000Y-59587500D02*
X73270000Y-58570000D01*
X84460000Y-53100000D02*
X84460000Y-51560000D01*
X72725000Y-54875000D02*
X72725000Y-57400000D01*
X80200000Y-51500000D02*
X79540126Y-51500000D01*
X73270000Y-58570000D02*
X72725000Y-58025000D01*
X80500000Y-51050000D02*
G75*
G02*
X80800000Y-50750000I300000J0D01*
G01*
X81100000Y-52200000D02*
G75*
G03*
X81400000Y-52500000I300000J0D01*
G01*
X81700000Y-51800000D02*
G75*
G02*
X82000000Y-51500000I300000J0D01*
G01*
X81400000Y-52500000D02*
G75*
G03*
X81700000Y-52200000I0J300000D01*
G01*
X80800000Y-50750000D02*
G75*
G02*
X81100000Y-51050000I0J-300000D01*
G01*
X80200000Y-51500000D02*
G75*
G03*
X80500000Y-51200000I0J300000D01*
G01*
%TO.N,Net-(C36-Pad2)*%
X78200000Y-53100000D02*
X78200000Y-52465937D01*
X73770000Y-58530000D02*
X74275000Y-58025000D01*
X76000000Y-53100000D02*
X74275000Y-54825000D01*
X77600000Y-52465937D02*
X77600000Y-52800000D01*
X74275000Y-58025000D02*
X74275000Y-57400000D01*
X76460435Y-53100000D02*
X76000000Y-53100000D01*
X79400000Y-53100000D02*
X79400000Y-52465937D01*
X78800000Y-53100000D02*
X78800000Y-53734063D01*
X73770000Y-59587500D02*
X73770000Y-58530000D01*
X78800000Y-52465937D02*
X78800000Y-53100000D01*
X74275000Y-54825000D02*
X74275000Y-57400000D01*
X77300000Y-53100000D02*
X76460435Y-53100000D01*
X79400000Y-53734063D02*
X79400000Y-53100000D01*
X80000000Y-52465937D02*
X80000000Y-52800000D01*
X80600000Y-52800000D02*
X80600000Y-52465937D01*
X78200000Y-53734063D02*
X78200000Y-53100000D01*
X80000000Y-52800000D02*
X80000000Y-53734063D01*
X83190000Y-53100000D02*
X80900000Y-53100000D01*
X79100000Y-52165900D02*
G75*
G02*
X79400000Y-52465937I0J-300000D01*
G01*
X80600000Y-52800000D02*
G75*
G03*
X80900000Y-53100000I300000J0D01*
G01*
X78500000Y-54034100D02*
G75*
G03*
X78800000Y-53734063I0J300000D01*
G01*
X80000037Y-52465937D02*
G75*
G02*
X80300000Y-52165937I299963J37D01*
G01*
X77900000Y-52165900D02*
G75*
G02*
X78200000Y-52465937I0J-300000D01*
G01*
X79400037Y-53734063D02*
G75*
G03*
X79700000Y-54034063I299963J-37D01*
G01*
X78200037Y-53734063D02*
G75*
G03*
X78500000Y-54034063I299963J-37D01*
G01*
X79700000Y-54034100D02*
G75*
G03*
X80000000Y-53734063I0J300000D01*
G01*
X77600037Y-52465937D02*
G75*
G02*
X77900000Y-52165937I299963J37D01*
G01*
X80300000Y-52165900D02*
G75*
G02*
X80600000Y-52465937I0J-300000D01*
G01*
X78800037Y-52465937D02*
G75*
G02*
X79100000Y-52165937I299963J37D01*
G01*
X77300000Y-53100000D02*
G75*
G03*
X77600000Y-52800000I0J300000D01*
G01*
%TO.N,OUT_DRIVE1*%
X108200000Y-40325000D02*
X109800000Y-40325000D01*
X85100000Y-49400000D02*
X85100000Y-44100000D01*
X115000000Y-42000400D02*
X113766600Y-40767000D01*
X109535000Y-55465000D02*
X111900000Y-53100000D01*
X115000000Y-46800000D02*
X115000000Y-42000400D01*
X111900000Y-53100000D02*
X111900000Y-49900000D01*
X109535000Y-57075000D02*
X109535000Y-55465000D01*
X104450000Y-41300000D02*
X105425000Y-40325000D01*
X85100000Y-44100000D02*
X87900000Y-41300000D01*
X111900000Y-49900000D02*
X115000000Y-46800000D01*
X83190000Y-49290000D02*
X83500000Y-49600000D01*
X113274600Y-40275000D02*
X113766600Y-40767000D01*
X84900000Y-49600000D02*
X85100000Y-49400000D01*
X109800000Y-40325000D02*
X109850000Y-40275000D01*
X83190000Y-48150000D02*
X83190000Y-49290000D01*
X109850000Y-40275000D02*
X113274600Y-40275000D01*
X105425000Y-40325000D02*
X108200000Y-40325000D01*
X87900000Y-41300000D02*
X104450000Y-41300000D01*
X83500000Y-49600000D02*
X84900000Y-49600000D01*
%TO.N,OUT_SENSE1*%
X106025000Y-38975000D02*
X106025000Y-39331146D01*
X107225000Y-38018854D02*
X107225000Y-38375000D01*
X106625000Y-38975000D02*
X106625000Y-38018854D01*
X105525000Y-38675000D02*
X105725000Y-38675000D01*
X113268600Y-38725000D02*
X113766600Y-38227000D01*
X108200000Y-38675000D02*
X109800000Y-38675000D01*
X87600000Y-40600000D02*
X103600000Y-40600000D01*
X84460000Y-48150000D02*
X84460000Y-43740000D01*
X103600000Y-40600000D02*
X105525000Y-38675000D01*
X109800000Y-38675000D02*
X109850000Y-38725000D01*
X107525000Y-38675000D02*
X107992019Y-38675000D01*
X84460000Y-43740000D02*
X87600000Y-40600000D01*
X107992019Y-38675000D02*
X108200000Y-38675000D01*
X106625000Y-39331146D02*
X106625000Y-38975000D01*
X109850000Y-38725000D02*
X113268600Y-38725000D01*
X107525000Y-38675000D02*
G75*
G02*
X107225000Y-38375000I0J300000D01*
G01*
X106325000Y-39631100D02*
G75*
G02*
X106025000Y-39331146I0J300000D01*
G01*
X106625046Y-39331146D02*
G75*
G02*
X106325000Y-39631146I-300046J46D01*
G01*
X107225046Y-38018854D02*
G75*
G03*
X106925000Y-37718854I-300046J-46D01*
G01*
X106025000Y-38975000D02*
G75*
G03*
X105725000Y-38675000I-300000J0D01*
G01*
X106925000Y-37718900D02*
G75*
G03*
X106625000Y-38018854I0J-300000D01*
G01*
D51*
%TO.N,+5V*%
X65176400Y-54461900D02*
X62276500Y-51562000D01*
D49*
X74700000Y-65500000D02*
X76182500Y-65500000D01*
X74650000Y-65450000D02*
X74700000Y-65500000D01*
D51*
X66050000Y-55335500D02*
X66050000Y-60250000D01*
X65176400Y-54461900D02*
X66050000Y-55335500D01*
D49*
X99750000Y-65500000D02*
X101362500Y-65500000D01*
D50*
%TO.N,Net-(FB2-Pad2)*%
X52806600Y-33985900D02*
X52820000Y-33972500D01*
X52806600Y-38227000D02*
X52806600Y-33985900D01*
%TO.N,Net-(FB3-Pad1)*%
X55346600Y-38227000D02*
X55346600Y-34680900D01*
X55346600Y-34680900D02*
X55747500Y-34280000D01*
%TO.N,Net-(FB1-Pad2)*%
X50800000Y-47244000D02*
X50800000Y-45313600D01*
X57357500Y-48768000D02*
X52324000Y-48768000D01*
X50800000Y-45313600D02*
X52806600Y-43307000D01*
X60151500Y-51562000D02*
X57357500Y-48768000D01*
X52324000Y-48768000D02*
X50800000Y-47244000D01*
D49*
%TO.N,Net-(R1-Pad1)*%
X73815000Y-44670000D02*
X71554999Y-46930001D01*
X71554999Y-46930001D02*
X68650000Y-46930001D01*
%TO.N,Net-(R2-Pad1)*%
X71720000Y-31110001D02*
X75434999Y-31110001D01*
X75434999Y-31110001D02*
X75870000Y-30675000D01*
%TO.N,Net-(R3-Pad2)*%
X108220600Y-24320716D02*
X110444284Y-24320716D01*
X110444284Y-24320716D02*
X110490000Y-24275000D01*
%TO.N,Net-(R4-Pad1)*%
X103246200Y-29885000D02*
X103246200Y-26041200D01*
X103246200Y-26041200D02*
X103080000Y-25875000D01*
%TO.N,Net-(R4-Pad2)*%
X103080000Y-24225000D02*
X103166314Y-24225000D01*
X103166314Y-24225000D02*
X107070600Y-20320714D01*
%TO.N,/MCU/ALARM_DAC0*%
X91600000Y-64000000D02*
X89725000Y-65875000D01*
X89850000Y-101050000D02*
X93490000Y-104690000D01*
X93037500Y-64000000D02*
X91600000Y-64000000D01*
X89725000Y-90025000D02*
X89725000Y-100925000D01*
X89725000Y-65875000D02*
X89725000Y-90025000D01*
X89725000Y-100925000D02*
X89850000Y-101050000D01*
X88700000Y-90025000D02*
X89725000Y-90025000D01*
%TO.N,/MCU/CS_DAC0*%
X98465000Y-92865000D02*
X98465000Y-119075000D01*
X98465000Y-92735000D02*
X98465000Y-92865000D01*
X98465000Y-79470000D02*
X98460315Y-79465315D01*
X98465000Y-119075000D02*
X95070000Y-122470000D01*
X95070000Y-122470000D02*
X93490000Y-122470000D01*
X98465000Y-79470000D02*
X98465000Y-92735000D01*
X98460315Y-79465315D02*
X98460315Y-67940751D01*
X92100000Y-93160000D02*
X94100000Y-93160000D01*
D51*
%TO.N,Net-(R7-Pad1)*%
X97025000Y-33325000D02*
X99205000Y-35505000D01*
X101625000Y-35505000D02*
X101630000Y-35510000D01*
X97025000Y-32315000D02*
X97025000Y-33325000D01*
X100100000Y-35505000D02*
X101625000Y-35505000D01*
X99205000Y-35505000D02*
X100100000Y-35505000D01*
%TO.N,REF_OUT*%
X100100000Y-39600000D02*
X100100000Y-37155000D01*
D50*
X88270000Y-51570000D02*
X88000000Y-51300000D01*
X85730000Y-53100000D02*
X85730000Y-51620000D01*
D51*
X95755000Y-37265000D02*
X95755000Y-39655000D01*
D50*
X85730000Y-51620000D02*
X86000000Y-51350000D01*
X88270000Y-53100000D02*
X88270000Y-51570000D01*
D51*
X95755000Y-39655000D02*
X96100000Y-40000000D01*
X99700000Y-40000000D02*
X100100000Y-39600000D01*
X96100000Y-40000000D02*
X99700000Y-40000000D01*
D49*
%TO.N,/MCU/ALARM_DAC1*%
X64700000Y-77146000D02*
X86233000Y-98679000D01*
X67857500Y-64000000D02*
X66600000Y-64000000D01*
X66600000Y-64000000D02*
X64700000Y-65900000D01*
X64700000Y-65900000D02*
X64700000Y-77146000D01*
%TO.N,/MCU/CS_DAC1*%
X73275000Y-79620000D02*
X73275000Y-84560600D01*
X88780000Y-100070000D02*
X88780000Y-107600000D01*
X73275000Y-79620000D02*
X73270315Y-79615315D01*
X94100000Y-95700000D02*
X92100000Y-95700000D01*
X88300000Y-97700000D02*
X87355000Y-98645000D01*
X87355000Y-98645000D02*
X88780000Y-100070000D01*
X73270315Y-79615315D02*
X73270315Y-68020751D01*
X88780000Y-107600000D02*
X93490000Y-112310000D01*
X73275000Y-84560600D02*
X73275000Y-84565000D01*
X73275000Y-84565000D02*
X87355000Y-98645000D01*
%TO.N,Net-(U1-Pad7)*%
X95052938Y-56152937D02*
X94700000Y-55800000D01*
X88270000Y-49270000D02*
X88270000Y-48150000D01*
X95618627Y-57708577D02*
X95618627Y-57708576D01*
X96325734Y-57849999D02*
X96042892Y-58132842D01*
X94770097Y-56860045D02*
X95052938Y-56577201D01*
X94700000Y-55800000D02*
X90200000Y-55800000D01*
X88880000Y-54480000D02*
X88880000Y-51820000D01*
X96950000Y-58050000D02*
X96750000Y-57850000D01*
X96184311Y-56294362D02*
X96184311Y-56294363D01*
X94770095Y-56860044D02*
X94770097Y-56860045D01*
X88880000Y-49880000D02*
X88270000Y-49270000D01*
X96184311Y-56294363D02*
X95194360Y-57284309D01*
X96950000Y-59587500D02*
X96950000Y-58050000D01*
X88880000Y-50620000D02*
X88880000Y-49880000D01*
X89180000Y-51520000D02*
X89518150Y-51520000D01*
X90200000Y-55800000D02*
X88880000Y-54480000D01*
X96325735Y-57849999D02*
X96325734Y-57849999D01*
X89518150Y-50920000D02*
X89180000Y-50920000D01*
X95618627Y-57708576D02*
X96608576Y-56718627D01*
X96608571Y-56294368D02*
G75*
G02*
X96608576Y-56718627I-212171J-212132D01*
G01*
X88880000Y-50620000D02*
G75*
G03*
X89180000Y-50920000I300000J0D01*
G01*
X95052907Y-56152968D02*
G75*
G02*
X95052938Y-56577201I-212107J-212132D01*
G01*
X96184268Y-56294319D02*
G75*
G02*
X96608576Y-56294363I212132J-212181D01*
G01*
X89180000Y-51520000D02*
G75*
G03*
X88880000Y-51820000I0J-300000D01*
G01*
X95618618Y-57708568D02*
G75*
G03*
X95618628Y-58132842I212182J-212132D01*
G01*
X94770120Y-56860069D02*
G75*
G03*
X94770097Y-57284308I212080J-212131D01*
G01*
X96325769Y-57850032D02*
G75*
G02*
X96750000Y-57850000I212131J-212068D01*
G01*
X89818100Y-51220000D02*
G75*
G02*
X89518150Y-51520000I-300000J0D01*
G01*
X94770097Y-57284308D02*
G75*
G03*
X95194359Y-57284308I212131J212131D01*
G01*
X89518150Y-50919950D02*
G75*
G02*
X89818150Y-51220000I-50J-300050D01*
G01*
X95618629Y-58132841D02*
G75*
G03*
X96042891Y-58132841I212131J212131D01*
G01*
%TO.N,/MCU/LDAC*%
X67857500Y-63500000D02*
X64900000Y-63500000D01*
X86700000Y-67900000D02*
X86700000Y-66000000D01*
X86700000Y-70050000D02*
X86700000Y-94230000D01*
X86700000Y-94230000D02*
X89200000Y-96730000D01*
X89200000Y-96730000D02*
X89200000Y-105480000D01*
X89200000Y-105480000D02*
X93490000Y-109770000D01*
X86700000Y-67900000D02*
X86700000Y-70050000D01*
X89200000Y-63500000D02*
X93037500Y-63500000D01*
X86700000Y-66000000D02*
X89200000Y-63500000D01*
%TO.N,/MCU/SCK_DAC*%
X92100000Y-85540000D02*
X94100000Y-85540000D01*
X93490000Y-117390000D02*
X95070000Y-117390000D01*
X96494600Y-79894600D02*
X96494600Y-74042004D01*
X97460063Y-73076541D02*
X97460063Y-67940751D01*
X95070000Y-117390000D02*
X96494600Y-115965400D01*
X96460000Y-85540000D02*
X96494600Y-85505400D01*
X94100000Y-85540000D02*
X96460000Y-85540000D01*
X96494600Y-85505400D02*
X96494600Y-79894600D01*
X72270000Y-70540000D02*
X72270000Y-67912500D01*
X71790000Y-71020000D02*
X72270000Y-70540000D01*
X96494600Y-115965400D02*
X96494600Y-85505400D01*
X96494600Y-74042004D02*
X97460063Y-73076541D01*
%TO.N,/MCU/MOSI_DAC*%
X97960189Y-74039811D02*
X97337400Y-74662600D01*
X97337400Y-90137400D02*
X97337400Y-111002600D01*
X97950000Y-74029622D02*
X97950000Y-67912500D01*
X72770000Y-67912500D02*
X72770000Y-71580000D01*
X97350000Y-90000000D02*
X97337400Y-90062600D01*
X92100000Y-90620000D02*
X94100000Y-90620000D01*
X97960189Y-74039811D02*
X97950000Y-74029622D01*
X97337400Y-74662600D02*
X97337400Y-79107400D01*
X72770000Y-71580000D02*
X71980000Y-72370000D01*
X97337400Y-80572600D02*
X97337400Y-90062600D01*
X97337400Y-90062600D02*
X97337400Y-90137400D01*
X97337400Y-79107400D02*
X97337400Y-80557400D01*
X97337400Y-80557400D02*
X97337400Y-80572600D01*
%TO.N,/MCU/MISO_DAC*%
X95070000Y-125010000D02*
X93490000Y-125010000D01*
X99208015Y-85424585D02*
X99208015Y-87591985D01*
X99208015Y-87591985D02*
X99208015Y-88191985D01*
X99208015Y-79211985D02*
X99208015Y-85424585D01*
X99208015Y-78036985D02*
X99950000Y-77295000D01*
X99208015Y-79211985D02*
X99208015Y-78036985D01*
X99200000Y-87600000D02*
X99216030Y-87600000D01*
X99208015Y-120871985D02*
X95070000Y-125010000D01*
X99208015Y-88191985D02*
X99208015Y-120871985D01*
X99216030Y-87600000D02*
X99208015Y-87591985D01*
X76415000Y-74085000D02*
X81541985Y-79211985D01*
X76415000Y-72550000D02*
X76415000Y-74085000D01*
X92100000Y-88080000D02*
X94100000Y-88080000D01*
%TO.N,/Interconnect/MOSI*%
X100400000Y-135500000D02*
X102400000Y-135500000D01*
X53966600Y-105647000D02*
X52806600Y-106807000D01*
X76510000Y-99180000D02*
X67730000Y-99180000D01*
X78420000Y-122640000D02*
X78420000Y-101090000D01*
X93490000Y-137710000D02*
X96890000Y-137710000D01*
X96890000Y-137710000D02*
X99100000Y-135500000D01*
X78420000Y-101090000D02*
X76510000Y-99180000D01*
X61263000Y-105647000D02*
X53966600Y-105647000D01*
X99100000Y-135500000D02*
X100400000Y-135500000D01*
X67730000Y-99180000D02*
X61263000Y-105647000D01*
X93490000Y-137710000D02*
X78420000Y-122640000D01*
%TO.N,/Interconnect/NSS*%
X100400000Y-133100000D02*
X102400000Y-133100000D01*
X99300000Y-133100000D02*
X100400000Y-133100000D01*
X97230000Y-135170000D02*
X99300000Y-133100000D01*
X93490000Y-135170000D02*
X81128300Y-122808300D01*
X81128300Y-122808300D02*
X79750000Y-121430000D01*
X79750000Y-121430000D02*
X79750000Y-98660000D01*
X93490000Y-135170000D02*
X97230000Y-135170000D01*
X70117000Y-89027000D02*
X55346600Y-89027000D01*
X79750000Y-98660000D02*
X70117000Y-89027000D01*
%TO.N,/Interconnect/SCK*%
X117300000Y-64900000D02*
X115039600Y-64900000D01*
X98800000Y-130700000D02*
X100400000Y-130700000D01*
X115039600Y-64900000D02*
X113766600Y-63627000D01*
X98190000Y-130090000D02*
X98800000Y-130700000D01*
X107100000Y-130700000D02*
X112000000Y-125800000D01*
X118300000Y-65900000D02*
X117300000Y-64900000D01*
X117600000Y-125800000D02*
X118300000Y-125100000D01*
X118300000Y-125100000D02*
X118300000Y-65900000D01*
X93490000Y-130090000D02*
X98190000Y-130090000D01*
X112000000Y-125800000D02*
X117600000Y-125800000D01*
X100400000Y-130700000D02*
X102400000Y-130700000D01*
X102400000Y-130700000D02*
X107100000Y-130700000D01*
%TO.N,/Interconnect/MISO*%
X114999600Y-67400000D02*
X113766600Y-66167000D01*
X99000000Y-128300000D02*
X100400000Y-128300000D01*
X117700000Y-123000000D02*
X117700000Y-68100000D01*
X100400000Y-128300000D02*
X102400000Y-128300000D01*
X117700000Y-68100000D02*
X117000000Y-67400000D01*
X107600000Y-128300000D02*
X112500000Y-123400000D01*
X102400000Y-128300000D02*
X107600000Y-128300000D01*
X117300000Y-123400000D02*
X117700000Y-123000000D01*
X93490000Y-127550000D02*
X98250000Y-127550000D01*
X98250000Y-127550000D02*
X99000000Y-128300000D01*
X117000000Y-67400000D02*
X114999600Y-67400000D01*
X112500000Y-123400000D02*
X117300000Y-123400000D01*
D50*
%TO.N,-15Vreg*%
X52820000Y-31847500D02*
X52820000Y-30330000D01*
X52820000Y-30330000D02*
X62180000Y-20970000D01*
X62604999Y-21394999D02*
X62180000Y-20970000D01*
X67972699Y-21394999D02*
X62604999Y-21394999D01*
X68010000Y-21395000D02*
X68535000Y-21395000D01*
D52*
%TO.N,Net-(R22-Pad1)*%
X69125000Y-117400000D02*
X69135000Y-117390000D01*
X69135000Y-117390000D02*
X75710000Y-117390000D01*
D49*
%TO.N,Net-(SW1-Pad1)*%
X75710000Y-125010000D02*
X77810000Y-125010000D01*
X50902100Y-148502100D02*
X50902100Y-143581100D01*
X78400000Y-125600000D02*
X78400000Y-150800000D01*
X65702100Y-148502100D02*
X50902100Y-148502100D01*
X77810000Y-125010000D02*
X78400000Y-125600000D01*
X69600000Y-152400000D02*
X65702100Y-148502100D01*
X50902100Y-151988500D02*
X50902100Y-148502100D01*
X78400000Y-150800000D02*
X76800000Y-152400000D01*
X76800000Y-152400000D02*
X69600000Y-152400000D01*
D52*
%TO.N,Net-(TP2-Pad1)*%
X63400000Y-112300000D02*
X65300000Y-112300000D01*
X68910000Y-104690000D02*
X75710000Y-104690000D01*
X65300000Y-112300000D02*
X65900000Y-111700000D01*
X65900000Y-107700000D02*
X68910000Y-104690000D01*
X65900000Y-111700000D02*
X65900000Y-107700000D01*
X61400000Y-112300000D02*
X63400000Y-112300000D01*
D49*
%TO.N,Net-(TP3-Pad1)*%
X66400000Y-115900000D02*
X65200000Y-114700000D01*
X75710000Y-122470000D02*
X68470000Y-122470000D01*
X65200000Y-114700000D02*
X63400000Y-114700000D01*
D52*
X61400000Y-114700000D02*
X63400000Y-114700000D01*
D49*
X68470000Y-122470000D02*
X66400000Y-120400000D01*
X66400000Y-120400000D02*
X66400000Y-115900000D01*
%TO.N,Net-(R11-Pad1)*%
X107900000Y-60650000D02*
X107900000Y-113150000D01*
X102600000Y-58350000D02*
X104200000Y-59950000D01*
X107200000Y-59950000D02*
X107900000Y-60650000D01*
X107900000Y-113150000D02*
X104250000Y-116800000D01*
X101100000Y-119950000D02*
X101000000Y-119950000D01*
X104200000Y-59950000D02*
X107200000Y-59950000D01*
D52*
X64175000Y-127400000D02*
X64175000Y-126225000D01*
D49*
X102600000Y-57050000D02*
X102600000Y-55600000D01*
X103870000Y-54330000D02*
X103870000Y-52100000D01*
X102600000Y-57050000D02*
X102600000Y-58350000D01*
X102600000Y-55600000D02*
X103870000Y-54330000D01*
D52*
X64175000Y-126225000D02*
X64200000Y-126200000D01*
D49*
X104250000Y-116800000D02*
X101100000Y-119950000D01*
%TO.N,Net-(R12-Pad2)*%
X108265000Y-59015000D02*
X108265000Y-57075000D01*
X108265000Y-55735000D02*
X109535000Y-54465000D01*
D52*
X64175000Y-130000000D02*
X64175000Y-128825000D01*
D49*
X109535000Y-54465000D02*
X109535000Y-52125000D01*
X108265000Y-57075000D02*
X108265000Y-55735000D01*
X100950000Y-123300000D02*
X109000000Y-115250000D01*
X109000000Y-115250000D02*
X109000000Y-59750000D01*
X109000000Y-59750000D02*
X108265000Y-59015000D01*
D52*
X64175000Y-128825000D02*
X64150000Y-128800000D01*
%TO.N,/MCU/DAC0_READ*%
X69175000Y-127400000D02*
X69200000Y-127425000D01*
X75585000Y-127425000D02*
X75710000Y-127550000D01*
X69200000Y-127425000D02*
X75585000Y-127425000D01*
X65825000Y-127400000D02*
X69175000Y-127400000D01*
%TO.N,/MCU/DAC1_READ*%
X75595000Y-129975000D02*
X75710000Y-130090000D01*
X69175000Y-130000000D02*
X69200000Y-129975000D01*
X65825000Y-130000000D02*
X69175000Y-130000000D01*
X69200000Y-129975000D02*
X75595000Y-129975000D01*
D49*
%TO.N,Net-(R18-Pad1)*%
X98950000Y-74645000D02*
X98950000Y-67912500D01*
X99950000Y-75645000D02*
X98950000Y-74645000D01*
%TO.N,Net-(R19-Pad2)*%
X73770000Y-67912500D02*
X73770000Y-71555000D01*
X73770000Y-71555000D02*
X74765000Y-72550000D01*
%TO.N,/Interconnect/ACK*%
X93490000Y-142790000D02*
X97290000Y-142790000D01*
X97900000Y-143400000D02*
X98775000Y-143400000D01*
X97290000Y-142790000D02*
X97900000Y-143400000D01*
%TO.N,/Interconnect/ERROR*%
X93490000Y-140250000D02*
X97350000Y-140250000D01*
X97900000Y-140800000D02*
X98775000Y-140800000D01*
X97350000Y-140250000D02*
X97900000Y-140800000D01*
D52*
%TO.N,Net-(TP1-Pad1)*%
X61400000Y-109900000D02*
X63400000Y-109900000D01*
X64700000Y-109900000D02*
X65100000Y-109500000D01*
X65100000Y-107300000D02*
X70250000Y-102150000D01*
X70250000Y-102150000D02*
X75710000Y-102150000D01*
X65100000Y-109500000D02*
X65100000Y-107300000D01*
X63400000Y-109900000D02*
X64700000Y-109900000D01*
D49*
%TO.N,Net-(TP4-Pad1)*%
X77650000Y-135150000D02*
X77630000Y-135170000D01*
X64600000Y-117100000D02*
X65600000Y-118100000D01*
X63400000Y-117100000D02*
X64600000Y-117100000D01*
X65600000Y-120850000D02*
X68000000Y-123250000D01*
X69950000Y-123250000D02*
X73090000Y-126390000D01*
D52*
X61400000Y-117100000D02*
X63400000Y-117100000D01*
D49*
X65600000Y-118100000D02*
X65600000Y-120850000D01*
X77650000Y-126850000D02*
X77650000Y-135150000D01*
X77630000Y-135170000D02*
X75710000Y-135170000D01*
X77190000Y-126390000D02*
X77650000Y-126850000D01*
X73090000Y-126390000D02*
X77190000Y-126390000D01*
X68000000Y-123250000D02*
X69950000Y-123250000D01*
D52*
%TO.N,Net-(R23-Pad1)*%
X75660000Y-114900000D02*
X75710000Y-114850000D01*
X69125000Y-114900000D02*
X75660000Y-114900000D01*
%TO.N,Net-(R24-Pad1)*%
X69135000Y-112310000D02*
X75710000Y-112310000D01*
X69125000Y-112300000D02*
X69135000Y-112310000D01*
%TO.N,Net-(R25-Pad1)*%
X75580000Y-109900000D02*
X75710000Y-109770000D01*
X69125000Y-109900000D02*
X75580000Y-109900000D01*
D49*
%TO.N,Net-(U14-Pad7)*%
X83900000Y-50601475D02*
X83900000Y-50600000D01*
X71770000Y-53230000D02*
X74700000Y-50300000D01*
X71770000Y-59587500D02*
X71770000Y-53230000D01*
X84200000Y-50300000D02*
X85100000Y-50300000D01*
X74700000Y-50300000D02*
X83000000Y-50300000D01*
X85100000Y-50300000D02*
X85730000Y-49670000D01*
X83300000Y-50600000D02*
X83300000Y-50601475D01*
X85730000Y-49670000D02*
X85730000Y-48150000D01*
X83300000Y-50600000D02*
G75*
G03*
X83000000Y-50300000I-300000J0D01*
G01*
X83600000Y-50901500D02*
G75*
G02*
X83300000Y-50601475I0J300000D01*
G01*
X83899975Y-50601475D02*
G75*
G02*
X83600000Y-50901475I-299975J-25D01*
G01*
X84200000Y-50300000D02*
G75*
G03*
X83900000Y-50600000I0J-300000D01*
G01*
%TD*%
%TA.AperFunction,Conductor*%
%TO.N,+3V3*%
G36*
X71859191Y-65868907D02*
G01*
X71895155Y-65918407D01*
X71900000Y-65949000D01*
X71900000Y-68898242D01*
X71891966Y-68909299D01*
X71887930Y-68914483D01*
X71410037Y-69487955D01*
X71410037Y-69487956D01*
X71400000Y-69500000D01*
X71400000Y-70801000D01*
X71381093Y-70859191D01*
X71331593Y-70895155D01*
X71301000Y-70900000D01*
X69699000Y-70900000D01*
X69640809Y-70881093D01*
X69604845Y-70831593D01*
X69600000Y-70801000D01*
X69600000Y-70289840D01*
X69600167Y-70285592D01*
X69600500Y-70283488D01*
X69600500Y-70279556D01*
X69850001Y-70279556D01*
X69850610Y-70287298D01*
X69864544Y-70375275D01*
X69869298Y-70389908D01*
X69923346Y-70495984D01*
X69932388Y-70508429D01*
X70016571Y-70592612D01*
X70029016Y-70601654D01*
X70135091Y-70655702D01*
X70149726Y-70660457D01*
X70234000Y-70673804D01*
X70243005Y-70670878D01*
X70246000Y-70666757D01*
X70246000Y-70659319D01*
X70754000Y-70659319D01*
X70758122Y-70672004D01*
X70761492Y-70674453D01*
X70762298Y-70674390D01*
X70850275Y-70660456D01*
X70864908Y-70655702D01*
X70970984Y-70601654D01*
X70983429Y-70592612D01*
X71067612Y-70508429D01*
X71076654Y-70495984D01*
X71130702Y-70389909D01*
X71135457Y-70375274D01*
X71149391Y-70287297D01*
X71150000Y-70279558D01*
X71150000Y-70269680D01*
X71145878Y-70256995D01*
X71141757Y-70254000D01*
X70769680Y-70254000D01*
X70756995Y-70258122D01*
X70754000Y-70262243D01*
X70754000Y-70659319D01*
X70246000Y-70659319D01*
X70246000Y-70269680D01*
X70241878Y-70256995D01*
X70237757Y-70254000D01*
X69865681Y-70254000D01*
X69852996Y-70258122D01*
X69850001Y-70262243D01*
X69850001Y-70279556D01*
X69600500Y-70279556D01*
X69600500Y-69730320D01*
X69850000Y-69730320D01*
X69854122Y-69743005D01*
X69858243Y-69746000D01*
X70230320Y-69746000D01*
X70243005Y-69741878D01*
X70246000Y-69737757D01*
X70246000Y-69730320D01*
X70754000Y-69730320D01*
X70758122Y-69743005D01*
X70762243Y-69746000D01*
X71134319Y-69746000D01*
X71147004Y-69741878D01*
X71149999Y-69737757D01*
X71149999Y-69720444D01*
X71149390Y-69712702D01*
X71135456Y-69624725D01*
X71130702Y-69610092D01*
X71076654Y-69504016D01*
X71067612Y-69491571D01*
X70983429Y-69407388D01*
X70970984Y-69398346D01*
X70864909Y-69344298D01*
X70850274Y-69339543D01*
X70766000Y-69326196D01*
X70756995Y-69329122D01*
X70754000Y-69333243D01*
X70754000Y-69730320D01*
X70246000Y-69730320D01*
X70246000Y-69340681D01*
X70241878Y-69327996D01*
X70238508Y-69325547D01*
X70237702Y-69325610D01*
X70149725Y-69339544D01*
X70135092Y-69344298D01*
X70029016Y-69398346D01*
X70016571Y-69407388D01*
X69932388Y-69491571D01*
X69923346Y-69504016D01*
X69869298Y-69610091D01*
X69864543Y-69624726D01*
X69850609Y-69712703D01*
X69850000Y-69720442D01*
X69850000Y-69730320D01*
X69600500Y-69730320D01*
X69600500Y-69716512D01*
X69600167Y-69714408D01*
X69600000Y-69710160D01*
X69600000Y-69441008D01*
X69618907Y-69382817D01*
X69628996Y-69371004D01*
X70100000Y-68900000D01*
X70100000Y-68889329D01*
X70105681Y-68878179D01*
X70111595Y-68859976D01*
X70120000Y-68827764D01*
X70120000Y-68824790D01*
X70420000Y-68824790D01*
X70424122Y-68837475D01*
X70424159Y-68837503D01*
X70432457Y-68837992D01*
X70442735Y-68835948D01*
X70460407Y-68828627D01*
X70464996Y-68825561D01*
X70523884Y-68808951D01*
X70575004Y-68825561D01*
X70579593Y-68828627D01*
X70597265Y-68835948D01*
X70604621Y-68837411D01*
X70617866Y-68835843D01*
X70617901Y-68835811D01*
X70620000Y-68827767D01*
X70620000Y-68078180D01*
X70615878Y-68065495D01*
X70611757Y-68062500D01*
X70435680Y-68062500D01*
X70422995Y-68066622D01*
X70420000Y-68070743D01*
X70420000Y-68824790D01*
X70120000Y-68824790D01*
X70120000Y-68607210D01*
X70120167Y-68603805D01*
X70120500Y-68602133D01*
X70120499Y-67746820D01*
X70420000Y-67746820D01*
X70424122Y-67759505D01*
X70428243Y-67762500D01*
X70604320Y-67762500D01*
X70617005Y-67758378D01*
X70620000Y-67754257D01*
X70620000Y-67222867D01*
X70919500Y-67222867D01*
X70919501Y-68602132D01*
X70919833Y-68603802D01*
X70920000Y-68607198D01*
X70920000Y-68824790D01*
X70924122Y-68837475D01*
X70924159Y-68837503D01*
X70932457Y-68837992D01*
X70942735Y-68835948D01*
X70960411Y-68828626D01*
X70964552Y-68825859D01*
X71023441Y-68809252D01*
X71074551Y-68825860D01*
X71078693Y-68828627D01*
X71087505Y-68834515D01*
X71097068Y-68836417D01*
X71097070Y-68836418D01*
X71130991Y-68843165D01*
X71167867Y-68850500D01*
X71269978Y-68850500D01*
X71372132Y-68850499D01*
X71452495Y-68834515D01*
X71461307Y-68828627D01*
X71465449Y-68825860D01*
X71524337Y-68809252D01*
X71575448Y-68825859D01*
X71579589Y-68828626D01*
X71597265Y-68835948D01*
X71604621Y-68837411D01*
X71617866Y-68835843D01*
X71617901Y-68835811D01*
X71620000Y-68827767D01*
X71620000Y-68607210D01*
X71620167Y-68603805D01*
X71620500Y-68602133D01*
X71620499Y-67222868D01*
X71620167Y-67221198D01*
X71620000Y-67217802D01*
X71620000Y-67000210D01*
X71615878Y-66987525D01*
X71615841Y-66987497D01*
X71607543Y-66987008D01*
X71597265Y-66989052D01*
X71579589Y-66996374D01*
X71575448Y-66999141D01*
X71516559Y-67015748D01*
X71465449Y-66999140D01*
X71460607Y-66995905D01*
X71460606Y-66995904D01*
X71452495Y-66990485D01*
X71442932Y-66988583D01*
X71442930Y-66988582D01*
X71409009Y-66981835D01*
X71372133Y-66974500D01*
X71270022Y-66974500D01*
X71167868Y-66974501D01*
X71087505Y-66990485D01*
X71079237Y-66996010D01*
X71074551Y-66999140D01*
X71015663Y-67015748D01*
X70964552Y-66999141D01*
X70960411Y-66996374D01*
X70942735Y-66989052D01*
X70935379Y-66987589D01*
X70922134Y-66989157D01*
X70922099Y-66989189D01*
X70920000Y-66997233D01*
X70920000Y-67217790D01*
X70919833Y-67221195D01*
X70919500Y-67222867D01*
X70620000Y-67222867D01*
X70620000Y-67000210D01*
X70615878Y-66987525D01*
X70615841Y-66987497D01*
X70607543Y-66987008D01*
X70597265Y-66989052D01*
X70579593Y-66996373D01*
X70575004Y-66999439D01*
X70516116Y-67016049D01*
X70464996Y-66999439D01*
X70460407Y-66996373D01*
X70442735Y-66989052D01*
X70435379Y-66987589D01*
X70422134Y-66989157D01*
X70422099Y-66989189D01*
X70420000Y-66997233D01*
X70420000Y-67746820D01*
X70120499Y-67746820D01*
X70120499Y-67222868D01*
X70120167Y-67221198D01*
X70120000Y-67217802D01*
X70120000Y-67000210D01*
X70106358Y-66958223D01*
X70104847Y-66956144D01*
X70100000Y-66925545D01*
X70100000Y-65949000D01*
X70118907Y-65890809D01*
X70168407Y-65854845D01*
X70199000Y-65850000D01*
X71801000Y-65850000D01*
X71859191Y-65868907D01*
G37*
%TD.AperFunction*%
%TD*%
%TA.AperFunction,Conductor*%
%TO.N,GND*%
G36*
X102242121Y-27520002D02*
G01*
X102288614Y-27573658D01*
X102300000Y-27626000D01*
X102300000Y-29259854D01*
X102279998Y-29327975D01*
X102231203Y-29372121D01*
X102169277Y-29403674D01*
X102078674Y-29494277D01*
X102020502Y-29608445D01*
X102019525Y-29614616D01*
X101980598Y-29671543D01*
X101915201Y-29699179D01*
X101900840Y-29700000D01*
X101892437Y-29700000D01*
X101836541Y-29683587D01*
X101815452Y-29679000D01*
X100389115Y-29679000D01*
X100339631Y-29693530D01*
X100337497Y-29694901D01*
X100302014Y-29700000D01*
X100026000Y-29700000D01*
X99957879Y-29679998D01*
X99911386Y-29626342D01*
X99900000Y-29574000D01*
X99900000Y-29153693D01*
X100371237Y-29153693D01*
X100375475Y-29168124D01*
X100376865Y-29169329D01*
X100384548Y-29171000D01*
X100827885Y-29171000D01*
X100843124Y-29166525D01*
X100844329Y-29165135D01*
X100846000Y-29157452D01*
X100846000Y-29152885D01*
X101354000Y-29152885D01*
X101358475Y-29168124D01*
X101359865Y-29169329D01*
X101367548Y-29171000D01*
X101810885Y-29171000D01*
X101826124Y-29166525D01*
X101827329Y-29165135D01*
X101828973Y-29157576D01*
X101828631Y-29151259D01*
X101823490Y-29103934D01*
X101819865Y-29088689D01*
X101777625Y-28976012D01*
X101769092Y-28960425D01*
X101697566Y-28864990D01*
X101685010Y-28852434D01*
X101589575Y-28780908D01*
X101573988Y-28772375D01*
X101461311Y-28730135D01*
X101446066Y-28726510D01*
X101398741Y-28721369D01*
X101391927Y-28721000D01*
X101372115Y-28721000D01*
X101356876Y-28725475D01*
X101355671Y-28726865D01*
X101354000Y-28734548D01*
X101354000Y-29152885D01*
X100846000Y-29152885D01*
X100846000Y-28739115D01*
X100841525Y-28723876D01*
X100840135Y-28722671D01*
X100832452Y-28721000D01*
X100808073Y-28721000D01*
X100801259Y-28721369D01*
X100753934Y-28726510D01*
X100738689Y-28730135D01*
X100626012Y-28772375D01*
X100610425Y-28780908D01*
X100514990Y-28852434D01*
X100502434Y-28864990D01*
X100430908Y-28960425D01*
X100422375Y-28976012D01*
X100380135Y-29088689D01*
X100376510Y-29103934D01*
X100371369Y-29151259D01*
X100371237Y-29153693D01*
X99900000Y-29153693D01*
X99900000Y-27626000D01*
X99920002Y-27557879D01*
X99973658Y-27511386D01*
X100026000Y-27500000D01*
X102174000Y-27500000D01*
X102242121Y-27520002D01*
G37*
%TD.AperFunction*%
%TD*%
%TA.AperFunction,Conductor*%
%TO.N,GND*%
G36*
X64965800Y-131014121D02*
G01*
X65010873Y-131043149D01*
X68223658Y-134263331D01*
X68239200Y-134278909D01*
X68273153Y-134341260D01*
X68268007Y-134412070D01*
X68239114Y-134456980D01*
X67111845Y-135584680D01*
X67069828Y-135611453D01*
X67069909Y-135611615D01*
X67068326Y-135612409D01*
X67068323Y-135612411D01*
X66911829Y-135690949D01*
X66906496Y-135695291D01*
X66906494Y-135695292D01*
X66832890Y-135755215D01*
X66832884Y-135755221D01*
X66830396Y-135757246D01*
X65981302Y-136606340D01*
X65914274Y-136688888D01*
X65835217Y-136847107D01*
X65834915Y-136846956D01*
X65808473Y-136888550D01*
X64703842Y-137993603D01*
X64641538Y-138027639D01*
X64570721Y-138022588D01*
X64526106Y-137994087D01*
X62103035Y-135596379D01*
X63974711Y-135596379D01*
X63974842Y-135598212D01*
X63979093Y-135604827D01*
X64707100Y-136332834D01*
X64711923Y-136337183D01*
X64786553Y-136397782D01*
X64798064Y-136405204D01*
X64943465Y-136477858D01*
X64957139Y-136482808D01*
X65114938Y-136519963D01*
X65129383Y-136521635D01*
X65291499Y-136521494D01*
X65305935Y-136519798D01*
X65463672Y-136482365D01*
X65477336Y-136477392D01*
X65622620Y-136404481D01*
X65634105Y-136397050D01*
X65707668Y-136337161D01*
X65712419Y-136332872D01*
X65942260Y-136103030D01*
X65949871Y-136089092D01*
X65949739Y-136087256D01*
X65945490Y-136080644D01*
X64727615Y-134862769D01*
X64713671Y-134855155D01*
X64711838Y-134855286D01*
X64705223Y-134859537D01*
X63982325Y-135582435D01*
X63974711Y-135596379D01*
X62103035Y-135596379D01*
X61273566Y-134775592D01*
X61239213Y-134713460D01*
X61243905Y-134642618D01*
X61273166Y-134596863D01*
X61371760Y-134498424D01*
X61955725Y-133915377D01*
X62683915Y-133915377D01*
X62684056Y-134077493D01*
X62685752Y-134091929D01*
X62723185Y-134249667D01*
X62728158Y-134263331D01*
X62801070Y-134408617D01*
X62808499Y-134420100D01*
X62868379Y-134493650D01*
X62872689Y-134498424D01*
X63597495Y-135223229D01*
X63611433Y-135230840D01*
X63613269Y-135230708D01*
X63619881Y-135226459D01*
X64342781Y-134503559D01*
X64349159Y-134491879D01*
X65079211Y-134491879D01*
X65079342Y-134493712D01*
X65083593Y-134500327D01*
X66301466Y-135718200D01*
X66315410Y-135725814D01*
X66317243Y-135725683D01*
X66323858Y-135721432D01*
X66556890Y-135488400D01*
X66561239Y-135483577D01*
X66621838Y-135408947D01*
X66629260Y-135397436D01*
X66701914Y-135252035D01*
X66706864Y-135238361D01*
X66744019Y-135080562D01*
X66745691Y-135066117D01*
X66745550Y-134904001D01*
X66743854Y-134889565D01*
X66706421Y-134731827D01*
X66701448Y-134718163D01*
X66628536Y-134572877D01*
X66621107Y-134561394D01*
X66561227Y-134487844D01*
X66556917Y-134483070D01*
X65832111Y-133758265D01*
X65818173Y-133750654D01*
X65816337Y-133750786D01*
X65809725Y-133755035D01*
X65086825Y-134477935D01*
X65079211Y-134491879D01*
X64349159Y-134491879D01*
X64350395Y-134489615D01*
X64350264Y-134487782D01*
X64346013Y-134481167D01*
X63128140Y-133263294D01*
X63114196Y-133255680D01*
X63112363Y-133255811D01*
X63105748Y-133260062D01*
X62872716Y-133493094D01*
X62868367Y-133497917D01*
X62807768Y-133572547D01*
X62800346Y-133584058D01*
X62727692Y-133729459D01*
X62722742Y-133743133D01*
X62685587Y-133900932D01*
X62683915Y-133915377D01*
X61955725Y-133915377D01*
X62980312Y-132892402D01*
X63479735Y-132892402D01*
X63479867Y-132894238D01*
X63484116Y-132900850D01*
X64701991Y-134118725D01*
X64715935Y-134126339D01*
X64717768Y-134126208D01*
X64724383Y-134121957D01*
X65447281Y-133399059D01*
X65454895Y-133385115D01*
X65454764Y-133383282D01*
X65450513Y-133376667D01*
X64722506Y-132648660D01*
X64717683Y-132644311D01*
X64643053Y-132583712D01*
X64631542Y-132576290D01*
X64486141Y-132503636D01*
X64472467Y-132498686D01*
X64314668Y-132461531D01*
X64300223Y-132459859D01*
X64138107Y-132460000D01*
X64123671Y-132461696D01*
X63965934Y-132499129D01*
X63952270Y-132504102D01*
X63806986Y-132577013D01*
X63795501Y-132584444D01*
X63721938Y-132644333D01*
X63717187Y-132648622D01*
X63487346Y-132878464D01*
X63479735Y-132892402D01*
X62980312Y-132892402D01*
X64832652Y-131042975D01*
X64894989Y-131009000D01*
X64965800Y-131014121D01*
G37*
%TD.AperFunction*%
%TD*%
%TA.AperFunction,Conductor*%
%TO.N,GND*%
G36*
X94642121Y-30820002D02*
G01*
X94688614Y-30873658D01*
X94700000Y-30926000D01*
X94700000Y-33974000D01*
X94679998Y-34042121D01*
X94626342Y-34088614D01*
X94574000Y-34100000D01*
X91726000Y-34100000D01*
X91657879Y-34079998D01*
X91611386Y-34026342D01*
X91600000Y-33974000D01*
X91600000Y-33628693D01*
X91971237Y-33628693D01*
X91975475Y-33643124D01*
X91976865Y-33644329D01*
X91984548Y-33646000D01*
X92427885Y-33646000D01*
X92443124Y-33641525D01*
X92444329Y-33640135D01*
X92446000Y-33632452D01*
X92446000Y-33627885D01*
X92954000Y-33627885D01*
X92958475Y-33643124D01*
X92959865Y-33644329D01*
X92967548Y-33646000D01*
X93410885Y-33646000D01*
X93426124Y-33641525D01*
X93427329Y-33640135D01*
X93428973Y-33632576D01*
X93428631Y-33626259D01*
X93423490Y-33578934D01*
X93419865Y-33563689D01*
X93377625Y-33451012D01*
X93369092Y-33435425D01*
X93297566Y-33339990D01*
X93285010Y-33327434D01*
X93189575Y-33255908D01*
X93173988Y-33247375D01*
X93061311Y-33205135D01*
X93046066Y-33201510D01*
X92998741Y-33196369D01*
X92991927Y-33196000D01*
X92972115Y-33196000D01*
X92956876Y-33200475D01*
X92955671Y-33201865D01*
X92954000Y-33209548D01*
X92954000Y-33627885D01*
X92446000Y-33627885D01*
X92446000Y-33214115D01*
X92441525Y-33198876D01*
X92440135Y-33197671D01*
X92432452Y-33196000D01*
X92408073Y-33196000D01*
X92401259Y-33196369D01*
X92353934Y-33201510D01*
X92338689Y-33205135D01*
X92226012Y-33247375D01*
X92210425Y-33255908D01*
X92114990Y-33327434D01*
X92102434Y-33339990D01*
X92030908Y-33435425D01*
X92022375Y-33451012D01*
X91980135Y-33563689D01*
X91976510Y-33578934D01*
X91971369Y-33626259D01*
X91971237Y-33628693D01*
X91600000Y-33628693D01*
X91600000Y-33166840D01*
X93931001Y-33166840D01*
X93931776Y-33176687D01*
X93944433Y-33256607D01*
X93950485Y-33275233D01*
X93999583Y-33371593D01*
X94011094Y-33387436D01*
X94087564Y-33463906D01*
X94103407Y-33475417D01*
X94199769Y-33524516D01*
X94215045Y-33529479D01*
X94226788Y-33527962D01*
X94231000Y-33513988D01*
X94231000Y-32587115D01*
X94226525Y-32571876D01*
X94225135Y-32570671D01*
X94217452Y-32569000D01*
X93949116Y-32569000D01*
X93933877Y-32573475D01*
X93932672Y-32574865D01*
X93931001Y-32582548D01*
X93931001Y-33166840D01*
X91600000Y-33166840D01*
X91600000Y-32042885D01*
X93931000Y-32042885D01*
X93935475Y-32058124D01*
X93936865Y-32059329D01*
X93944548Y-32061000D01*
X94212885Y-32061000D01*
X94228124Y-32056525D01*
X94229329Y-32055135D01*
X94231000Y-32047452D01*
X94231000Y-31115552D01*
X94227113Y-31102316D01*
X94214727Y-31100625D01*
X94199766Y-31105486D01*
X94103407Y-31154583D01*
X94087564Y-31166094D01*
X94011094Y-31242564D01*
X93999583Y-31258407D01*
X93950485Y-31354768D01*
X93944433Y-31373392D01*
X93931775Y-31453315D01*
X93931000Y-31463158D01*
X93931000Y-32042885D01*
X91600000Y-32042885D01*
X91600000Y-30926000D01*
X91620002Y-30857879D01*
X91673658Y-30811386D01*
X91726000Y-30800000D01*
X94574000Y-30800000D01*
X94642121Y-30820002D01*
G37*
%TD.AperFunction*%
%TD*%
%TA.AperFunction,Conductor*%
%TO.N,+12Vref*%
G36*
X95211314Y-24042002D02*
G01*
X95257807Y-24095658D01*
X95268537Y-24160842D01*
X95263128Y-24213638D01*
X95262800Y-24220055D01*
X95262800Y-24991085D01*
X95267275Y-25006324D01*
X95268665Y-25007529D01*
X95276348Y-25009200D01*
X97860684Y-25009200D01*
X97875923Y-25004725D01*
X97877128Y-25003335D01*
X97878799Y-24995652D01*
X97878799Y-24220105D01*
X97878462Y-24213586D01*
X97873006Y-24161003D01*
X97885871Y-24091182D01*
X97934442Y-24039400D01*
X97998333Y-24022000D01*
X98426000Y-24022000D01*
X98494121Y-24042002D01*
X98540614Y-24095658D01*
X98552000Y-24148000D01*
X98552000Y-28322000D01*
X98531998Y-28390121D01*
X98478342Y-28436614D01*
X98426000Y-28448000D01*
X91312000Y-28448000D01*
X91243879Y-28427998D01*
X91197386Y-28374342D01*
X91186000Y-28322000D01*
X91186000Y-26814295D01*
X95262801Y-26814295D01*
X95263138Y-26820814D01*
X95273057Y-26916406D01*
X95275949Y-26929800D01*
X95327388Y-27083984D01*
X95333561Y-27097162D01*
X95418863Y-27235007D01*
X95427899Y-27246408D01*
X95542629Y-27360939D01*
X95554040Y-27369951D01*
X95692043Y-27455016D01*
X95705224Y-27461163D01*
X95859510Y-27512338D01*
X95872886Y-27515205D01*
X95967238Y-27524872D01*
X95973654Y-27525200D01*
X96044685Y-27525200D01*
X96059924Y-27520725D01*
X96061129Y-27519335D01*
X96062800Y-27511652D01*
X96062800Y-27507084D01*
X97078800Y-27507084D01*
X97083275Y-27522323D01*
X97084665Y-27523528D01*
X97092348Y-27525199D01*
X97167895Y-27525199D01*
X97174414Y-27524862D01*
X97270006Y-27514943D01*
X97283400Y-27512051D01*
X97437584Y-27460612D01*
X97450762Y-27454439D01*
X97588607Y-27369137D01*
X97600008Y-27360101D01*
X97714539Y-27245371D01*
X97723551Y-27233960D01*
X97808616Y-27095957D01*
X97814763Y-27082776D01*
X97865938Y-26928490D01*
X97868805Y-26915114D01*
X97878472Y-26820762D01*
X97878800Y-26814346D01*
X97878800Y-26043315D01*
X97874325Y-26028076D01*
X97872935Y-26026871D01*
X97865252Y-26025200D01*
X97096915Y-26025200D01*
X97081676Y-26029675D01*
X97080471Y-26031065D01*
X97078800Y-26038748D01*
X97078800Y-27507084D01*
X96062800Y-27507084D01*
X96062800Y-26043315D01*
X96058325Y-26028076D01*
X96056935Y-26026871D01*
X96049252Y-26025200D01*
X95280916Y-26025200D01*
X95265677Y-26029675D01*
X95264472Y-26031065D01*
X95262801Y-26038748D01*
X95262801Y-26814295D01*
X91186000Y-26814295D01*
X91186000Y-26312192D01*
X91206002Y-26244071D01*
X91259658Y-26197578D01*
X91325607Y-26186929D01*
X91338512Y-26188331D01*
X91345328Y-26188700D01*
X91371885Y-26188700D01*
X91387124Y-26184225D01*
X91388329Y-26182835D01*
X91390000Y-26175152D01*
X91390000Y-26170584D01*
X92290000Y-26170584D01*
X92294475Y-26185823D01*
X92295865Y-26187028D01*
X92303548Y-26188699D01*
X92334669Y-26188699D01*
X92341490Y-26188329D01*
X92392352Y-26182805D01*
X92407604Y-26179179D01*
X92528054Y-26134024D01*
X92543649Y-26125486D01*
X92645724Y-26048985D01*
X92658285Y-26036424D01*
X92734786Y-25934349D01*
X92743324Y-25918754D01*
X92788478Y-25798306D01*
X92792105Y-25783051D01*
X92797631Y-25732186D01*
X92798000Y-25725372D01*
X92798000Y-25498815D01*
X92793525Y-25483576D01*
X92792135Y-25482371D01*
X92784452Y-25480700D01*
X92308115Y-25480700D01*
X92292876Y-25485175D01*
X92291671Y-25486565D01*
X92290000Y-25494248D01*
X92290000Y-26170584D01*
X91390000Y-26170584D01*
X91390000Y-24761028D01*
X91410002Y-24692907D01*
X91447879Y-24655030D01*
X91532415Y-24600702D01*
X91600536Y-24580700D01*
X92779884Y-24580700D01*
X92795123Y-24576225D01*
X92796328Y-24574835D01*
X92797999Y-24567152D01*
X92797999Y-24336031D01*
X92797629Y-24329210D01*
X92792105Y-24278348D01*
X92788479Y-24263097D01*
X92761912Y-24192230D01*
X92756729Y-24121423D01*
X92790649Y-24059054D01*
X92852905Y-24024925D01*
X92879894Y-24022000D01*
X95143193Y-24022000D01*
X95211314Y-24042002D01*
G37*
%TD.AperFunction*%
%TD*%
%TA.AperFunction,Conductor*%
%TO.N,+12Vref*%
G36*
X92258955Y-34570002D02*
G01*
X92305448Y-34623658D01*
X92315552Y-34693932D01*
X92286058Y-34758512D01*
X92235064Y-34793982D01*
X92226011Y-34797376D01*
X92210425Y-34805908D01*
X92114990Y-34877434D01*
X92102434Y-34889990D01*
X92030908Y-34985425D01*
X92022375Y-35001012D01*
X91980135Y-35113689D01*
X91976510Y-35128934D01*
X91971369Y-35176259D01*
X91971237Y-35178693D01*
X91975475Y-35193124D01*
X91976865Y-35194329D01*
X91984548Y-35196000D01*
X93410885Y-35196000D01*
X93426124Y-35191525D01*
X93427329Y-35190135D01*
X93428973Y-35182576D01*
X93428631Y-35176259D01*
X93423490Y-35128934D01*
X93419865Y-35113689D01*
X93377625Y-35001012D01*
X93369092Y-34985425D01*
X93297566Y-34889990D01*
X93285010Y-34877434D01*
X93189575Y-34805908D01*
X93173989Y-34797376D01*
X93164936Y-34793982D01*
X93108172Y-34751340D01*
X93083472Y-34684779D01*
X93098680Y-34615430D01*
X93148966Y-34565312D01*
X93209166Y-34550000D01*
X97124000Y-34550000D01*
X97192121Y-34570002D01*
X97238614Y-34623658D01*
X97250000Y-34676000D01*
X97250000Y-37468918D01*
X97205342Y-37507614D01*
X97153000Y-37519000D01*
X96897000Y-37519000D01*
X96828879Y-37498998D01*
X96782386Y-37445342D01*
X96771000Y-37393000D01*
X96771000Y-36065552D01*
X96767113Y-36052316D01*
X96754727Y-36050625D01*
X96739766Y-36055486D01*
X96643407Y-36104583D01*
X96627564Y-36116094D01*
X96551094Y-36192564D01*
X96539581Y-36208410D01*
X96502548Y-36281092D01*
X96453800Y-36332708D01*
X96384885Y-36349774D01*
X96317684Y-36326874D01*
X96278015Y-36281094D01*
X96240828Y-36208112D01*
X96240827Y-36208110D01*
X96236326Y-36199277D01*
X96145723Y-36108674D01*
X96031555Y-36050502D01*
X95936834Y-36035500D01*
X95573166Y-36035500D01*
X95478445Y-36050502D01*
X95364277Y-36108674D01*
X95273674Y-36199277D01*
X95235250Y-36274687D01*
X95232267Y-36280542D01*
X95183518Y-36332157D01*
X95114603Y-36349223D01*
X95047402Y-36326322D01*
X95007733Y-36280542D01*
X95004750Y-36274687D01*
X94966326Y-36199277D01*
X94875723Y-36108674D01*
X94761555Y-36050502D01*
X94666834Y-36035500D01*
X94303166Y-36035500D01*
X94208445Y-36050502D01*
X94094277Y-36108674D01*
X94003674Y-36199277D01*
X93945502Y-36313445D01*
X93930500Y-36408166D01*
X93930500Y-37224000D01*
X93910498Y-37292121D01*
X93856842Y-37338614D01*
X93804500Y-37350000D01*
X91826000Y-37350000D01*
X91757879Y-37329998D01*
X91711386Y-37276342D01*
X91700000Y-37224000D01*
X91700000Y-35717424D01*
X91971027Y-35717424D01*
X91971369Y-35723741D01*
X91976510Y-35771066D01*
X91980135Y-35786311D01*
X92022375Y-35898988D01*
X92030908Y-35914575D01*
X92102434Y-36010010D01*
X92114990Y-36022566D01*
X92210425Y-36094092D01*
X92226012Y-36102625D01*
X92338689Y-36144865D01*
X92353934Y-36148490D01*
X92401259Y-36153631D01*
X92408073Y-36154000D01*
X92427885Y-36154000D01*
X92443124Y-36149525D01*
X92444329Y-36148135D01*
X92446000Y-36140452D01*
X92446000Y-36135885D01*
X92954000Y-36135885D01*
X92958475Y-36151124D01*
X92959865Y-36152329D01*
X92967548Y-36154000D01*
X92991927Y-36154000D01*
X92998741Y-36153631D01*
X93046066Y-36148490D01*
X93061311Y-36144865D01*
X93173988Y-36102625D01*
X93189575Y-36094092D01*
X93285010Y-36022566D01*
X93297566Y-36010010D01*
X93369092Y-35914575D01*
X93377625Y-35898988D01*
X93419865Y-35786311D01*
X93423490Y-35771066D01*
X93428631Y-35723741D01*
X93428763Y-35721307D01*
X93424525Y-35706876D01*
X93423135Y-35705671D01*
X93415452Y-35704000D01*
X92972115Y-35704000D01*
X92956876Y-35708475D01*
X92955671Y-35709865D01*
X92954000Y-35717548D01*
X92954000Y-36135885D01*
X92446000Y-36135885D01*
X92446000Y-35722115D01*
X92441525Y-35706876D01*
X92440135Y-35705671D01*
X92432452Y-35704000D01*
X91989115Y-35704000D01*
X91973876Y-35708475D01*
X91972671Y-35709865D01*
X91971027Y-35717424D01*
X91700000Y-35717424D01*
X91700000Y-34676000D01*
X91720002Y-34607879D01*
X91773658Y-34561386D01*
X91826000Y-34550000D01*
X92190834Y-34550000D01*
X92258955Y-34570002D01*
G37*
%TD.AperFunction*%
%TD*%
%TA.AperFunction,Conductor*%
%TO.N,-15Vreg*%
G36*
X70959191Y-20418907D02*
G01*
X70995155Y-20468407D01*
X71000000Y-20499000D01*
X71000000Y-21296000D01*
X70981093Y-21354191D01*
X70931593Y-21390155D01*
X70901000Y-21395000D01*
X70683680Y-21395000D01*
X70670995Y-21399122D01*
X70668000Y-21403243D01*
X70668000Y-23429000D01*
X70649093Y-23487191D01*
X70599593Y-23523155D01*
X70569000Y-23528000D01*
X69150680Y-23528000D01*
X69137995Y-23532122D01*
X69135000Y-23536243D01*
X69135000Y-24101000D01*
X69116093Y-24159191D01*
X69066593Y-24195155D01*
X69036000Y-24200000D01*
X68939071Y-24200000D01*
X68915392Y-24195000D01*
X67116794Y-24195000D01*
X67116317Y-24195155D01*
X67085725Y-24200000D01*
X66699000Y-24200000D01*
X66640809Y-24181093D01*
X66604845Y-24131593D01*
X66600000Y-24101000D01*
X66600000Y-23489646D01*
X67084500Y-23489646D01*
X67087618Y-23515846D01*
X67133061Y-23618153D01*
X67133850Y-23618940D01*
X67149876Y-23673046D01*
X67132597Y-23726385D01*
X67129482Y-23730935D01*
X67107499Y-23780660D01*
X67106338Y-23791991D01*
X67113144Y-23795000D01*
X68903206Y-23795000D01*
X68914041Y-23791479D01*
X68914041Y-23784092D01*
X68890231Y-23730487D01*
X68887501Y-23726515D01*
X68870125Y-23667849D01*
X68885948Y-23619008D01*
X68887241Y-23617713D01*
X68932506Y-23515327D01*
X68935500Y-23489646D01*
X68935500Y-23200354D01*
X68932382Y-23174154D01*
X68886939Y-23071847D01*
X68886150Y-23071060D01*
X68870124Y-23016954D01*
X68887403Y-22963615D01*
X68890518Y-22959065D01*
X68912501Y-22909340D01*
X68913662Y-22898009D01*
X68906856Y-22895000D01*
X67116794Y-22895000D01*
X67105959Y-22898521D01*
X67105959Y-22905908D01*
X67129769Y-22959513D01*
X67132499Y-22963485D01*
X67149875Y-23022151D01*
X67134052Y-23070992D01*
X67132759Y-23072287D01*
X67087494Y-23174673D01*
X67084500Y-23200354D01*
X67084500Y-23489646D01*
X66600000Y-23489646D01*
X66600000Y-22496320D01*
X69135000Y-22496320D01*
X69139122Y-22509005D01*
X69143243Y-22512000D01*
X69636320Y-22512000D01*
X69649005Y-22507878D01*
X69652000Y-22503757D01*
X69652000Y-21410680D01*
X69647878Y-21397995D01*
X69643757Y-21395000D01*
X69320160Y-21395000D01*
X69310538Y-21395948D01*
X69266526Y-21404702D01*
X69248858Y-21412021D01*
X69198918Y-21445389D01*
X69185389Y-21458918D01*
X69152021Y-21508858D01*
X69144702Y-21526526D01*
X69135948Y-21570538D01*
X69135000Y-21580160D01*
X69135000Y-22496320D01*
X66600000Y-22496320D01*
X66600000Y-22255908D01*
X67105959Y-22255908D01*
X67129767Y-22309508D01*
X67132805Y-22313928D01*
X67150184Y-22372593D01*
X67132903Y-22425938D01*
X67129482Y-22430934D01*
X67107499Y-22480660D01*
X67106338Y-22491991D01*
X67113144Y-22495000D01*
X67794320Y-22495000D01*
X67807005Y-22490878D01*
X67810000Y-22486757D01*
X67810000Y-22479320D01*
X68210000Y-22479320D01*
X68214122Y-22492005D01*
X68218243Y-22495000D01*
X68903206Y-22495000D01*
X68914041Y-22491479D01*
X68914041Y-22484092D01*
X68890233Y-22430492D01*
X68887195Y-22426072D01*
X68869816Y-22367407D01*
X68887097Y-22314062D01*
X68890518Y-22309066D01*
X68912501Y-22259340D01*
X68913662Y-22248009D01*
X68906856Y-22245000D01*
X68225680Y-22245000D01*
X68212995Y-22249122D01*
X68210000Y-22253243D01*
X68210000Y-22479320D01*
X67810000Y-22479320D01*
X67810000Y-22260680D01*
X67805878Y-22247995D01*
X67801757Y-22245000D01*
X67116794Y-22245000D01*
X67105959Y-22248521D01*
X67105959Y-22255908D01*
X66600000Y-22255908D01*
X66600000Y-21605908D01*
X67105959Y-21605908D01*
X67129767Y-21659508D01*
X67132805Y-21663928D01*
X67150184Y-21722593D01*
X67132903Y-21775938D01*
X67129482Y-21780934D01*
X67107499Y-21830660D01*
X67106338Y-21841991D01*
X67113144Y-21845000D01*
X67794320Y-21845000D01*
X67807005Y-21840878D01*
X67810000Y-21836757D01*
X67810000Y-21829320D01*
X68210000Y-21829320D01*
X68214122Y-21842005D01*
X68218243Y-21845000D01*
X68903206Y-21845000D01*
X68914041Y-21841479D01*
X68914041Y-21834092D01*
X68890233Y-21780492D01*
X68887195Y-21776072D01*
X68869816Y-21717407D01*
X68887097Y-21664062D01*
X68890518Y-21659066D01*
X68912501Y-21609340D01*
X68913662Y-21598009D01*
X68906856Y-21595000D01*
X68225680Y-21595000D01*
X68212995Y-21599122D01*
X68210000Y-21603243D01*
X68210000Y-21829320D01*
X67810000Y-21829320D01*
X67810000Y-21610680D01*
X67805878Y-21597995D01*
X67801757Y-21595000D01*
X67116794Y-21595000D01*
X67105959Y-21598521D01*
X67105959Y-21605908D01*
X66600000Y-21605908D01*
X66600000Y-21191991D01*
X67106338Y-21191991D01*
X67113144Y-21195000D01*
X67794320Y-21195000D01*
X67807005Y-21190878D01*
X67810000Y-21186757D01*
X67810000Y-21179320D01*
X68210000Y-21179320D01*
X68214122Y-21192005D01*
X68218243Y-21195000D01*
X68903206Y-21195000D01*
X68914041Y-21191479D01*
X68914041Y-21184092D01*
X68890230Y-21130486D01*
X68880054Y-21115679D01*
X68813892Y-21049633D01*
X68799069Y-21039483D01*
X68712020Y-21001000D01*
X68697815Y-20997127D01*
X68682420Y-20995332D01*
X68676708Y-20995000D01*
X68225680Y-20995000D01*
X68212995Y-20999122D01*
X68210000Y-21003243D01*
X68210000Y-21179320D01*
X67810000Y-21179320D01*
X67810000Y-21010680D01*
X67805878Y-20997995D01*
X67801757Y-20995000D01*
X67343361Y-20995000D01*
X67337515Y-20995346D01*
X67321647Y-20997234D01*
X67307481Y-21001128D01*
X67220486Y-21039770D01*
X67205679Y-21049946D01*
X67139633Y-21116108D01*
X67129483Y-21130931D01*
X67107499Y-21180660D01*
X67106338Y-21191991D01*
X66600000Y-21191991D01*
X66600000Y-20499000D01*
X66618907Y-20440809D01*
X66668407Y-20404845D01*
X66699000Y-20400000D01*
X70901000Y-20400000D01*
X70959191Y-20418907D01*
G37*
%TD.AperFunction*%
%TD*%
%TA.AperFunction,Conductor*%
%TO.N,GND*%
G36*
X75159191Y-60618907D02*
G01*
X75195155Y-60668407D01*
X75200000Y-60699000D01*
X75200000Y-64651000D01*
X75181093Y-64709191D01*
X75131593Y-64745155D01*
X75101000Y-64750000D01*
X73900000Y-64750000D01*
X73900000Y-66100000D01*
X75101000Y-66100000D01*
X75159191Y-66118907D01*
X75195155Y-66168407D01*
X75200000Y-66199000D01*
X75200000Y-66801000D01*
X75181093Y-66859191D01*
X75131593Y-66895155D01*
X75101000Y-66900000D01*
X72249000Y-66900000D01*
X72190809Y-66881093D01*
X72154845Y-66831593D01*
X72150000Y-66801000D01*
X72150000Y-65650000D01*
X69850000Y-65650000D01*
X69850000Y-66801000D01*
X69831093Y-66859191D01*
X69781593Y-66895155D01*
X69751000Y-66900000D01*
X68999000Y-66900000D01*
X68940809Y-66881093D01*
X68904845Y-66831593D01*
X68900000Y-66801000D01*
X68900000Y-60699000D01*
X68918907Y-60640809D01*
X68968407Y-60604845D01*
X68999000Y-60600000D01*
X75101000Y-60600000D01*
X75159191Y-60618907D01*
G37*
%TD.AperFunction*%
%TD*%
%TA.AperFunction,Conductor*%
%TO.N,GND*%
G36*
X90259191Y-44518907D02*
G01*
X90295155Y-44568407D01*
X90300000Y-44599000D01*
X90300000Y-46390500D01*
X90281093Y-46448691D01*
X90231593Y-46484655D01*
X90201000Y-46489500D01*
X89955427Y-46489500D01*
X89950987Y-46489174D01*
X89946144Y-46487511D01*
X89895023Y-46489430D01*
X89891309Y-46489500D01*
X89871124Y-46489500D01*
X89866633Y-46490336D01*
X89866400Y-46490358D01*
X89861013Y-46490707D01*
X89852474Y-46491027D01*
X89839689Y-46491507D01*
X89839688Y-46491507D01*
X89830555Y-46491850D01*
X89822157Y-46495458D01*
X89813241Y-46497467D01*
X89812810Y-46495553D01*
X89791220Y-46500000D01*
X88499000Y-46500000D01*
X88440809Y-46481093D01*
X88404845Y-46431593D01*
X88400000Y-46401000D01*
X88400000Y-46159319D01*
X88829000Y-46159319D01*
X88833122Y-46172004D01*
X88836492Y-46174453D01*
X88837298Y-46174390D01*
X88925275Y-46160456D01*
X88939908Y-46155702D01*
X89045984Y-46101654D01*
X89058429Y-46092612D01*
X89142612Y-46008429D01*
X89151654Y-45995984D01*
X89205702Y-45889909D01*
X89210457Y-45875274D01*
X89224391Y-45787297D01*
X89225000Y-45779558D01*
X89225000Y-45769680D01*
X89220878Y-45756995D01*
X89216757Y-45754000D01*
X88844680Y-45754000D01*
X88831995Y-45758122D01*
X88829000Y-45762243D01*
X88829000Y-46159319D01*
X88400000Y-46159319D01*
X88400000Y-45230320D01*
X88829000Y-45230320D01*
X88833122Y-45243005D01*
X88837243Y-45246000D01*
X89209319Y-45246000D01*
X89222004Y-45241878D01*
X89224999Y-45237757D01*
X89224999Y-45220444D01*
X89224390Y-45212702D01*
X89210456Y-45124725D01*
X89205702Y-45110092D01*
X89151654Y-45004016D01*
X89142612Y-44991571D01*
X89058429Y-44907388D01*
X89045984Y-44898346D01*
X88939909Y-44844298D01*
X88925274Y-44839543D01*
X88841000Y-44826196D01*
X88831995Y-44829122D01*
X88829000Y-44833243D01*
X88829000Y-45230320D01*
X88400000Y-45230320D01*
X88400000Y-44599000D01*
X88418907Y-44540809D01*
X88468407Y-44504845D01*
X88499000Y-44500000D01*
X90201000Y-44500000D01*
X90259191Y-44518907D01*
G37*
%TD.AperFunction*%
%TD*%
%TA.AperFunction,Conductor*%
%TO.N,GND*%
G36*
X71062121Y-36088002D02*
G01*
X71108614Y-36141658D01*
X71120000Y-36194000D01*
X71120000Y-37066000D01*
X71099998Y-37134121D01*
X71046342Y-37180614D01*
X70994000Y-37192000D01*
X70382115Y-37192000D01*
X70366876Y-37196475D01*
X70365671Y-37197865D01*
X70364000Y-37205548D01*
X70364000Y-38367885D01*
X70368475Y-38383124D01*
X70369865Y-38384329D01*
X70377548Y-38386000D01*
X70965064Y-38386000D01*
X71033185Y-38406002D01*
X71081473Y-38463782D01*
X71100314Y-38509268D01*
X71120000Y-38534923D01*
X71120000Y-38745077D01*
X71105344Y-38764177D01*
X71105342Y-38764180D01*
X71100314Y-38770733D01*
X71097154Y-38778362D01*
X71097151Y-38778367D01*
X71081472Y-38816219D01*
X71036924Y-38871500D01*
X70965064Y-38894000D01*
X70382115Y-38894000D01*
X70366876Y-38898475D01*
X70365671Y-38899865D01*
X70364000Y-38907548D01*
X70364000Y-40069884D01*
X70368475Y-40085123D01*
X70369865Y-40086328D01*
X70377548Y-40087999D01*
X70994000Y-40087999D01*
X71062121Y-40108001D01*
X71108614Y-40161657D01*
X71120000Y-40213999D01*
X71120000Y-40292167D01*
X71099998Y-40360288D01*
X71083095Y-40381262D01*
X70769762Y-40694595D01*
X70707450Y-40728621D01*
X70680667Y-40731500D01*
X69214000Y-40731500D01*
X69145879Y-40711498D01*
X69099386Y-40657842D01*
X69088000Y-40605500D01*
X69088000Y-40213572D01*
X69108002Y-40145451D01*
X69161658Y-40098958D01*
X69220807Y-40087756D01*
X69225317Y-40088000D01*
X69837885Y-40088000D01*
X69853124Y-40083525D01*
X69854329Y-40082135D01*
X69856000Y-40074452D01*
X69856000Y-37210116D01*
X69851525Y-37194877D01*
X69850135Y-37193672D01*
X69842452Y-37192001D01*
X69225322Y-37192001D01*
X69220822Y-37192245D01*
X69151718Y-37175961D01*
X69102388Y-37124901D01*
X69088000Y-37066430D01*
X69088000Y-36194000D01*
X69108002Y-36125879D01*
X69161658Y-36079386D01*
X69214000Y-36068000D01*
X70994000Y-36068000D01*
X71062121Y-36088002D01*
G37*
%TD.AperFunction*%
%TD*%
%TA.AperFunction,Conductor*%
%TO.N,GND*%
G36*
X88042121Y-54420002D02*
G01*
X88088614Y-54473658D01*
X88100000Y-54526000D01*
X88100000Y-55424000D01*
X88079998Y-55492121D01*
X88026342Y-55538614D01*
X87974000Y-55550000D01*
X86026000Y-55550000D01*
X85957879Y-55529998D01*
X85911386Y-55476342D01*
X85900000Y-55424000D01*
X85900000Y-54526000D01*
X85920002Y-54457879D01*
X85973658Y-54411386D01*
X86026000Y-54400000D01*
X87974000Y-54400000D01*
X88042121Y-54420002D01*
G37*
%TD.AperFunction*%
%TD*%
%TA.AperFunction,Conductor*%
%TO.N,GND*%
G36*
X81414121Y-38882002D02*
G01*
X81460614Y-38935658D01*
X81472000Y-38988000D01*
X81472000Y-45086000D01*
X81451998Y-45154121D01*
X81398342Y-45200614D01*
X81346000Y-45212000D01*
X76491774Y-45212000D01*
X76423653Y-45191998D01*
X76377160Y-45138342D01*
X76366303Y-45074470D01*
X76372734Y-45004479D01*
X76373000Y-44998691D01*
X76373000Y-44942115D01*
X76368525Y-44926876D01*
X76367135Y-44925671D01*
X76359452Y-44924000D01*
X75337000Y-44924000D01*
X75268879Y-44903998D01*
X75222386Y-44850342D01*
X75211000Y-44798000D01*
X75211000Y-43713115D01*
X75202104Y-43682818D01*
X75197000Y-43647320D01*
X75197000Y-43628885D01*
X75705000Y-43628885D01*
X75713896Y-43659182D01*
X75719000Y-43694680D01*
X75719000Y-44397885D01*
X75723475Y-44413124D01*
X75724865Y-44414329D01*
X75732548Y-44416000D01*
X76354884Y-44416000D01*
X76370123Y-44411525D01*
X76371328Y-44410135D01*
X76372999Y-44402452D01*
X76372999Y-44341295D01*
X76372736Y-44335546D01*
X76366868Y-44271685D01*
X76364257Y-44258649D01*
X76317285Y-44108757D01*
X76311079Y-44095012D01*
X76230176Y-43961426D01*
X76220869Y-43949557D01*
X76110443Y-43839131D01*
X76098571Y-43829822D01*
X76023653Y-43784450D01*
X75975746Y-43732053D01*
X75963773Y-43662073D01*
X75991534Y-43596729D01*
X76022621Y-43569530D01*
X76128173Y-43504212D01*
X76139574Y-43495176D01*
X76249986Y-43384571D01*
X76258998Y-43373160D01*
X76341004Y-43240120D01*
X76347151Y-43226939D01*
X76396491Y-43078186D01*
X76399358Y-43064810D01*
X76408345Y-42977095D01*
X78442001Y-42977095D01*
X78442338Y-42983614D01*
X78452257Y-43079206D01*
X78455149Y-43092600D01*
X78506588Y-43246784D01*
X78512761Y-43259962D01*
X78598063Y-43397807D01*
X78607099Y-43409208D01*
X78721829Y-43523739D01*
X78733240Y-43532751D01*
X78871243Y-43617816D01*
X78884424Y-43623963D01*
X79038710Y-43675138D01*
X79052086Y-43678005D01*
X79146438Y-43687672D01*
X79152854Y-43688000D01*
X79477885Y-43688000D01*
X79493124Y-43683525D01*
X79494329Y-43682135D01*
X79496000Y-43674452D01*
X79496000Y-43669884D01*
X80004000Y-43669884D01*
X80008475Y-43685123D01*
X80009865Y-43686328D01*
X80017548Y-43687999D01*
X80347095Y-43687999D01*
X80353614Y-43687662D01*
X80449206Y-43677743D01*
X80462600Y-43674851D01*
X80616784Y-43623412D01*
X80629962Y-43617239D01*
X80767807Y-43531937D01*
X80779208Y-43522901D01*
X80893739Y-43408171D01*
X80902751Y-43396760D01*
X80987816Y-43258757D01*
X80993963Y-43245576D01*
X81045138Y-43091290D01*
X81048005Y-43077914D01*
X81057672Y-42983562D01*
X81058000Y-42977146D01*
X81058000Y-41702115D01*
X81053525Y-41686876D01*
X81052135Y-41685671D01*
X81044452Y-41684000D01*
X80022115Y-41684000D01*
X80006876Y-41688475D01*
X80005671Y-41689865D01*
X80004000Y-41697548D01*
X80004000Y-43669884D01*
X79496000Y-43669884D01*
X79496000Y-41702115D01*
X79491525Y-41686876D01*
X79490135Y-41685671D01*
X79482452Y-41684000D01*
X78460116Y-41684000D01*
X78444877Y-41688475D01*
X78443672Y-41689865D01*
X78442001Y-41697548D01*
X78442001Y-42977095D01*
X76408345Y-42977095D01*
X76408672Y-42973903D01*
X76409000Y-42967487D01*
X76409000Y-42944115D01*
X76404525Y-42928876D01*
X76403135Y-42927671D01*
X76395452Y-42926000D01*
X75723115Y-42926000D01*
X75707876Y-42930475D01*
X75706671Y-42931865D01*
X75705000Y-42939548D01*
X75705000Y-43628885D01*
X75197000Y-43628885D01*
X75197000Y-42399885D01*
X75705000Y-42399885D01*
X75709475Y-42415124D01*
X75710865Y-42416329D01*
X75718548Y-42418000D01*
X76390885Y-42418000D01*
X76406124Y-42413525D01*
X76407329Y-42412135D01*
X76409000Y-42404452D01*
X76409000Y-42376562D01*
X76408663Y-42370047D01*
X76399106Y-42277943D01*
X76396212Y-42264544D01*
X76346619Y-42115893D01*
X76340445Y-42102714D01*
X76258212Y-41969827D01*
X76249176Y-41958426D01*
X76138571Y-41848014D01*
X76127160Y-41839002D01*
X75994120Y-41756996D01*
X75980939Y-41750849D01*
X75832186Y-41701509D01*
X75818810Y-41698642D01*
X75727903Y-41689328D01*
X75722874Y-41689071D01*
X75707876Y-41693475D01*
X75706671Y-41694865D01*
X75705000Y-41702548D01*
X75705000Y-42399885D01*
X75197000Y-42399885D01*
X75197000Y-41707115D01*
X75192525Y-41691876D01*
X75191135Y-41690671D01*
X75183452Y-41689000D01*
X75180562Y-41689000D01*
X75174047Y-41689337D01*
X75081943Y-41698894D01*
X75068544Y-41701788D01*
X74919893Y-41751381D01*
X74906717Y-41757554D01*
X74868302Y-41781325D01*
X74799850Y-41800162D01*
X74732081Y-41779000D01*
X74686510Y-41724559D01*
X74676000Y-41674180D01*
X74676000Y-41157885D01*
X78442000Y-41157885D01*
X78446475Y-41173124D01*
X78447865Y-41174329D01*
X78455548Y-41176000D01*
X79477885Y-41176000D01*
X79493124Y-41171525D01*
X79494329Y-41170135D01*
X79496000Y-41162452D01*
X79496000Y-41157885D01*
X80004000Y-41157885D01*
X80008475Y-41173124D01*
X80009865Y-41174329D01*
X80017548Y-41176000D01*
X81039884Y-41176000D01*
X81055123Y-41171525D01*
X81056328Y-41170135D01*
X81057999Y-41162452D01*
X81057999Y-39882905D01*
X81057662Y-39876386D01*
X81047743Y-39780794D01*
X81044851Y-39767400D01*
X80993412Y-39613216D01*
X80987239Y-39600038D01*
X80901937Y-39462193D01*
X80892901Y-39450792D01*
X80778171Y-39336261D01*
X80766760Y-39327249D01*
X80628757Y-39242184D01*
X80615576Y-39236037D01*
X80461290Y-39184862D01*
X80447914Y-39181995D01*
X80353562Y-39172328D01*
X80347145Y-39172000D01*
X80022115Y-39172000D01*
X80006876Y-39176475D01*
X80005671Y-39177865D01*
X80004000Y-39185548D01*
X80004000Y-41157885D01*
X79496000Y-41157885D01*
X79496000Y-39190116D01*
X79491525Y-39174877D01*
X79490135Y-39173672D01*
X79482452Y-39172001D01*
X79152905Y-39172001D01*
X79146386Y-39172338D01*
X79050794Y-39182257D01*
X79037400Y-39185149D01*
X78883216Y-39236588D01*
X78870038Y-39242761D01*
X78732193Y-39328063D01*
X78720792Y-39337099D01*
X78606261Y-39451829D01*
X78597249Y-39463240D01*
X78512184Y-39601243D01*
X78506037Y-39614424D01*
X78454862Y-39768710D01*
X78451995Y-39782086D01*
X78442328Y-39876438D01*
X78442000Y-39882855D01*
X78442000Y-41157885D01*
X74676000Y-41157885D01*
X74676000Y-40633177D01*
X74696002Y-40565056D01*
X74749658Y-40518563D01*
X74819932Y-40508459D01*
X74863150Y-40524118D01*
X74863246Y-40523911D01*
X74865571Y-40524995D01*
X74868118Y-40525918D01*
X74869882Y-40527006D01*
X74883061Y-40533151D01*
X75031814Y-40582491D01*
X75045190Y-40585358D01*
X75136097Y-40594672D01*
X75142513Y-40595000D01*
X75165885Y-40595000D01*
X75181124Y-40590525D01*
X75182329Y-40589135D01*
X75184000Y-40581452D01*
X75184000Y-40576885D01*
X75692000Y-40576885D01*
X75696475Y-40592124D01*
X75697865Y-40593329D01*
X75705548Y-40595000D01*
X75733438Y-40595000D01*
X75739953Y-40594663D01*
X75832057Y-40585106D01*
X75845456Y-40582212D01*
X75994107Y-40532619D01*
X76007286Y-40526445D01*
X76140173Y-40444212D01*
X76151574Y-40435176D01*
X76261986Y-40324571D01*
X76270998Y-40313160D01*
X76353004Y-40180120D01*
X76359151Y-40166939D01*
X76408491Y-40018186D01*
X76411358Y-40004810D01*
X76420672Y-39913903D01*
X76420929Y-39908874D01*
X76416525Y-39893876D01*
X76415135Y-39892671D01*
X76407452Y-39891000D01*
X75710115Y-39891000D01*
X75694876Y-39895475D01*
X75693671Y-39896865D01*
X75692000Y-39904548D01*
X75692000Y-40576885D01*
X75184000Y-40576885D01*
X75184000Y-39509000D01*
X75204002Y-39440879D01*
X75257658Y-39394386D01*
X75310000Y-39383000D01*
X76402885Y-39383000D01*
X76418124Y-39378525D01*
X76419329Y-39377135D01*
X76421000Y-39369452D01*
X76421000Y-39366562D01*
X76420663Y-39360047D01*
X76411106Y-39267943D01*
X76408212Y-39254544D01*
X76358619Y-39105893D01*
X76352446Y-39092717D01*
X76328675Y-39054302D01*
X76309838Y-38985850D01*
X76331000Y-38918081D01*
X76385441Y-38872510D01*
X76435820Y-38862000D01*
X81346000Y-38862000D01*
X81414121Y-38882002D01*
G37*
%TD.AperFunction*%
%TD*%
%TA.AperFunction,Conductor*%
%TO.N,GND*%
G36*
X61159873Y-38882002D02*
G01*
X61206366Y-38935658D01*
X61216470Y-39005932D01*
X61186976Y-39070512D01*
X61180925Y-39077018D01*
X61096261Y-39161829D01*
X61087249Y-39173240D01*
X61002184Y-39311243D01*
X60996037Y-39324424D01*
X60944862Y-39478710D01*
X60941995Y-39492086D01*
X60932328Y-39586438D01*
X60932000Y-39592855D01*
X60932000Y-40617885D01*
X60936475Y-40633124D01*
X60937865Y-40634329D01*
X60945548Y-40636000D01*
X63529884Y-40636000D01*
X63545123Y-40631525D01*
X63546328Y-40630135D01*
X63547999Y-40622452D01*
X63547999Y-39592905D01*
X63547662Y-39586386D01*
X63537743Y-39490794D01*
X63534851Y-39477400D01*
X63483412Y-39323216D01*
X63477239Y-39310038D01*
X63391937Y-39172193D01*
X63382901Y-39160792D01*
X63299137Y-39077173D01*
X63265058Y-39014890D01*
X63270061Y-38944070D01*
X63312559Y-38887197D01*
X63379057Y-38862329D01*
X63388155Y-38862000D01*
X64136000Y-38862000D01*
X64204121Y-38882002D01*
X64250614Y-38935658D01*
X64262000Y-38988000D01*
X64262000Y-44070000D01*
X64241998Y-44138121D01*
X64188342Y-44184614D01*
X64136000Y-44196000D01*
X60324000Y-44196000D01*
X60255879Y-44175998D01*
X60209386Y-44122342D01*
X60198000Y-44070000D01*
X60198000Y-42187095D01*
X60932001Y-42187095D01*
X60932338Y-42193614D01*
X60942257Y-42289206D01*
X60945149Y-42302600D01*
X60996588Y-42456784D01*
X61002761Y-42469962D01*
X61088063Y-42607807D01*
X61097099Y-42619208D01*
X61211829Y-42733739D01*
X61223240Y-42742751D01*
X61361243Y-42827816D01*
X61374424Y-42833963D01*
X61528710Y-42885138D01*
X61542086Y-42888005D01*
X61636438Y-42897672D01*
X61642854Y-42898000D01*
X61967885Y-42898000D01*
X61983124Y-42893525D01*
X61984329Y-42892135D01*
X61986000Y-42884452D01*
X61986000Y-42879884D01*
X62494000Y-42879884D01*
X62498475Y-42895123D01*
X62499865Y-42896328D01*
X62507548Y-42897999D01*
X62837095Y-42897999D01*
X62843614Y-42897662D01*
X62939206Y-42887743D01*
X62952600Y-42884851D01*
X63106784Y-42833412D01*
X63119962Y-42827239D01*
X63257807Y-42741937D01*
X63269208Y-42732901D01*
X63383739Y-42618171D01*
X63392751Y-42606760D01*
X63477816Y-42468757D01*
X63483963Y-42455576D01*
X63535138Y-42301290D01*
X63538005Y-42287914D01*
X63547672Y-42193562D01*
X63548000Y-42187146D01*
X63548000Y-41162115D01*
X63543525Y-41146876D01*
X63542135Y-41145671D01*
X63534452Y-41144000D01*
X62512115Y-41144000D01*
X62496876Y-41148475D01*
X62495671Y-41149865D01*
X62494000Y-41157548D01*
X62494000Y-42879884D01*
X61986000Y-42879884D01*
X61986000Y-41162115D01*
X61981525Y-41146876D01*
X61980135Y-41145671D01*
X61972452Y-41144000D01*
X60950116Y-41144000D01*
X60934877Y-41148475D01*
X60933672Y-41149865D01*
X60932001Y-41157548D01*
X60932001Y-42187095D01*
X60198000Y-42187095D01*
X60198000Y-38988000D01*
X60218002Y-38919879D01*
X60271658Y-38873386D01*
X60324000Y-38862000D01*
X61091752Y-38862000D01*
X61159873Y-38882002D01*
G37*
%TD.AperFunction*%
%TD*%
%TA.AperFunction,Conductor*%
%TO.N,+5V*%
G36*
X105509191Y-64318907D02*
G01*
X105545155Y-64368407D01*
X105550000Y-64399000D01*
X105550000Y-66151000D01*
X105531093Y-66209191D01*
X105481593Y-66245155D01*
X105451000Y-66250000D01*
X104192756Y-66250000D01*
X104134565Y-66231093D01*
X104122752Y-66221004D01*
X104103220Y-66201472D01*
X104096283Y-66197937D01*
X104096281Y-66197936D01*
X103990066Y-66143817D01*
X103990065Y-66143817D01*
X103983126Y-66140281D01*
X103975432Y-66139062D01*
X103975431Y-66139062D01*
X103887334Y-66125109D01*
X103887332Y-66125109D01*
X103883488Y-66124500D01*
X103316512Y-66124500D01*
X103312668Y-66125109D01*
X103312666Y-66125109D01*
X103224569Y-66139062D01*
X103224568Y-66139062D01*
X103216874Y-66140281D01*
X103209936Y-66143816D01*
X103209930Y-66143818D01*
X103163975Y-66167233D01*
X103103543Y-66176804D01*
X103049027Y-66149027D01*
X102600000Y-65700000D01*
X102373394Y-65700000D01*
X102315203Y-65681093D01*
X102300695Y-65668200D01*
X102285812Y-65652099D01*
X102277767Y-65650000D01*
X102057210Y-65650000D01*
X102053805Y-65649833D01*
X102052133Y-65649500D01*
X102041718Y-65649500D01*
X101311499Y-65649501D01*
X101253309Y-65630594D01*
X101217345Y-65581094D01*
X101212500Y-65550501D01*
X101212500Y-65486492D01*
X102925547Y-65486492D01*
X102925610Y-65487298D01*
X102939544Y-65575275D01*
X102944298Y-65589908D01*
X102998346Y-65695984D01*
X103007388Y-65708429D01*
X103091571Y-65792612D01*
X103104016Y-65801654D01*
X103210091Y-65855702D01*
X103224726Y-65860457D01*
X103312703Y-65874391D01*
X103320442Y-65875000D01*
X103330320Y-65875000D01*
X103343005Y-65870878D01*
X103346000Y-65866757D01*
X103346000Y-65859319D01*
X103854000Y-65859319D01*
X103858122Y-65872004D01*
X103862243Y-65874999D01*
X103879556Y-65874999D01*
X103887298Y-65874390D01*
X103975275Y-65860456D01*
X103989908Y-65855702D01*
X104095984Y-65801654D01*
X104108429Y-65792612D01*
X104192612Y-65708429D01*
X104201654Y-65695984D01*
X104255702Y-65589909D01*
X104260457Y-65575274D01*
X104273804Y-65491000D01*
X104270878Y-65481995D01*
X104266757Y-65479000D01*
X103869680Y-65479000D01*
X103856995Y-65483122D01*
X103854000Y-65487243D01*
X103854000Y-65859319D01*
X103346000Y-65859319D01*
X103346000Y-65494680D01*
X103341878Y-65481995D01*
X103337757Y-65479000D01*
X102940681Y-65479000D01*
X102927996Y-65483122D01*
X102925547Y-65486492D01*
X101212500Y-65486492D01*
X101212500Y-65449500D01*
X101231407Y-65391309D01*
X101280907Y-65355345D01*
X101311500Y-65350500D01*
X102041711Y-65350499D01*
X102052132Y-65350499D01*
X102053802Y-65350167D01*
X102057198Y-65350000D01*
X102274790Y-65350000D01*
X102287475Y-65345878D01*
X102287503Y-65345841D01*
X102287992Y-65337543D01*
X102285948Y-65327265D01*
X102278626Y-65309589D01*
X102275859Y-65305448D01*
X102259252Y-65246559D01*
X102275860Y-65195449D01*
X102279095Y-65190607D01*
X102279096Y-65190606D01*
X102284515Y-65182495D01*
X102300500Y-65102133D01*
X102300499Y-64959000D01*
X102926196Y-64959000D01*
X102929122Y-64968005D01*
X102933243Y-64971000D01*
X103330320Y-64971000D01*
X103343005Y-64966878D01*
X103346000Y-64962757D01*
X103346000Y-64955320D01*
X103854000Y-64955320D01*
X103858122Y-64968005D01*
X103862243Y-64971000D01*
X104259319Y-64971000D01*
X104272004Y-64966878D01*
X104274453Y-64963508D01*
X104274390Y-64962702D01*
X104260456Y-64874725D01*
X104255702Y-64860092D01*
X104201654Y-64754016D01*
X104192612Y-64741571D01*
X104108429Y-64657388D01*
X104095984Y-64648346D01*
X103989909Y-64594298D01*
X103975274Y-64589543D01*
X103887297Y-64575609D01*
X103879558Y-64575000D01*
X103869680Y-64575000D01*
X103856995Y-64579122D01*
X103854000Y-64583243D01*
X103854000Y-64955320D01*
X103346000Y-64955320D01*
X103346000Y-64590681D01*
X103341878Y-64577996D01*
X103337757Y-64575001D01*
X103320444Y-64575001D01*
X103312702Y-64575610D01*
X103224725Y-64589544D01*
X103210092Y-64594298D01*
X103104016Y-64648346D01*
X103091571Y-64657388D01*
X103007388Y-64741571D01*
X102998346Y-64754016D01*
X102944298Y-64860091D01*
X102939543Y-64874726D01*
X102926196Y-64959000D01*
X102300499Y-64959000D01*
X102300499Y-64897868D01*
X102284515Y-64817505D01*
X102278990Y-64809237D01*
X102275860Y-64804551D01*
X102259252Y-64745663D01*
X102275859Y-64694552D01*
X102278626Y-64690411D01*
X102285948Y-64672735D01*
X102287411Y-64665379D01*
X102285843Y-64652134D01*
X102285811Y-64652099D01*
X102277767Y-64650000D01*
X102057210Y-64650000D01*
X102053805Y-64649833D01*
X102052133Y-64649500D01*
X102041718Y-64649500D01*
X101311499Y-64649501D01*
X101253309Y-64630594D01*
X101217345Y-64581094D01*
X101212500Y-64550501D01*
X101212500Y-64449500D01*
X101231407Y-64391309D01*
X101280907Y-64355345D01*
X101311500Y-64350500D01*
X102041711Y-64350499D01*
X102052132Y-64350499D01*
X102053802Y-64350167D01*
X102057198Y-64350000D01*
X102274790Y-64350000D01*
X102287476Y-64345878D01*
X102291158Y-64340810D01*
X102340658Y-64304846D01*
X102371251Y-64300000D01*
X105451000Y-64300000D01*
X105509191Y-64318907D01*
G37*
%TD.AperFunction*%
%TD*%
%TA.AperFunction,Conductor*%
%TO.N,GND*%
G36*
X78847756Y-22880002D02*
G01*
X78894249Y-22933658D01*
X78899159Y-22946124D01*
X78918450Y-23003946D01*
X79011522Y-23154348D01*
X79136697Y-23279305D01*
X79287262Y-23372115D01*
X79367005Y-23398564D01*
X79448611Y-23425632D01*
X79448613Y-23425632D01*
X79455139Y-23427797D01*
X79461975Y-23428497D01*
X79461978Y-23428498D01*
X79505031Y-23432909D01*
X79559600Y-23438500D01*
X80646000Y-23438500D01*
X80714121Y-23458502D01*
X80760614Y-23512158D01*
X80772000Y-23564500D01*
X80772000Y-24196000D01*
X80751998Y-24264121D01*
X80698342Y-24310614D01*
X80646000Y-24322000D01*
X80432115Y-24322000D01*
X80416876Y-24326475D01*
X80415671Y-24327865D01*
X80414000Y-24335548D01*
X80414000Y-28819884D01*
X80418475Y-28835123D01*
X80419865Y-28836328D01*
X80427548Y-28837999D01*
X80646000Y-28837999D01*
X80714121Y-28858001D01*
X80760614Y-28911657D01*
X80772000Y-28963999D01*
X80772000Y-29338000D01*
X80751998Y-29406121D01*
X80698342Y-29452614D01*
X80646000Y-29464000D01*
X76974347Y-29464000D01*
X76906226Y-29443998D01*
X76859733Y-29390342D01*
X76848876Y-29326471D01*
X76851913Y-29293415D01*
X76848525Y-29281876D01*
X76847135Y-29280671D01*
X76839452Y-29279000D01*
X74905116Y-29279000D01*
X74889877Y-29283475D01*
X74888672Y-29284865D01*
X74887708Y-29289297D01*
X74891124Y-29326472D01*
X74877439Y-29396137D01*
X74828262Y-29447344D01*
X74765653Y-29464000D01*
X74294000Y-29464000D01*
X74225879Y-29443998D01*
X74179386Y-29390342D01*
X74168000Y-29338000D01*
X74168000Y-28756586D01*
X74888087Y-28756586D01*
X74891475Y-28768124D01*
X74892865Y-28769329D01*
X74900548Y-28771000D01*
X75597885Y-28771000D01*
X75613124Y-28766525D01*
X75614329Y-28765135D01*
X75616000Y-28757452D01*
X75616000Y-28752885D01*
X76124000Y-28752885D01*
X76128475Y-28768124D01*
X76129865Y-28769329D01*
X76137548Y-28771000D01*
X76834884Y-28771000D01*
X76850123Y-28766525D01*
X76851328Y-28765135D01*
X76852291Y-28760706D01*
X76846868Y-28701685D01*
X76844257Y-28688649D01*
X76797285Y-28538757D01*
X76791079Y-28525012D01*
X76710176Y-28391426D01*
X76700869Y-28379557D01*
X76590443Y-28269131D01*
X76578574Y-28259824D01*
X76444988Y-28178921D01*
X76431243Y-28172715D01*
X76285667Y-28127095D01*
X78852001Y-28127095D01*
X78852338Y-28133614D01*
X78862257Y-28229206D01*
X78865149Y-28242600D01*
X78916588Y-28396784D01*
X78922761Y-28409962D01*
X79008063Y-28547807D01*
X79017099Y-28559208D01*
X79131829Y-28673739D01*
X79143240Y-28682751D01*
X79281243Y-28767816D01*
X79294424Y-28773963D01*
X79448710Y-28825138D01*
X79462086Y-28828005D01*
X79556438Y-28837672D01*
X79562854Y-28838000D01*
X79887885Y-28838000D01*
X79903124Y-28833525D01*
X79904329Y-28832135D01*
X79906000Y-28824452D01*
X79906000Y-26852115D01*
X79901525Y-26836876D01*
X79900135Y-26835671D01*
X79892452Y-26834000D01*
X78870116Y-26834000D01*
X78854877Y-26838475D01*
X78853672Y-26839865D01*
X78852001Y-26847548D01*
X78852001Y-28127095D01*
X76285667Y-28127095D01*
X76281356Y-28125744D01*
X76268306Y-28123131D01*
X76204479Y-28117266D01*
X76198691Y-28117000D01*
X76142115Y-28117000D01*
X76126876Y-28121475D01*
X76125671Y-28122865D01*
X76124000Y-28130548D01*
X76124000Y-28752885D01*
X75616000Y-28752885D01*
X75616000Y-28135116D01*
X75611525Y-28119877D01*
X75610135Y-28118672D01*
X75602452Y-28117001D01*
X75541295Y-28117001D01*
X75535546Y-28117264D01*
X75471685Y-28123132D01*
X75458649Y-28125743D01*
X75308757Y-28172715D01*
X75295012Y-28178921D01*
X75161426Y-28259824D01*
X75149557Y-28269131D01*
X75039131Y-28379557D01*
X75029824Y-28391426D01*
X74948921Y-28525012D01*
X74942715Y-28538757D01*
X74895744Y-28688644D01*
X74893131Y-28701694D01*
X74888087Y-28756586D01*
X74168000Y-28756586D01*
X74168000Y-27829500D01*
X74188002Y-27761379D01*
X74241658Y-27714886D01*
X74294000Y-27703500D01*
X74378732Y-27703500D01*
X74381978Y-27703163D01*
X74381982Y-27703163D01*
X74416083Y-27699625D01*
X74481019Y-27692887D01*
X74515737Y-27681304D01*
X74636324Y-27641073D01*
X74636326Y-27641072D01*
X74643268Y-27638756D01*
X74788713Y-27548752D01*
X74793886Y-27543570D01*
X74799623Y-27539023D01*
X74801055Y-27540830D01*
X74853575Y-27512098D01*
X74924395Y-27517108D01*
X74960853Y-27540499D01*
X74961683Y-27539448D01*
X74978840Y-27552998D01*
X75111880Y-27635004D01*
X75125061Y-27641151D01*
X75273814Y-27690491D01*
X75287190Y-27693358D01*
X75378097Y-27702672D01*
X75383126Y-27702929D01*
X75398124Y-27698525D01*
X75399329Y-27697135D01*
X75401000Y-27689452D01*
X75401000Y-27684885D01*
X75909000Y-27684885D01*
X75913475Y-27700124D01*
X75914865Y-27701329D01*
X75922548Y-27703000D01*
X75925438Y-27703000D01*
X75931953Y-27702663D01*
X76024057Y-27693106D01*
X76037456Y-27690212D01*
X76186107Y-27640619D01*
X76199286Y-27634445D01*
X76332173Y-27552212D01*
X76343574Y-27543176D01*
X76453986Y-27432571D01*
X76462998Y-27421160D01*
X76545004Y-27288120D01*
X76551151Y-27274939D01*
X76600491Y-27126186D01*
X76603358Y-27112810D01*
X76612672Y-27021903D01*
X76613000Y-27015487D01*
X76613000Y-26992115D01*
X76608525Y-26976876D01*
X76607135Y-26975671D01*
X76599452Y-26974000D01*
X75927115Y-26974000D01*
X75911876Y-26978475D01*
X75910671Y-26979865D01*
X75909000Y-26987548D01*
X75909000Y-27684885D01*
X75401000Y-27684885D01*
X75401000Y-26447885D01*
X75909000Y-26447885D01*
X75913475Y-26463124D01*
X75914865Y-26464329D01*
X75922548Y-26466000D01*
X76594885Y-26466000D01*
X76610124Y-26461525D01*
X76611329Y-26460135D01*
X76613000Y-26452452D01*
X76613000Y-26424562D01*
X76612663Y-26418047D01*
X76603106Y-26325943D01*
X76600212Y-26312544D01*
X76598658Y-26307885D01*
X78852000Y-26307885D01*
X78856475Y-26323124D01*
X78857865Y-26324329D01*
X78865548Y-26326000D01*
X79887885Y-26326000D01*
X79903124Y-26321525D01*
X79904329Y-26320135D01*
X79906000Y-26312452D01*
X79906000Y-24340116D01*
X79901525Y-24324877D01*
X79900135Y-24323672D01*
X79892452Y-24322001D01*
X79562905Y-24322001D01*
X79556386Y-24322338D01*
X79460794Y-24332257D01*
X79447400Y-24335149D01*
X79293216Y-24386588D01*
X79280038Y-24392761D01*
X79142193Y-24478063D01*
X79130792Y-24487099D01*
X79016261Y-24601829D01*
X79007249Y-24613240D01*
X78922184Y-24751243D01*
X78916037Y-24764424D01*
X78864862Y-24918710D01*
X78861995Y-24932086D01*
X78852328Y-25026438D01*
X78852000Y-25032855D01*
X78852000Y-26307885D01*
X76598658Y-26307885D01*
X76550619Y-26163893D01*
X76544445Y-26150714D01*
X76462212Y-26017827D01*
X76453176Y-26006426D01*
X76342571Y-25896014D01*
X76331160Y-25887002D01*
X76198120Y-25804996D01*
X76184939Y-25798849D01*
X76036186Y-25749509D01*
X76022810Y-25746642D01*
X75931903Y-25737328D01*
X75926874Y-25737071D01*
X75911876Y-25741475D01*
X75910671Y-25742865D01*
X75909000Y-25750548D01*
X75909000Y-26447885D01*
X75401000Y-26447885D01*
X75401000Y-25755115D01*
X75396525Y-25739876D01*
X75395135Y-25738671D01*
X75387452Y-25737000D01*
X75384562Y-25737000D01*
X75378047Y-25737337D01*
X75285943Y-25746894D01*
X75272544Y-25749788D01*
X75123893Y-25799381D01*
X75110714Y-25805555D01*
X74977827Y-25887788D01*
X74960689Y-25901371D01*
X74959159Y-25899441D01*
X74907120Y-25927903D01*
X74836301Y-25922887D01*
X74799383Y-25899201D01*
X74798628Y-25900157D01*
X74792882Y-25895619D01*
X74787702Y-25890448D01*
X74781471Y-25886607D01*
X74775726Y-25882070D01*
X74776900Y-25880583D01*
X74735887Y-25835007D01*
X74723500Y-25780526D01*
X74723500Y-24955284D01*
X74724009Y-24944507D01*
X74725649Y-24937169D01*
X74723562Y-24870752D01*
X74723500Y-24866795D01*
X74723500Y-24839586D01*
X74723003Y-24835651D01*
X74722976Y-24835224D01*
X74722093Y-24823989D01*
X74720990Y-24788897D01*
X74720990Y-24788896D01*
X74720741Y-24780977D01*
X74718531Y-24773370D01*
X74718530Y-24773363D01*
X74715287Y-24762200D01*
X74711279Y-24742846D01*
X74709824Y-24731330D01*
X74708830Y-24723463D01*
X74705912Y-24716093D01*
X74705910Y-24716085D01*
X74692993Y-24683460D01*
X74689148Y-24672231D01*
X74679356Y-24638526D01*
X74677144Y-24630912D01*
X74667195Y-24614088D01*
X74658499Y-24596338D01*
X74654223Y-24585539D01*
X74654222Y-24585538D01*
X74651304Y-24578167D01*
X74650408Y-24576934D01*
X74635733Y-24510383D01*
X74660355Y-24443793D01*
X74666211Y-24436504D01*
X74674329Y-24427136D01*
X74676000Y-24419452D01*
X74676000Y-24414885D01*
X75184000Y-24414885D01*
X75188475Y-24430124D01*
X75189865Y-24431329D01*
X75197548Y-24433000D01*
X75225438Y-24433000D01*
X75231953Y-24432663D01*
X75324057Y-24423106D01*
X75337456Y-24420212D01*
X75486107Y-24370619D01*
X75499286Y-24364445D01*
X75632173Y-24282212D01*
X75643574Y-24273176D01*
X75753986Y-24162571D01*
X75762998Y-24151160D01*
X75845004Y-24018120D01*
X75851151Y-24004939D01*
X75900491Y-23856186D01*
X75903358Y-23842810D01*
X75912672Y-23751903D01*
X75912929Y-23746874D01*
X75908525Y-23731876D01*
X75907135Y-23730671D01*
X75899452Y-23729000D01*
X75202115Y-23729000D01*
X75186876Y-23733475D01*
X75185671Y-23734865D01*
X75184000Y-23742548D01*
X75184000Y-24414885D01*
X74676000Y-24414885D01*
X74676000Y-23347000D01*
X74696002Y-23278879D01*
X74749658Y-23232386D01*
X74802000Y-23221000D01*
X75894885Y-23221000D01*
X75910124Y-23216525D01*
X75911329Y-23215135D01*
X75913000Y-23207452D01*
X75913000Y-23204562D01*
X75912663Y-23198047D01*
X75903106Y-23105943D01*
X75900212Y-23092544D01*
X75877970Y-23025876D01*
X75875386Y-22954927D01*
X75911570Y-22893843D01*
X75975034Y-22862018D01*
X75997494Y-22860000D01*
X78779635Y-22860000D01*
X78847756Y-22880002D01*
G37*
%TD.AperFunction*%
%TD*%
%TA.AperFunction,Conductor*%
%TO.N,GND*%
G36*
X99342121Y-19020002D02*
G01*
X99388614Y-19073658D01*
X99400000Y-19126000D01*
X99400000Y-23174000D01*
X99379998Y-23242121D01*
X99326342Y-23288614D01*
X99274000Y-23300000D01*
X93126000Y-23300000D01*
X93057879Y-23279998D01*
X93011386Y-23226342D01*
X93000000Y-23174000D01*
X93000000Y-22411492D01*
X95516801Y-22411492D01*
X95517170Y-22418310D01*
X95522641Y-22468682D01*
X95526270Y-22483941D01*
X95571022Y-22603318D01*
X95579554Y-22618904D01*
X95655372Y-22720067D01*
X95667933Y-22732628D01*
X95769096Y-22808446D01*
X95784682Y-22816978D01*
X95904065Y-22861733D01*
X95919310Y-22865358D01*
X95969692Y-22870831D01*
X95976506Y-22871200D01*
X96298685Y-22871200D01*
X96313924Y-22866725D01*
X96315129Y-22865335D01*
X96316800Y-22857652D01*
X96316800Y-22853084D01*
X96824800Y-22853084D01*
X96829275Y-22868323D01*
X96830665Y-22869528D01*
X96838348Y-22871199D01*
X97165092Y-22871199D01*
X97171910Y-22870830D01*
X97222282Y-22865359D01*
X97237541Y-22861730D01*
X97356918Y-22816978D01*
X97372504Y-22808446D01*
X97473667Y-22732628D01*
X97486228Y-22720067D01*
X97562046Y-22618904D01*
X97570578Y-22603318D01*
X97615333Y-22483935D01*
X97618958Y-22468690D01*
X97624431Y-22418308D01*
X97624800Y-22411494D01*
X97624800Y-21389315D01*
X97620325Y-21374076D01*
X97618935Y-21372871D01*
X97611252Y-21371200D01*
X96842915Y-21371200D01*
X96827676Y-21375675D01*
X96826471Y-21377065D01*
X96824800Y-21384748D01*
X96824800Y-22853084D01*
X96316800Y-22853084D01*
X96316800Y-21389315D01*
X96312325Y-21374076D01*
X96310935Y-21372871D01*
X96303252Y-21371200D01*
X95534916Y-21371200D01*
X95519677Y-21375675D01*
X95518472Y-21377065D01*
X95516801Y-21384748D01*
X95516801Y-22411492D01*
X93000000Y-22411492D01*
X93000000Y-20845085D01*
X95516800Y-20845085D01*
X95521275Y-20860324D01*
X95522665Y-20861529D01*
X95530348Y-20863200D01*
X96298685Y-20863200D01*
X96313924Y-20858725D01*
X96315129Y-20857335D01*
X96316800Y-20849652D01*
X96316800Y-20845085D01*
X96824800Y-20845085D01*
X96829275Y-20860324D01*
X96830665Y-20861529D01*
X96838348Y-20863200D01*
X97606684Y-20863200D01*
X97621923Y-20858725D01*
X97623128Y-20857335D01*
X97624799Y-20849652D01*
X97624799Y-19822908D01*
X97624430Y-19816090D01*
X97618959Y-19765718D01*
X97615330Y-19750459D01*
X97570578Y-19631082D01*
X97562046Y-19615496D01*
X97486228Y-19514333D01*
X97473667Y-19501772D01*
X97372504Y-19425954D01*
X97356918Y-19417422D01*
X97237535Y-19372667D01*
X97222290Y-19369042D01*
X97171908Y-19363569D01*
X97165094Y-19363200D01*
X96842915Y-19363200D01*
X96827676Y-19367675D01*
X96826471Y-19369065D01*
X96824800Y-19376748D01*
X96824800Y-20845085D01*
X96316800Y-20845085D01*
X96316800Y-19381316D01*
X96312325Y-19366077D01*
X96310935Y-19364872D01*
X96303252Y-19363201D01*
X95976508Y-19363201D01*
X95969690Y-19363570D01*
X95919318Y-19369041D01*
X95904059Y-19372670D01*
X95784682Y-19417422D01*
X95769096Y-19425954D01*
X95667933Y-19501772D01*
X95655372Y-19514333D01*
X95579554Y-19615496D01*
X95571022Y-19631082D01*
X95526267Y-19750465D01*
X95522642Y-19765710D01*
X95517169Y-19816092D01*
X95516800Y-19822906D01*
X95516800Y-20845085D01*
X93000000Y-20845085D01*
X93000000Y-19126000D01*
X93020002Y-19057879D01*
X93073658Y-19011386D01*
X93126000Y-19000000D01*
X99274000Y-19000000D01*
X99342121Y-19020002D01*
G37*
%TD.AperFunction*%
%TD*%
%TA.AperFunction,Conductor*%
%TO.N,GND*%
G36*
X61073918Y-23388002D02*
G01*
X61120411Y-23441658D01*
X61130515Y-23511932D01*
X61101021Y-23576512D01*
X61094970Y-23583018D01*
X61036261Y-23641829D01*
X61027249Y-23653240D01*
X60942184Y-23791243D01*
X60936037Y-23804424D01*
X60884862Y-23958710D01*
X60881995Y-23972086D01*
X60872328Y-24066438D01*
X60872000Y-24072855D01*
X60872000Y-25097885D01*
X60876475Y-25113124D01*
X60877865Y-25114329D01*
X60885548Y-25116000D01*
X63469884Y-25116000D01*
X63485123Y-25111525D01*
X63486328Y-25110135D01*
X63487999Y-25102452D01*
X63487999Y-24072905D01*
X63487662Y-24066386D01*
X63477743Y-23970794D01*
X63474851Y-23957400D01*
X63423412Y-23803216D01*
X63417239Y-23790038D01*
X63331937Y-23652193D01*
X63322901Y-23640792D01*
X63265182Y-23583173D01*
X63231103Y-23520890D01*
X63236106Y-23450070D01*
X63278604Y-23393197D01*
X63345102Y-23368329D01*
X63354200Y-23368000D01*
X63882000Y-23368000D01*
X63950121Y-23388002D01*
X63996614Y-23441658D01*
X64008000Y-23494000D01*
X64008000Y-28322000D01*
X63987998Y-28390121D01*
X63934342Y-28436614D01*
X63882000Y-28448000D01*
X60578000Y-28448000D01*
X60509879Y-28427998D01*
X60463386Y-28374342D01*
X60452000Y-28322000D01*
X60452000Y-26667095D01*
X60872001Y-26667095D01*
X60872338Y-26673614D01*
X60882257Y-26769206D01*
X60885149Y-26782600D01*
X60936588Y-26936784D01*
X60942761Y-26949962D01*
X61028063Y-27087807D01*
X61037099Y-27099208D01*
X61151829Y-27213739D01*
X61163240Y-27222751D01*
X61301243Y-27307816D01*
X61314424Y-27313963D01*
X61468710Y-27365138D01*
X61482086Y-27368005D01*
X61576438Y-27377672D01*
X61582854Y-27378000D01*
X61907885Y-27378000D01*
X61923124Y-27373525D01*
X61924329Y-27372135D01*
X61926000Y-27364452D01*
X61926000Y-27359884D01*
X62434000Y-27359884D01*
X62438475Y-27375123D01*
X62439865Y-27376328D01*
X62447548Y-27377999D01*
X62777095Y-27377999D01*
X62783614Y-27377662D01*
X62879206Y-27367743D01*
X62892600Y-27364851D01*
X63046784Y-27313412D01*
X63059962Y-27307239D01*
X63197807Y-27221937D01*
X63209208Y-27212901D01*
X63323739Y-27098171D01*
X63332751Y-27086760D01*
X63417816Y-26948757D01*
X63423963Y-26935576D01*
X63475138Y-26781290D01*
X63478005Y-26767914D01*
X63487672Y-26673562D01*
X63488000Y-26667146D01*
X63488000Y-25642115D01*
X63483525Y-25626876D01*
X63482135Y-25625671D01*
X63474452Y-25624000D01*
X62452115Y-25624000D01*
X62436876Y-25628475D01*
X62435671Y-25629865D01*
X62434000Y-25637548D01*
X62434000Y-27359884D01*
X61926000Y-27359884D01*
X61926000Y-25642115D01*
X61921525Y-25626876D01*
X61920135Y-25625671D01*
X61912452Y-25624000D01*
X60890116Y-25624000D01*
X60874877Y-25628475D01*
X60873672Y-25629865D01*
X60872001Y-25637548D01*
X60872001Y-26667095D01*
X60452000Y-26667095D01*
X60452000Y-23752160D01*
X60472002Y-23684039D01*
X60488905Y-23663065D01*
X60747065Y-23404905D01*
X60809377Y-23370879D01*
X60836160Y-23368000D01*
X61005797Y-23368000D01*
X61073918Y-23388002D01*
G37*
%TD.AperFunction*%
%TD*%
%TA.AperFunction,Conductor*%
%TO.N,GND*%
G36*
X100359191Y-60618907D02*
G01*
X100395155Y-60668407D01*
X100400000Y-60699000D01*
X100400000Y-64751000D01*
X100381093Y-64809191D01*
X100331593Y-64845155D01*
X100301000Y-64850000D01*
X99100000Y-64850000D01*
X99100000Y-66100000D01*
X99700353Y-66100000D01*
X99713274Y-66100847D01*
X99750000Y-66105682D01*
X99786726Y-66100847D01*
X99799647Y-66100000D01*
X100301000Y-66100000D01*
X100359191Y-66118907D01*
X100395155Y-66168407D01*
X100400000Y-66199000D01*
X100400000Y-66801000D01*
X100381093Y-66859191D01*
X100331593Y-66895155D01*
X100301000Y-66900000D01*
X97449000Y-66900000D01*
X97390809Y-66881093D01*
X97354845Y-66831593D01*
X97350000Y-66801000D01*
X97350000Y-65650000D01*
X95050000Y-65650000D01*
X95050000Y-66801000D01*
X95031093Y-66859191D01*
X94981593Y-66895155D01*
X94951000Y-66900000D01*
X94199000Y-66900000D01*
X94140809Y-66881093D01*
X94104845Y-66831593D01*
X94100000Y-66801000D01*
X94100000Y-60699000D01*
X94118907Y-60640809D01*
X94168407Y-60604845D01*
X94199000Y-60600000D01*
X100301000Y-60600000D01*
X100359191Y-60618907D01*
G37*
%TD.AperFunction*%
%TD*%
%TA.AperFunction,Conductor*%
%TO.N,REF_OUT*%
G36*
X88559191Y-50818907D02*
G01*
X88595155Y-50868407D01*
X88600000Y-50899000D01*
X88600000Y-51612287D01*
X88594444Y-51644985D01*
X88588515Y-51661930D01*
X88581040Y-51683291D01*
X88580418Y-51688813D01*
X88580416Y-51688821D01*
X88574459Y-51741690D01*
X88572506Y-51752710D01*
X88570138Y-51758646D01*
X88569500Y-51765153D01*
X88569500Y-51780152D01*
X88568877Y-51791238D01*
X88567622Y-51802375D01*
X88566741Y-51808479D01*
X88564710Y-51819998D01*
X88561852Y-51819494D01*
X88547307Y-51864259D01*
X88537216Y-51876073D01*
X88525537Y-51887752D01*
X88524000Y-51894152D01*
X88524000Y-51900000D01*
X88016000Y-51900000D01*
X88016000Y-51898117D01*
X88011878Y-51885432D01*
X88010990Y-51884786D01*
X88004428Y-51884269D01*
X88001294Y-51884766D01*
X87979247Y-51891929D01*
X87979008Y-51891193D01*
X87942325Y-51900000D01*
X86057675Y-51900000D01*
X86020991Y-51891193D01*
X86020752Y-51891929D01*
X85999216Y-51884932D01*
X85986313Y-51886975D01*
X85985537Y-51887752D01*
X85984000Y-51894152D01*
X85984000Y-51900000D01*
X85476000Y-51900000D01*
X85476000Y-51898117D01*
X85471878Y-51885432D01*
X85449241Y-51868984D01*
X85434701Y-51862961D01*
X85402734Y-51810790D01*
X85400000Y-51787684D01*
X85400000Y-50899000D01*
X85418907Y-50840809D01*
X85468407Y-50804845D01*
X85499000Y-50800000D01*
X88501000Y-50800000D01*
X88559191Y-50818907D01*
G37*
%TD.AperFunction*%
%TD*%
%TA.AperFunction,Conductor*%
%TO.N,+5V*%
G36*
X80309191Y-64318907D02*
G01*
X80345155Y-64368407D01*
X80350000Y-64399000D01*
X80350000Y-66151000D01*
X80331093Y-66209191D01*
X80281593Y-66245155D01*
X80251000Y-66250000D01*
X78992756Y-66250000D01*
X78934565Y-66231093D01*
X78922752Y-66221004D01*
X78903220Y-66201472D01*
X78896283Y-66197937D01*
X78896281Y-66197936D01*
X78790066Y-66143817D01*
X78790065Y-66143817D01*
X78783126Y-66140281D01*
X78775432Y-66139062D01*
X78775431Y-66139062D01*
X78687334Y-66125109D01*
X78687332Y-66125109D01*
X78683488Y-66124500D01*
X78116512Y-66124500D01*
X78112668Y-66125109D01*
X78112666Y-66125109D01*
X78024569Y-66139062D01*
X78024568Y-66139062D01*
X78016874Y-66140281D01*
X78009936Y-66143816D01*
X78009930Y-66143818D01*
X77963975Y-66167233D01*
X77903543Y-66176804D01*
X77849027Y-66149027D01*
X77400000Y-65700000D01*
X77205094Y-65700000D01*
X77174692Y-65694159D01*
X77174638Y-65694380D01*
X77170116Y-65693280D01*
X77168409Y-65692952D01*
X77167848Y-65692728D01*
X77167843Y-65692727D01*
X77163188Y-65690870D01*
X77163185Y-65690868D01*
X77161353Y-65690137D01*
X77161465Y-65689856D01*
X77115991Y-65663111D01*
X77105812Y-65652099D01*
X77097767Y-65650000D01*
X76877210Y-65650000D01*
X76873805Y-65649833D01*
X76872133Y-65649500D01*
X76861718Y-65649500D01*
X76131499Y-65649501D01*
X76073309Y-65630594D01*
X76037345Y-65581094D01*
X76032500Y-65550501D01*
X76032500Y-65486492D01*
X77725547Y-65486492D01*
X77725610Y-65487298D01*
X77739544Y-65575275D01*
X77744298Y-65589908D01*
X77798346Y-65695984D01*
X77807388Y-65708429D01*
X77891571Y-65792612D01*
X77904016Y-65801654D01*
X78010091Y-65855702D01*
X78024726Y-65860457D01*
X78112703Y-65874391D01*
X78120442Y-65875000D01*
X78130320Y-65875000D01*
X78143005Y-65870878D01*
X78146000Y-65866757D01*
X78146000Y-65859319D01*
X78654000Y-65859319D01*
X78658122Y-65872004D01*
X78662243Y-65874999D01*
X78679556Y-65874999D01*
X78687298Y-65874390D01*
X78775275Y-65860456D01*
X78789908Y-65855702D01*
X78895984Y-65801654D01*
X78908429Y-65792612D01*
X78992612Y-65708429D01*
X79001654Y-65695984D01*
X79055702Y-65589909D01*
X79060457Y-65575274D01*
X79073804Y-65491000D01*
X79070878Y-65481995D01*
X79066757Y-65479000D01*
X78669680Y-65479000D01*
X78656995Y-65483122D01*
X78654000Y-65487243D01*
X78654000Y-65859319D01*
X78146000Y-65859319D01*
X78146000Y-65494680D01*
X78141878Y-65481995D01*
X78137757Y-65479000D01*
X77740681Y-65479000D01*
X77727996Y-65483122D01*
X77725547Y-65486492D01*
X76032500Y-65486492D01*
X76032500Y-65449500D01*
X76051407Y-65391309D01*
X76100907Y-65355345D01*
X76131500Y-65350500D01*
X76861711Y-65350499D01*
X76872132Y-65350499D01*
X76873802Y-65350167D01*
X76877198Y-65350000D01*
X77094790Y-65350000D01*
X77107475Y-65345878D01*
X77107503Y-65345841D01*
X77107992Y-65337543D01*
X77105948Y-65327265D01*
X77098626Y-65309589D01*
X77095859Y-65305448D01*
X77079252Y-65246559D01*
X77095860Y-65195449D01*
X77099095Y-65190607D01*
X77099096Y-65190606D01*
X77104515Y-65182495D01*
X77120500Y-65102133D01*
X77120499Y-64959000D01*
X77726196Y-64959000D01*
X77729122Y-64968005D01*
X77733243Y-64971000D01*
X78130320Y-64971000D01*
X78143005Y-64966878D01*
X78146000Y-64962757D01*
X78146000Y-64955320D01*
X78654000Y-64955320D01*
X78658122Y-64968005D01*
X78662243Y-64971000D01*
X79059319Y-64971000D01*
X79072004Y-64966878D01*
X79074453Y-64963508D01*
X79074390Y-64962702D01*
X79060456Y-64874725D01*
X79055702Y-64860092D01*
X79001654Y-64754016D01*
X78992612Y-64741571D01*
X78908429Y-64657388D01*
X78895984Y-64648346D01*
X78789909Y-64594298D01*
X78775274Y-64589543D01*
X78687297Y-64575609D01*
X78679558Y-64575000D01*
X78669680Y-64575000D01*
X78656995Y-64579122D01*
X78654000Y-64583243D01*
X78654000Y-64955320D01*
X78146000Y-64955320D01*
X78146000Y-64590681D01*
X78141878Y-64577996D01*
X78137757Y-64575001D01*
X78120444Y-64575001D01*
X78112702Y-64575610D01*
X78024725Y-64589544D01*
X78010092Y-64594298D01*
X77904016Y-64648346D01*
X77891571Y-64657388D01*
X77807388Y-64741571D01*
X77798346Y-64754016D01*
X77744298Y-64860091D01*
X77739543Y-64874726D01*
X77726196Y-64959000D01*
X77120499Y-64959000D01*
X77120499Y-64897868D01*
X77104515Y-64817505D01*
X77098990Y-64809237D01*
X77095860Y-64804551D01*
X77079252Y-64745663D01*
X77095859Y-64694552D01*
X77098626Y-64690411D01*
X77105948Y-64672735D01*
X77107411Y-64665379D01*
X77105843Y-64652134D01*
X77105811Y-64652099D01*
X77097767Y-64650000D01*
X76877210Y-64650000D01*
X76873805Y-64649833D01*
X76872133Y-64649500D01*
X76861718Y-64649500D01*
X76131499Y-64649501D01*
X76073309Y-64630594D01*
X76037345Y-64581094D01*
X76032500Y-64550501D01*
X76032500Y-64449500D01*
X76051407Y-64391309D01*
X76100907Y-64355345D01*
X76131500Y-64350500D01*
X76861711Y-64350499D01*
X76872132Y-64350499D01*
X76873802Y-64350167D01*
X76877198Y-64350000D01*
X77094790Y-64350000D01*
X77107476Y-64345878D01*
X77111158Y-64340810D01*
X77160658Y-64304846D01*
X77191251Y-64300000D01*
X80251000Y-64300000D01*
X80309191Y-64318907D01*
G37*
%TD.AperFunction*%
%TD*%
%TA.AperFunction,Conductor*%
%TO.N,+3V3*%
G36*
X97059191Y-65868907D02*
G01*
X97095155Y-65918407D01*
X97100000Y-65949000D01*
X97100000Y-67217790D01*
X97099833Y-67221195D01*
X97099500Y-67222867D01*
X97099501Y-68602132D01*
X97099833Y-68603802D01*
X97100000Y-68607198D01*
X97100000Y-68864157D01*
X97081093Y-68922348D01*
X97077054Y-68927535D01*
X96610037Y-69487955D01*
X96610037Y-69487956D01*
X96600000Y-69500000D01*
X96600000Y-70801000D01*
X96581093Y-70859191D01*
X96531593Y-70895155D01*
X96501000Y-70900000D01*
X96169073Y-70900000D01*
X96110882Y-70881093D01*
X96074918Y-70831593D01*
X96074918Y-70770407D01*
X96110882Y-70720907D01*
X96124127Y-70712791D01*
X96145981Y-70701656D01*
X96158429Y-70692612D01*
X96242612Y-70608429D01*
X96251654Y-70595984D01*
X96305702Y-70489909D01*
X96310457Y-70475274D01*
X96324391Y-70387297D01*
X96325000Y-70379558D01*
X96325000Y-70369680D01*
X96320878Y-70356995D01*
X96316757Y-70354000D01*
X95040681Y-70354000D01*
X95027996Y-70358122D01*
X95025001Y-70362243D01*
X95025001Y-70379556D01*
X95025610Y-70387298D01*
X95039544Y-70475275D01*
X95044298Y-70489908D01*
X95098346Y-70595984D01*
X95107388Y-70608429D01*
X95191571Y-70692612D01*
X95204019Y-70701656D01*
X95225873Y-70712791D01*
X95269137Y-70756055D01*
X95278708Y-70816488D01*
X95250930Y-70871004D01*
X95196413Y-70898781D01*
X95180927Y-70900000D01*
X94899000Y-70900000D01*
X94840809Y-70881093D01*
X94804845Y-70831593D01*
X94800000Y-70801000D01*
X94800000Y-69830320D01*
X95025000Y-69830320D01*
X95029122Y-69843005D01*
X95033243Y-69846000D01*
X95405320Y-69846000D01*
X95418005Y-69841878D01*
X95421000Y-69837757D01*
X95421000Y-69830320D01*
X95929000Y-69830320D01*
X95933122Y-69843005D01*
X95937243Y-69846000D01*
X96309319Y-69846000D01*
X96322004Y-69841878D01*
X96324999Y-69837757D01*
X96324999Y-69820444D01*
X96324390Y-69812702D01*
X96310456Y-69724725D01*
X96305702Y-69710092D01*
X96251654Y-69604016D01*
X96242612Y-69591571D01*
X96158429Y-69507388D01*
X96145984Y-69498346D01*
X96039909Y-69444298D01*
X96025274Y-69439543D01*
X95941000Y-69426196D01*
X95931995Y-69429122D01*
X95929000Y-69433243D01*
X95929000Y-69830320D01*
X95421000Y-69830320D01*
X95421000Y-69440681D01*
X95416878Y-69427996D01*
X95413508Y-69425547D01*
X95412702Y-69425610D01*
X95324725Y-69439544D01*
X95310092Y-69444298D01*
X95204016Y-69498346D01*
X95191571Y-69507388D01*
X95107388Y-69591571D01*
X95098346Y-69604016D01*
X95044298Y-69710091D01*
X95039543Y-69724726D01*
X95025609Y-69812703D01*
X95025000Y-69820442D01*
X95025000Y-69830320D01*
X94800000Y-69830320D01*
X94800000Y-69441008D01*
X94818907Y-69382817D01*
X94828996Y-69371004D01*
X95300000Y-68900000D01*
X95300000Y-68824790D01*
X95600000Y-68824790D01*
X95604122Y-68837475D01*
X95604159Y-68837503D01*
X95612457Y-68837992D01*
X95622735Y-68835948D01*
X95640407Y-68828627D01*
X95644996Y-68825561D01*
X95703884Y-68808951D01*
X95755004Y-68825561D01*
X95759593Y-68828627D01*
X95777265Y-68835948D01*
X95784621Y-68837411D01*
X95797866Y-68835843D01*
X95797901Y-68835811D01*
X95800000Y-68827767D01*
X95800000Y-68078180D01*
X95795878Y-68065495D01*
X95791757Y-68062500D01*
X95615680Y-68062500D01*
X95602995Y-68066622D01*
X95600000Y-68070743D01*
X95600000Y-68824790D01*
X95300000Y-68824790D01*
X95300000Y-68607210D01*
X95300167Y-68603805D01*
X95300500Y-68602133D01*
X95300499Y-67746820D01*
X95600000Y-67746820D01*
X95604122Y-67759505D01*
X95608243Y-67762500D01*
X95784320Y-67762500D01*
X95797005Y-67758378D01*
X95800000Y-67754257D01*
X95800000Y-67222867D01*
X96099500Y-67222867D01*
X96099501Y-68602132D01*
X96099833Y-68603802D01*
X96100000Y-68607198D01*
X96100000Y-68824790D01*
X96104122Y-68837475D01*
X96104159Y-68837503D01*
X96112457Y-68837992D01*
X96122735Y-68835948D01*
X96140411Y-68828626D01*
X96144552Y-68825859D01*
X96203441Y-68809252D01*
X96254551Y-68825860D01*
X96258693Y-68828627D01*
X96267505Y-68834515D01*
X96277068Y-68836417D01*
X96277070Y-68836418D01*
X96310991Y-68843165D01*
X96347867Y-68850500D01*
X96449978Y-68850500D01*
X96552132Y-68850499D01*
X96632495Y-68834515D01*
X96641307Y-68828627D01*
X96645449Y-68825860D01*
X96704337Y-68809252D01*
X96755448Y-68825859D01*
X96759589Y-68828626D01*
X96777265Y-68835948D01*
X96784621Y-68837411D01*
X96797866Y-68835843D01*
X96797901Y-68835811D01*
X96800000Y-68827767D01*
X96800000Y-68607210D01*
X96800167Y-68603805D01*
X96800500Y-68602133D01*
X96800499Y-67222868D01*
X96800167Y-67221198D01*
X96800000Y-67217802D01*
X96800000Y-67000210D01*
X96795878Y-66987525D01*
X96795841Y-66987497D01*
X96787543Y-66987008D01*
X96777265Y-66989052D01*
X96759589Y-66996374D01*
X96755448Y-66999141D01*
X96696559Y-67015748D01*
X96645449Y-66999140D01*
X96640607Y-66995905D01*
X96640606Y-66995904D01*
X96632495Y-66990485D01*
X96622932Y-66988583D01*
X96622930Y-66988582D01*
X96589009Y-66981835D01*
X96552133Y-66974500D01*
X96450022Y-66974500D01*
X96347868Y-66974501D01*
X96267505Y-66990485D01*
X96259237Y-66996010D01*
X96254551Y-66999140D01*
X96195663Y-67015748D01*
X96144552Y-66999141D01*
X96140411Y-66996374D01*
X96122735Y-66989052D01*
X96115379Y-66987589D01*
X96102134Y-66989157D01*
X96102099Y-66989189D01*
X96100000Y-66997233D01*
X96100000Y-67217790D01*
X96099833Y-67221195D01*
X96099500Y-67222867D01*
X95800000Y-67222867D01*
X95800000Y-67000210D01*
X95795878Y-66987525D01*
X95795841Y-66987497D01*
X95787543Y-66987008D01*
X95777265Y-66989052D01*
X95759593Y-66996373D01*
X95755004Y-66999439D01*
X95696116Y-67016049D01*
X95644996Y-66999439D01*
X95640407Y-66996373D01*
X95622735Y-66989052D01*
X95615379Y-66987589D01*
X95602134Y-66989157D01*
X95602099Y-66989189D01*
X95600000Y-66997233D01*
X95600000Y-67746820D01*
X95300499Y-67746820D01*
X95300499Y-67222868D01*
X95300167Y-67221198D01*
X95300000Y-67217802D01*
X95300000Y-65949000D01*
X95318907Y-65890809D01*
X95368407Y-65854845D01*
X95399000Y-65850000D01*
X97001000Y-65850000D01*
X97059191Y-65868907D01*
G37*
%TD.AperFunction*%
%TD*%
M02*
