%TF.GenerationSoftware,KiCad,Pcbnew,(6.0.7-1)-1*%
%TF.CreationDate,2022-08-23T13:00:42-05:00*%
%TF.ProjectId,NR1B-analog,4e523142-2d61-46e6-916c-6f672e6b6963,rev?*%
%TF.SameCoordinates,Original*%
%TF.FileFunction,Paste,Top*%
%TF.FilePolarity,Positive*%
%FSLAX46Y46*%
G04 Gerber Fmt 4.6, Leading zero omitted, Abs format (unit mm)*
G04 Created by KiCad (PCBNEW (6.0.7-1)-1) date 2022-08-23 13:00:42*
%MOMM*%
%LPD*%
G01*
G04 APERTURE LIST*
G04 Aperture macros list*
%AMRoundRect*
0 Rectangle with rounded corners*
0 $1 Rounding radius*
0 $2 $3 $4 $5 $6 $7 $8 $9 X,Y pos of 4 corners*
0 Add a 4 corners polygon primitive as box body*
4,1,4,$2,$3,$4,$5,$6,$7,$8,$9,$2,$3,0*
0 Add four circle primitives for the rounded corners*
1,1,$1+$1,$2,$3*
1,1,$1+$1,$4,$5*
1,1,$1+$1,$6,$7*
1,1,$1+$1,$8,$9*
0 Add four rect primitives between the rounded corners*
20,1,$1+$1,$2,$3,$4,$5,0*
20,1,$1+$1,$4,$5,$6,$7,0*
20,1,$1+$1,$6,$7,$8,$9,0*
20,1,$1+$1,$8,$9,$2,$3,0*%
%AMFreePoly0*
4,1,9,3.862500,-0.866500,0.737500,-0.866500,0.737500,-0.450000,-0.737500,-0.450000,-0.737500,0.450000,0.737500,0.450000,0.737500,0.866500,3.862500,0.866500,3.862500,-0.866500,3.862500,-0.866500,$1*%
G04 Aperture macros list end*
%ADD10R,1.295400X2.006600*%
%ADD11R,2.006600X2.006600*%
%ADD12RoundRect,0.200000X0.275000X-0.200000X0.275000X0.200000X-0.275000X0.200000X-0.275000X-0.200000X0*%
%ADD13RoundRect,0.075000X-0.075000X0.662500X-0.075000X-0.662500X0.075000X-0.662500X0.075000X0.662500X0*%
%ADD14RoundRect,0.075000X-0.662500X0.075000X-0.662500X-0.075000X0.662500X-0.075000X0.662500X0.075000X0*%
%ADD15RoundRect,0.170000X-0.170000X-0.210000X0.170000X-0.210000X0.170000X0.210000X-0.170000X0.210000X0*%
%ADD16RoundRect,0.075000X-0.650000X-0.075000X0.650000X-0.075000X0.650000X0.075000X-0.650000X0.075000X0*%
%ADD17RoundRect,0.200000X0.200000X0.275000X-0.200000X0.275000X-0.200000X-0.275000X0.200000X-0.275000X0*%
%ADD18RoundRect,0.200000X-0.275000X0.200000X-0.275000X-0.200000X0.275000X-0.200000X0.275000X0.200000X0*%
%ADD19RoundRect,0.150000X0.150000X-0.825000X0.150000X0.825000X-0.150000X0.825000X-0.150000X-0.825000X0*%
%ADD20RoundRect,0.218750X-0.381250X0.218750X-0.381250X-0.218750X0.381250X-0.218750X0.381250X0.218750X0*%
%ADD21RoundRect,0.225000X-0.250000X0.225000X-0.250000X-0.225000X0.250000X-0.225000X0.250000X0.225000X0*%
%ADD22RoundRect,0.200000X-0.200000X-0.275000X0.200000X-0.275000X0.200000X0.275000X-0.200000X0.275000X0*%
%ADD23RoundRect,0.225000X0.250000X-0.225000X0.250000X0.225000X-0.250000X0.225000X-0.250000X-0.225000X0*%
%ADD24RoundRect,0.250000X-0.550000X1.250000X-0.550000X-1.250000X0.550000X-1.250000X0.550000X1.250000X0*%
%ADD25RoundRect,0.150000X0.725000X0.150000X-0.725000X0.150000X-0.725000X-0.150000X0.725000X-0.150000X0*%
%ADD26RoundRect,0.218750X0.218750X0.381250X-0.218750X0.381250X-0.218750X-0.381250X0.218750X-0.381250X0*%
%ADD27RoundRect,0.150000X-0.150000X0.825000X-0.150000X-0.825000X0.150000X-0.825000X0.150000X0.825000X0*%
%ADD28RoundRect,0.225000X0.225000X0.250000X-0.225000X0.250000X-0.225000X-0.250000X0.225000X-0.250000X0*%
%ADD29RoundRect,0.250000X0.550000X-1.250000X0.550000X1.250000X-0.550000X1.250000X-0.550000X-1.250000X0*%
%ADD30RoundRect,0.218750X-0.218750X-0.381250X0.218750X-0.381250X0.218750X0.381250X-0.218750X0.381250X0*%
%ADD31RoundRect,0.225000X-0.225000X-0.250000X0.225000X-0.250000X0.225000X0.250000X-0.225000X0.250000X0*%
%ADD32RoundRect,0.250000X1.272792X-0.494975X-0.494975X1.272792X-1.272792X0.494975X0.494975X-1.272792X0*%
%ADD33RoundRect,0.250000X-0.550000X1.500000X-0.550000X-1.500000X0.550000X-1.500000X0.550000X1.500000X0*%
%ADD34R,0.900000X1.300000*%
%ADD35FreePoly0,90.000000*%
%ADD36RoundRect,0.167500X-0.167500X-0.407500X0.167500X-0.407500X0.167500X0.407500X-0.167500X0.407500X0*%
%ADD37RoundRect,0.100000X-0.625000X-0.100000X0.625000X-0.100000X0.625000X0.100000X-0.625000X0.100000X0*%
%ADD38R,1.600200X1.397000*%
%ADD39RoundRect,0.250000X0.550000X-1.500000X0.550000X1.500000X-0.550000X1.500000X-0.550000X-1.500000X0*%
G04 APERTURE END LIST*
D10*
%TO.C,U8*%
X71720000Y-31110001D03*
D11*
X70570000Y-27109999D03*
D10*
X69420000Y-31110001D03*
%TD*%
D12*
%TO.C,R2*%
X75870000Y-30675000D03*
X75870000Y-29025000D03*
%TD*%
D10*
%TO.C,U12*%
X68650000Y-46930001D03*
D11*
X67500000Y-42929999D03*
D10*
X66350000Y-46930001D03*
%TD*%
D13*
%TO.C,U14*%
X74770000Y-59587500D03*
X74270000Y-59587500D03*
X73770000Y-59587500D03*
X73270000Y-59587500D03*
X72770000Y-59587500D03*
X72270000Y-59587500D03*
X71770000Y-59587500D03*
X71270000Y-59587500D03*
X70770000Y-59587500D03*
X70270000Y-59587500D03*
X69770000Y-59587500D03*
X69270000Y-59587500D03*
D14*
X67857500Y-61000000D03*
X67857500Y-61500000D03*
X67857500Y-62000000D03*
X67857500Y-62500000D03*
X67857500Y-63000000D03*
X67857500Y-63500000D03*
X67857500Y-64000000D03*
X67857500Y-64500000D03*
X67857500Y-65000000D03*
X67857500Y-65500000D03*
X67857500Y-66000000D03*
X67857500Y-66500000D03*
D13*
X69270000Y-67912500D03*
X69770000Y-67912500D03*
X70270000Y-67912500D03*
X70770000Y-67912500D03*
X71270000Y-67912500D03*
X71770000Y-67912500D03*
X72270000Y-67912500D03*
X72770000Y-67912500D03*
X73270000Y-67912500D03*
X73770000Y-67912500D03*
X74270000Y-67912500D03*
X74770000Y-67912500D03*
D14*
X76182500Y-66500000D03*
X76182500Y-66000000D03*
X76182500Y-65500000D03*
X76182500Y-65000000D03*
X76182500Y-64500000D03*
X76182500Y-64000000D03*
X76182500Y-63500000D03*
X76182500Y-63000000D03*
X76182500Y-62500000D03*
X76182500Y-62000000D03*
X76182500Y-61500000D03*
X76182500Y-61000000D03*
%TD*%
D15*
%TO.C,U10*%
X69690000Y-39110000D03*
X69690000Y-38170000D03*
X70530000Y-39110000D03*
X70530000Y-38170000D03*
D16*
X67960000Y-37640000D03*
X67960000Y-38140000D03*
X67960000Y-38640000D03*
X67960000Y-39140000D03*
X67960000Y-39640000D03*
X72260000Y-39640000D03*
X72260000Y-39140000D03*
X72260000Y-38640000D03*
X72260000Y-38140000D03*
X72260000Y-37640000D03*
%TD*%
D17*
%TO.C,R17*%
X74925000Y-84000000D03*
X73275000Y-84000000D03*
%TD*%
D18*
%TO.C,R7*%
X101630000Y-35510000D03*
X101630000Y-37160000D03*
%TD*%
D19*
%TO.C,U6*%
X101330000Y-57050000D03*
X102600000Y-57050000D03*
X103870000Y-57050000D03*
X105140000Y-57050000D03*
X105140000Y-52100000D03*
X103870000Y-52100000D03*
X102600000Y-52100000D03*
X101330000Y-52100000D03*
%TD*%
D20*
%TO.C,FB2*%
X52820000Y-31847500D03*
X52820000Y-33972500D03*
%TD*%
D21*
%TO.C,C23*%
X103600000Y-65225000D03*
X103600000Y-66775000D03*
%TD*%
D17*
%TO.C,R12*%
X65825000Y-130000000D03*
X64175000Y-130000000D03*
%TD*%
D22*
%TO.C,R21*%
X98775000Y-140800000D03*
X100425000Y-140800000D03*
%TD*%
D12*
%TO.C,R9*%
X108200000Y-45325000D03*
X108200000Y-43675000D03*
%TD*%
D23*
%TO.C,C17*%
X109850000Y-45275000D03*
X109850000Y-43725000D03*
%TD*%
D10*
%TO.C,U9*%
X108220600Y-24320716D03*
D11*
X107070600Y-20320714D03*
D10*
X105920600Y-24320716D03*
%TD*%
D24*
%TO.C,C7*%
X62240000Y-36490000D03*
X62240000Y-40890000D03*
%TD*%
D25*
%TO.C,U2*%
X108285000Y-33695000D03*
X108285000Y-32425000D03*
X108285000Y-31155000D03*
X108285000Y-29885000D03*
X103135000Y-29885000D03*
X103135000Y-31155000D03*
X103135000Y-32425000D03*
X103135000Y-33695000D03*
%TD*%
D17*
%TO.C,R14*%
X100900000Y-99800000D03*
X99250000Y-99800000D03*
%TD*%
D26*
%TO.C,FB1*%
X62276500Y-51562000D03*
X60151500Y-51562000D03*
%TD*%
D27*
%TO.C,U3*%
X98295000Y-32315000D03*
X97025000Y-32315000D03*
X95755000Y-32315000D03*
X94485000Y-32315000D03*
X94485000Y-37265000D03*
X95755000Y-37265000D03*
X97025000Y-37265000D03*
X98295000Y-37265000D03*
%TD*%
D18*
%TO.C,R18*%
X99950000Y-75645000D03*
X99950000Y-77295000D03*
%TD*%
D28*
%TO.C,C38*%
X79875000Y-62000000D03*
X78325000Y-62000000D03*
%TD*%
D29*
%TO.C,C2*%
X62180000Y-25370000D03*
X62180000Y-20970000D03*
%TD*%
D17*
%TO.C,R20*%
X100425000Y-143400000D03*
X98775000Y-143400000D03*
%TD*%
%TO.C,R22*%
X69125000Y-117400000D03*
X67475000Y-117400000D03*
%TD*%
D30*
%TO.C,FB3*%
X55747500Y-34280000D03*
X57872500Y-34280000D03*
%TD*%
D12*
%TO.C,R3*%
X110490000Y-25925000D03*
X110490000Y-24275000D03*
%TD*%
D21*
%TO.C,C15*%
X75438000Y-38087000D03*
X75438000Y-39637000D03*
%TD*%
D28*
%TO.C,C20*%
X95675000Y-70100000D03*
X94125000Y-70100000D03*
%TD*%
D17*
%TO.C,R6*%
X100125000Y-98300000D03*
X98475000Y-98300000D03*
%TD*%
D31*
%TO.C,C36*%
X72725000Y-57400000D03*
X74275000Y-57400000D03*
%TD*%
D17*
%TO.C,R19*%
X76415000Y-72550000D03*
X74765000Y-72550000D03*
%TD*%
D18*
%TO.C,R8*%
X100100000Y-35505000D03*
X100100000Y-37155000D03*
%TD*%
D23*
%TO.C,C8*%
X101100000Y-30975000D03*
X101100000Y-29425000D03*
%TD*%
D19*
%TO.C,U13*%
X106995000Y-57075000D03*
X108265000Y-57075000D03*
X109535000Y-57075000D03*
X110805000Y-57075000D03*
X110805000Y-52125000D03*
X109535000Y-52125000D03*
X108265000Y-52125000D03*
X106995000Y-52125000D03*
%TD*%
D31*
%TO.C,C39*%
X78325000Y-63600000D03*
X79875000Y-63600000D03*
%TD*%
D12*
%TO.C,R4*%
X103080000Y-25875000D03*
X103080000Y-24225000D03*
%TD*%
D18*
%TO.C,R5*%
X88700000Y-90025000D03*
X88700000Y-91675000D03*
%TD*%
D12*
%TO.C,R10*%
X69200000Y-127425000D03*
X69200000Y-125775000D03*
%TD*%
D32*
%TO.C,C21*%
X67826073Y-137602017D03*
X64714803Y-134490747D03*
%TD*%
D33*
%TO.C,C13*%
X79750000Y-36030000D03*
X79750000Y-41430000D03*
%TD*%
D27*
%TO.C,U4*%
X90810000Y-48150000D03*
X89540000Y-48150000D03*
X88270000Y-48150000D03*
X87000000Y-48150000D03*
X85730000Y-48150000D03*
X84460000Y-48150000D03*
X83190000Y-48150000D03*
X83190000Y-53100000D03*
X84460000Y-53100000D03*
X85730000Y-53100000D03*
X87000000Y-53100000D03*
X88270000Y-53100000D03*
X89540000Y-53100000D03*
X90810000Y-53100000D03*
%TD*%
D28*
%TO.C,C4*%
X75655000Y-26720000D03*
X74105000Y-26720000D03*
%TD*%
D22*
%TO.C,R11*%
X64175000Y-127400000D03*
X65825000Y-127400000D03*
%TD*%
D23*
%TO.C,C3*%
X110490000Y-31001000D03*
X110490000Y-29451000D03*
%TD*%
D34*
%TO.C,U11*%
X88840000Y-25030700D03*
D35*
X90340000Y-24943200D03*
D34*
X91840000Y-25030700D03*
%TD*%
D31*
%TO.C,C10*%
X87615000Y-28730000D03*
X89165000Y-28730000D03*
%TD*%
D36*
%TO.C,U7*%
X69750000Y-23730000D03*
X70570000Y-23730000D03*
X69750000Y-22310000D03*
X70570000Y-22310000D03*
D37*
X68010000Y-21395000D03*
X68010000Y-22045000D03*
X68010000Y-22695000D03*
X68010000Y-23345000D03*
X68010000Y-23995000D03*
X68010000Y-24645000D03*
X72310000Y-24645000D03*
X72310000Y-23995000D03*
X72310000Y-23345000D03*
X72310000Y-22695000D03*
X72310000Y-22045000D03*
X72310000Y-21395000D03*
%TD*%
D17*
%TO.C,R25*%
X69125000Y-109900000D03*
X67475000Y-109900000D03*
%TD*%
D28*
%TO.C,C9*%
X88575000Y-45500000D03*
X87025000Y-45500000D03*
%TD*%
D21*
%TO.C,C6*%
X74930000Y-21925000D03*
X74930000Y-23475000D03*
%TD*%
%TO.C,C35*%
X92700000Y-33900000D03*
X92700000Y-35450000D03*
%TD*%
D29*
%TO.C,C12*%
X96570800Y-25517200D03*
X96570800Y-21117200D03*
%TD*%
D23*
%TO.C,C37*%
X109850000Y-40275000D03*
X109850000Y-38725000D03*
%TD*%
D31*
%TO.C,C19*%
X103525000Y-63600000D03*
X105075000Y-63600000D03*
%TD*%
D17*
%TO.C,R24*%
X69125000Y-112300000D03*
X67475000Y-112300000D03*
%TD*%
D31*
%TO.C,C1*%
X97925000Y-57500000D03*
X99475000Y-57500000D03*
%TD*%
%TO.C,C16*%
X101225000Y-49900000D03*
X102775000Y-49900000D03*
%TD*%
D21*
%TO.C,C22*%
X78400000Y-65225000D03*
X78400000Y-66775000D03*
%TD*%
%TO.C,C14*%
X106000000Y-48300000D03*
X106000000Y-49850000D03*
%TD*%
D22*
%TO.C,R1*%
X73815000Y-44670000D03*
X75465000Y-44670000D03*
%TD*%
D12*
%TO.C,R13*%
X69200000Y-131625000D03*
X69200000Y-129975000D03*
%TD*%
D17*
%TO.C,R23*%
X69125000Y-114900000D03*
X67475000Y-114900000D03*
%TD*%
D38*
%TO.C,SW1*%
X50902100Y-151988500D03*
X50902100Y-143581100D03*
X55397900Y-151988500D03*
X55397900Y-143581100D03*
X53150000Y-143581100D03*
%TD*%
D28*
%TO.C,C18*%
X105075000Y-62000000D03*
X103525000Y-62000000D03*
%TD*%
D12*
%TO.C,R16*%
X108200000Y-40325000D03*
X108200000Y-38675000D03*
%TD*%
D31*
%TO.C,C11*%
X73901000Y-42672000D03*
X75451000Y-42672000D03*
%TD*%
D39*
%TO.C,C5*%
X80160000Y-26580000D03*
X80160000Y-21180000D03*
%TD*%
D13*
%TO.C,U1*%
X99950000Y-59587500D03*
X99450000Y-59587500D03*
X98950000Y-59587500D03*
X98450000Y-59587500D03*
X97950000Y-59587500D03*
X97450000Y-59587500D03*
X96950000Y-59587500D03*
X96450000Y-59587500D03*
X95950000Y-59587500D03*
X95450000Y-59587500D03*
X94950000Y-59587500D03*
X94450000Y-59587500D03*
D14*
X93037500Y-61000000D03*
X93037500Y-61500000D03*
X93037500Y-62000000D03*
X93037500Y-62500000D03*
X93037500Y-63000000D03*
X93037500Y-63500000D03*
X93037500Y-64000000D03*
X93037500Y-64500000D03*
X93037500Y-65000000D03*
X93037500Y-65500000D03*
X93037500Y-66000000D03*
X93037500Y-66500000D03*
D13*
X94450000Y-67912500D03*
X94950000Y-67912500D03*
X95450000Y-67912500D03*
X95950000Y-67912500D03*
X96450000Y-67912500D03*
X96950000Y-67912500D03*
X97450000Y-67912500D03*
X97950000Y-67912500D03*
X98450000Y-67912500D03*
X98950000Y-67912500D03*
X99450000Y-67912500D03*
X99950000Y-67912500D03*
D14*
X101362500Y-66500000D03*
X101362500Y-66000000D03*
X101362500Y-65500000D03*
X101362500Y-65000000D03*
X101362500Y-64500000D03*
X101362500Y-64000000D03*
X101362500Y-63500000D03*
X101362500Y-63000000D03*
X101362500Y-62500000D03*
X101362500Y-62000000D03*
X101362500Y-61500000D03*
X101362500Y-61000000D03*
%TD*%
D22*
%TO.C,R15*%
X75775000Y-90000000D03*
X77425000Y-90000000D03*
%TD*%
D28*
%TO.C,C40*%
X70500000Y-70000000D03*
X68950000Y-70000000D03*
%TD*%
M02*
