%TF.GenerationSoftware,KiCad,Pcbnew,(6.0.7-1)-1*%
%TF.CreationDate,2022-08-23T13:00:42-05:00*%
%TF.ProjectId,NR1B-analog,4e523142-2d61-46e6-916c-6f672e6b6963,rev?*%
%TF.SameCoordinates,Original*%
%TF.FileFunction,Copper,L4,Bot*%
%TF.FilePolarity,Positive*%
%FSLAX46Y46*%
G04 Gerber Fmt 4.6, Leading zero omitted, Abs format (unit mm)*
G04 Created by KiCad (PCBNEW (6.0.7-1)-1) date 2022-08-23 13:00:42*
%MOMM*%
%LPD*%
G01*
G04 APERTURE LIST*
%TA.AperFunction,ComponentPad*%
%ADD10C,1.400000*%
%TD*%
%TA.AperFunction,ComponentPad*%
%ADD11O,1.700000X1.700000*%
%TD*%
%TA.AperFunction,ComponentPad*%
%ADD12R,1.700000X1.700000*%
%TD*%
%TA.AperFunction,ComponentPad*%
%ADD13C,1.700000*%
%TD*%
%TA.AperFunction,ViaPad*%
%ADD14C,0.800000*%
%TD*%
%TA.AperFunction,ViaPad*%
%ADD15C,0.480000*%
%TD*%
%TA.AperFunction,Conductor*%
%ADD16C,0.400000*%
%TD*%
%TA.AperFunction,Conductor*%
%ADD17C,0.300000*%
%TD*%
%TA.AperFunction,Conductor*%
%ADD18C,0.220000*%
%TD*%
%TA.AperFunction,Conductor*%
%ADD19C,0.250000*%
%TD*%
G04 APERTURE END LIST*
D10*
%TO.P,TP3,1,1*%
%TO.N,Net-(TP3-Pad1)*%
X61400000Y-114700000D03*
X63400000Y-114700000D03*
%TD*%
%TO.P,SCK_DAC1,1,1*%
%TO.N,/MCU/SCK_DAC*%
X92100000Y-85540000D03*
X94100000Y-85540000D03*
%TD*%
%TO.P,TP2,1,1*%
%TO.N,Net-(TP2-Pad1)*%
X63400000Y-112300000D03*
X61400000Y-112300000D03*
%TD*%
%TO.P,SCK_SYS1,1,1*%
%TO.N,/Interconnect/SCK*%
X100400000Y-130700000D03*
X102400000Y-130700000D03*
%TD*%
%TO.P,TP4,1,1*%
%TO.N,Net-(TP4-Pad1)*%
X63400000Y-117100000D03*
X61400000Y-117100000D03*
%TD*%
D11*
%TO.P,U5,1,GPIO0*%
%TO.N,/MCU/UART_TX*%
X93490000Y-150410000D03*
%TO.P,U5,2,GPIO1*%
%TO.N,/MCU/UART_RX*%
X93490000Y-147870000D03*
D12*
%TO.P,U5,3,GND*%
%TO.N,GND*%
X93490000Y-145330000D03*
D11*
%TO.P,U5,4,GPIO2*%
%TO.N,/Interconnect/ACK*%
X93490000Y-142790000D03*
%TO.P,U5,5,GPIO3*%
%TO.N,/Interconnect/ERROR*%
X93490000Y-140250000D03*
%TO.P,U5,6,GPIO4*%
%TO.N,/Interconnect/MOSI*%
X93490000Y-137710000D03*
%TO.P,U5,7,GPIO5*%
%TO.N,/Interconnect/NSS*%
X93490000Y-135170000D03*
D12*
%TO.P,U5,8,GND*%
%TO.N,GND*%
X93490000Y-132630000D03*
D11*
%TO.P,U5,9,GPIO6*%
%TO.N,/Interconnect/SCK*%
X93490000Y-130090000D03*
%TO.P,U5,10,GPIO7*%
%TO.N,/Interconnect/MISO*%
X93490000Y-127550000D03*
%TO.P,U5,11,GPIO8*%
%TO.N,/MCU/MISO_DAC*%
X93490000Y-125010000D03*
%TO.P,U5,12,GPIO9*%
%TO.N,/MCU/CS_DAC0*%
X93490000Y-122470000D03*
D12*
%TO.P,U5,13,GND*%
%TO.N,GND*%
X93490000Y-119930000D03*
D11*
%TO.P,U5,14,GPIO10*%
%TO.N,/MCU/SCK_DAC*%
X93490000Y-117390000D03*
%TO.P,U5,15,GPIO11*%
%TO.N,/MCU/MOSI_DAC*%
X93490000Y-114850000D03*
%TO.P,U5,16,GPIO12*%
%TO.N,/MCU/CS_DAC1*%
X93490000Y-112310000D03*
%TO.P,U5,17,GPIO13*%
%TO.N,/MCU/LDAC*%
X93490000Y-109770000D03*
D12*
%TO.P,U5,18,GND*%
%TO.N,GND*%
X93490000Y-107230000D03*
D11*
%TO.P,U5,19,GPIO14*%
%TO.N,/MCU/ALARM_DAC0*%
X93490000Y-104690000D03*
%TO.P,U5,20,GPIO15*%
%TO.N,/MCU/ALARM_DAC1*%
X93490000Y-102150000D03*
%TO.P,U5,21,GPIO16*%
%TO.N,Net-(TP1-Pad1)*%
X75710000Y-102150000D03*
%TO.P,U5,22,GPIO17*%
%TO.N,Net-(TP2-Pad1)*%
X75710000Y-104690000D03*
D12*
%TO.P,U5,23,GND*%
%TO.N,GND*%
X75710000Y-107230000D03*
D11*
%TO.P,U5,24,GPIO18*%
%TO.N,Net-(R25-Pad1)*%
X75710000Y-109770000D03*
%TO.P,U5,25,GPIO19*%
%TO.N,Net-(R24-Pad1)*%
X75710000Y-112310000D03*
%TO.P,U5,26,GPIO20*%
%TO.N,Net-(R23-Pad1)*%
X75710000Y-114850000D03*
%TO.P,U5,27,GPIO21*%
%TO.N,Net-(R22-Pad1)*%
X75710000Y-117390000D03*
D12*
%TO.P,U5,28,GND*%
%TO.N,GND*%
X75710000Y-119930000D03*
D11*
%TO.P,U5,29,GPIO22*%
%TO.N,Net-(TP3-Pad1)*%
X75710000Y-122470000D03*
%TO.P,U5,30,RUN*%
%TO.N,Net-(SW1-Pad1)*%
X75710000Y-125010000D03*
%TO.P,U5,31,GPIO26_ADC0*%
%TO.N,/MCU/DAC0_READ*%
X75710000Y-127550000D03*
%TO.P,U5,32,GPIO27_ADC1*%
%TO.N,/MCU/DAC1_READ*%
X75710000Y-130090000D03*
D12*
%TO.P,U5,33,AGND*%
%TO.N,GND*%
X75710000Y-132630000D03*
D11*
%TO.P,U5,34,GPIO28_ADC2*%
%TO.N,Net-(TP4-Pad1)*%
X75710000Y-135170000D03*
%TO.P,U5,35,ADC_VREF*%
%TO.N,unconnected-(U5-Pad35)*%
X75710000Y-137710000D03*
%TO.P,U5,36,3V3*%
%TO.N,+3V3*%
X75710000Y-140250000D03*
%TO.P,U5,37,3V3_EN*%
%TO.N,unconnected-(U5-Pad37)*%
X75710000Y-142790000D03*
D12*
%TO.P,U5,38,GND*%
%TO.N,GND*%
X75710000Y-145330000D03*
D11*
%TO.P,U5,39,VSYS*%
%TO.N,unconnected-(U5-Pad39)*%
X75710000Y-147870000D03*
%TO.P,U5,40,VBUS*%
%TO.N,unconnected-(U5-Pad40)*%
X75710000Y-150410000D03*
%TO.P,U5,41,SWCLK*%
%TO.N,Net-(J3-Pad1)*%
X87140000Y-102380000D03*
D12*
%TO.P,U5,42,GND*%
%TO.N,GND*%
X84600000Y-102380000D03*
D11*
%TO.P,U5,43,SWDIO*%
%TO.N,Net-(J3-Pad3)*%
X82060000Y-102380000D03*
%TD*%
D10*
%TO.P,MISO_SYS1,1,1*%
%TO.N,/Interconnect/MISO*%
X102400000Y-128300000D03*
X100400000Y-128300000D03*
%TD*%
%TO.P,MISO_DAC1,1,1*%
%TO.N,/MCU/MISO_DAC*%
X94100000Y-88080000D03*
X92100000Y-88080000D03*
%TD*%
%TO.P,MOSI_SYS1,1,1*%
%TO.N,/Interconnect/MOSI*%
X100400000Y-135500000D03*
X102400000Y-135500000D03*
%TD*%
D12*
%TO.P,J1,1,Pin_1*%
%TO.N,OUT_SENSE1*%
X113766600Y-38227000D03*
D11*
%TO.P,J1,2,Pin_2*%
%TO.N,unconnected-(J1-Pad2)*%
X116306600Y-38227000D03*
%TO.P,J1,3,Pin_3*%
%TO.N,OUT_DRIVE1*%
X113766600Y-40767000D03*
%TO.P,J1,4,Pin_4*%
%TO.N,unconnected-(J1-Pad4)*%
X116306600Y-40767000D03*
%TO.P,J1,5,Pin_5*%
%TO.N,OUT_SENSE0*%
X113766600Y-43307000D03*
%TO.P,J1,6,Pin_6*%
%TO.N,unconnected-(J1-Pad6)*%
X116306600Y-43307000D03*
%TO.P,J1,7,Pin_7*%
%TO.N,OUT_DRIVE0*%
X113766600Y-45847000D03*
%TO.P,J1,8,Pin_8*%
%TO.N,unconnected-(J1-Pad8)*%
X116306600Y-45847000D03*
%TD*%
D12*
%TO.P,J8,1,Pin_1*%
%TO.N,GND*%
X110610000Y-141925000D03*
D11*
%TO.P,J8,2,Pin_2*%
%TO.N,/MCU/UART_TX*%
X108070000Y-141925000D03*
%TO.P,J8,3,Pin_3*%
%TO.N,/MCU/UART_RX*%
X105530000Y-141925000D03*
%TO.P,J8,4,Pin_4*%
%TO.N,+3V3*%
X102990000Y-141925000D03*
%TD*%
D12*
%TO.P,J3,1,Pin_1*%
%TO.N,Net-(J3-Pad1)*%
X63825000Y-142405000D03*
D11*
%TO.P,J3,2,Pin_2*%
%TO.N,GND*%
X61285000Y-142405000D03*
%TO.P,J3,3,Pin_3*%
%TO.N,Net-(J3-Pad3)*%
X58745000Y-142405000D03*
%TD*%
D13*
%TO.P,X1,1,PC10*%
%TO.N,unconnected-(X1-Pad1)*%
X52806600Y-50927000D03*
%TO.P,X1,2,PC11*%
%TO.N,unconnected-(X1-Pad2)*%
X55346600Y-50927000D03*
%TO.P,X1,3,PC12*%
%TO.N,unconnected-(X1-Pad3)*%
X52806600Y-53467000D03*
%TO.P,X1,4,PD2*%
%TO.N,unconnected-(X1-Pad4)*%
X55346600Y-53467000D03*
%TO.P,X1,5,VDD*%
%TO.N,unconnected-(X1-Pad5)*%
X52806600Y-56007000D03*
%TO.P,X1,6,E5V*%
%TO.N,unconnected-(X1-Pad6)*%
X55346600Y-56007000D03*
%TO.P,X1,7,~{BOOT0}*%
%TO.N,unconnected-(X1-Pad7)*%
X52806600Y-58547000D03*
%TO.P,X1,8,GND*%
%TO.N,GND*%
X55346600Y-58547000D03*
%TO.P,X1,9,PF6*%
%TO.N,unconnected-(X1-Pad9)*%
X52806600Y-61087000D03*
%TO.P,X1,10,NC*%
%TO.N,unconnected-(X1-Pad10)*%
X55346600Y-61087000D03*
%TO.P,X1,11,PF7*%
%TO.N,unconnected-(X1-Pad11)*%
X52806600Y-63627000D03*
%TO.P,X1,12,IOREF*%
%TO.N,unconnected-(X1-Pad12)*%
X55346600Y-63627000D03*
%TO.P,X1,13,TMS/PA13*%
%TO.N,unconnected-(X1-Pad13)*%
X52806600Y-66167000D03*
%TO.P,X1,14,~{RST}*%
%TO.N,unconnected-(X1-Pad14)*%
X55346600Y-66167000D03*
%TO.P,X1,15,TCK/PA14*%
%TO.N,unconnected-(X1-Pad15)*%
X52806600Y-68707000D03*
%TO.P,X1,16,+3V3*%
%TO.N,+3V3*%
X55346600Y-68707000D03*
%TO.P,X1,17,PA15*%
%TO.N,unconnected-(X1-Pad17)*%
X52806600Y-71247000D03*
%TO.P,X1,18,+5V*%
%TO.N,unconnected-(X1-Pad18)*%
X55346600Y-71247000D03*
%TO.P,X1,19,GND*%
%TO.N,GND*%
X52806600Y-73787000D03*
%TO.P,X1,20,GND*%
X55346600Y-73787000D03*
%TO.P,X1,21,LD2/PB7*%
%TO.N,unconnected-(X1-Pad21)*%
X52806600Y-76327000D03*
%TO.P,X1,22,GND*%
%TO.N,GND*%
X55346600Y-76327000D03*
%TO.P,X1,23,BT/PC13*%
%TO.N,unconnected-(X1-Pad23)*%
X52806600Y-78867000D03*
%TO.P,X1,24,VIN*%
%TO.N,unconnected-(X1-Pad24)*%
X55346600Y-78867000D03*
%TO.P,X1,25,RTC_CRYSTAL/PC14*%
%TO.N,unconnected-(X1-Pad25)*%
X52806600Y-81407000D03*
%TO.P,X1,26,NC*%
%TO.N,unconnected-(X1-Pad26)*%
X55346600Y-81407000D03*
%TO.P,X1,27,RTC_CRYSTAL/PC15*%
%TO.N,unconnected-(X1-Pad27)*%
X52806600Y-83947000D03*
%TO.P,X1,28,ETH_REF_CLK/PA0*%
%TO.N,unconnected-(X1-Pad28)*%
X55346600Y-83947000D03*
%TO.P,X1,29,PH0*%
%TO.N,unconnected-(X1-Pad29)*%
X52806600Y-86487000D03*
%TO.P,X1,30,ETH_MDIO/PA1*%
%TO.N,unconnected-(X1-Pad30)*%
X55346600Y-86487000D03*
%TO.P,X1,31,PH1*%
%TO.N,unconnected-(X1-Pad31)*%
X52806600Y-89027000D03*
%TO.P,X1,32,PA4*%
%TO.N,/Interconnect/NSS*%
X55346600Y-89027000D03*
%TO.P,X1,33,VBAT*%
%TO.N,unconnected-(X1-Pad33)*%
X52806600Y-91567000D03*
%TO.P,X1,34,PB0*%
%TO.N,unconnected-(X1-Pad34)*%
X55346600Y-91567000D03*
%TO.P,X1,35,PC2*%
%TO.N,unconnected-(X1-Pad35)*%
X52806600Y-94107000D03*
%TO.P,X1,36,ETH_MDC/PC1*%
%TO.N,unconnected-(X1-Pad36)*%
X55346600Y-94107000D03*
%TO.P,X1,37,PC3*%
%TO.N,unconnected-(X1-Pad37)*%
X52806600Y-96647000D03*
%TO.P,X1,38,PC0*%
%TO.N,unconnected-(X1-Pad38)*%
X55346600Y-96647000D03*
%TO.P,X1,39,PD4*%
%TO.N,unconnected-(X1-Pad39)*%
X52806600Y-99187000D03*
%TO.P,X1,40,PD3*%
%TO.N,unconnected-(X1-Pad40)*%
X55346600Y-99187000D03*
%TO.P,X1,41,PD5*%
%TO.N,unconnected-(X1-Pad41)*%
X52806600Y-101727000D03*
%TO.P,X1,42,PG2*%
%TO.N,unconnected-(X1-Pad42)*%
X55346600Y-101727000D03*
%TO.P,X1,43,PD6*%
%TO.N,unconnected-(X1-Pad43)*%
X52806600Y-104267000D03*
%TO.P,X1,44,PG3*%
%TO.N,unconnected-(X1-Pad44)*%
X55346600Y-104267000D03*
%TO.P,X1,45,PD7*%
%TO.N,/Interconnect/MOSI*%
X52806600Y-106807000D03*
%TO.P,X1,46,PE2*%
%TO.N,unconnected-(X1-Pad46)*%
X55346600Y-106807000D03*
%TO.P,X1,47,PE3*%
%TO.N,unconnected-(X1-Pad47)*%
X52806600Y-109347000D03*
%TO.P,X1,48,PE4*%
%TO.N,unconnected-(X1-Pad48)*%
X55346600Y-109347000D03*
%TO.P,X1,49,GND*%
%TO.N,GND*%
X52806600Y-111887000D03*
%TO.P,X1,50,PE5*%
%TO.N,unconnected-(X1-Pad50)*%
X55346600Y-111887000D03*
%TO.P,X1,51,PF1*%
%TO.N,unconnected-(X1-Pad51)*%
X52806600Y-114427000D03*
%TO.P,X1,52,PF2*%
%TO.N,unconnected-(X1-Pad52)*%
X55346600Y-114427000D03*
%TO.P,X1,53,PF0*%
%TO.N,unconnected-(X1-Pad53)*%
X52806600Y-116967000D03*
%TO.P,X1,54,PF8*%
%TO.N,unconnected-(X1-Pad54)*%
X55346600Y-116967000D03*
%TO.P,X1,55,PD1*%
%TO.N,unconnected-(X1-Pad55)*%
X52806600Y-119507000D03*
%TO.P,X1,56,PF9*%
%TO.N,unconnected-(X1-Pad56)*%
X55346600Y-119507000D03*
%TO.P,X1,57,PD0*%
%TO.N,unconnected-(X1-Pad57)*%
X52806600Y-122047000D03*
%TO.P,X1,58,PG1*%
%TO.N,unconnected-(X1-Pad58)*%
X55346600Y-122047000D03*
%TO.P,X1,59,PG0*%
%TO.N,unconnected-(X1-Pad59)*%
X52806600Y-124587000D03*
%TO.P,X1,60,GND*%
%TO.N,GND*%
X55346600Y-124587000D03*
%TO.P,X1,61,PE1*%
%TO.N,unconnected-(X1-Pad61)*%
X52806600Y-127127000D03*
%TO.P,X1,62,PE6*%
%TO.N,unconnected-(X1-Pad62)*%
X55346600Y-127127000D03*
%TO.P,X1,63,PG9*%
%TO.N,unconnected-(X1-Pad63)*%
X52806600Y-129667000D03*
%TO.P,X1,64,PG15*%
%TO.N,unconnected-(X1-Pad64)*%
X55346600Y-129667000D03*
%TO.P,X1,65,PG12*%
%TO.N,unconnected-(X1-Pad65)*%
X52806600Y-132207000D03*
%TO.P,X1,66,PG10*%
%TO.N,unconnected-(X1-Pad66)*%
X55346600Y-132207000D03*
%TO.P,X1,67,NC*%
%TO.N,unconnected-(X1-Pad67)*%
X52806600Y-134747000D03*
%TO.P,X1,68,PG13/ETH_TXD0*%
%TO.N,unconnected-(X1-Pad68)*%
X55346600Y-134747000D03*
%TO.P,X1,69,STLINK_RX/PD9*%
%TO.N,unconnected-(X1-Pad69)*%
X52806600Y-137287000D03*
%TO.P,X1,70,PG11/ETH_TX_EN*%
%TO.N,unconnected-(X1-Pad70)*%
X55346600Y-137287000D03*
%TO.P,X1,71,GND*%
%TO.N,GND*%
X52806600Y-139827000D03*
%TO.P,X1,72,GND*%
X55346600Y-139827000D03*
%TO.P,X1,73,PC9*%
%TO.N,unconnected-(X1-Pad73)*%
X113766600Y-50927000D03*
%TO.P,X1,74,PC8*%
%TO.N,unconnected-(X1-Pad74)*%
X116306600Y-50927000D03*
%TO.P,X1,75,PB8*%
%TO.N,unconnected-(X1-Pad75)*%
X113766600Y-53467000D03*
%TO.P,X1,76,PC6*%
%TO.N,unconnected-(X1-Pad76)*%
X116306600Y-53467000D03*
%TO.P,X1,77,PB9*%
%TO.N,unconnected-(X1-Pad77)*%
X113766600Y-56007000D03*
%TO.P,X1,78,ETH_RXD1/PC5*%
%TO.N,unconnected-(X1-Pad78)*%
X116306600Y-56007000D03*
%TO.P,X1,79,AVDD*%
%TO.N,unconnected-(X1-Pad79)*%
X113766600Y-58547000D03*
%TO.P,X1,80,U5V*%
%TO.N,unconnected-(X1-Pad80)*%
X116306600Y-58547000D03*
%TO.P,X1,81,GND*%
%TO.N,GND*%
X113766600Y-61087000D03*
%TO.P,X1,82,STLINK_TX/PD8*%
%TO.N,unconnected-(X1-Pad82)*%
X116306600Y-61087000D03*
%TO.P,X1,83,PA5*%
%TO.N,/Interconnect/SCK*%
X113766600Y-63627000D03*
%TO.P,X1,84,USB_DP/PA12*%
%TO.N,unconnected-(X1-Pad84)*%
X116306600Y-63627000D03*
%TO.P,X1,85,PA6*%
%TO.N,/Interconnect/MISO*%
X113766600Y-66167000D03*
%TO.P,X1,86,USB_DM/PA11*%
%TO.N,unconnected-(X1-Pad86)*%
X116306600Y-66167000D03*
%TO.P,X1,87,ETH_CRS_DV/PA7*%
%TO.N,unconnected-(X1-Pad87)*%
X113766600Y-68707000D03*
%TO.P,X1,88,PB12*%
%TO.N,unconnected-(X1-Pad88)*%
X116306600Y-68707000D03*
%TO.P,X1,89,PB6*%
%TO.N,unconnected-(X1-Pad89)*%
X113766600Y-71247000D03*
%TO.P,X1,90,PB11*%
%TO.N,unconnected-(X1-Pad90)*%
X116306600Y-71247000D03*
%TO.P,X1,91,PC7*%
%TO.N,unconnected-(X1-Pad91)*%
X113766600Y-73787000D03*
%TO.P,X1,92,GND*%
%TO.N,GND*%
X116306600Y-73787000D03*
%TO.P,X1,93,USB_VBUS/PA9*%
%TO.N,unconnected-(X1-Pad93)*%
X113766600Y-76327000D03*
%TO.P,X1,94,PB2*%
%TO.N,unconnected-(X1-Pad94)*%
X116306600Y-76327000D03*
%TO.P,X1,95,USB_SOF/PA8*%
%TO.N,unconnected-(X1-Pad95)*%
X113766600Y-78867000D03*
%TO.P,X1,96,PB1*%
%TO.N,unconnected-(X1-Pad96)*%
X116306600Y-78867000D03*
%TO.P,X1,97,PB10*%
%TO.N,unconnected-(X1-Pad97)*%
X113766600Y-81407000D03*
%TO.P,X1,98,PB15*%
%TO.N,unconnected-(X1-Pad98)*%
X116306600Y-81407000D03*
%TO.P,X1,99,PB4*%
%TO.N,unconnected-(X1-Pad99)*%
X113766600Y-83947000D03*
%TO.P,X1,100,LD3/PB14*%
%TO.N,unconnected-(X1-Pad100)*%
X116306600Y-83947000D03*
%TO.P,X1,101,PB5*%
%TO.N,unconnected-(X1-Pad101)*%
X113766600Y-86487000D03*
%TO.P,X1,102,ETH_TXD1/PB13*%
%TO.N,unconnected-(X1-Pad102)*%
X116306600Y-86487000D03*
%TO.P,X1,103,SWO/PB3*%
%TO.N,unconnected-(X1-Pad103)*%
X113766600Y-89027000D03*
%TO.P,X1,104,AGND*%
%TO.N,unconnected-(X1-Pad104)*%
X116306600Y-89027000D03*
%TO.P,X1,105,USB_ID/PA10*%
%TO.N,unconnected-(X1-Pad105)*%
X113766600Y-91567000D03*
%TO.P,X1,106,ETH_RXD0/PC4*%
%TO.N,unconnected-(X1-Pad106)*%
X116306600Y-91567000D03*
%TO.P,X1,107,PA2*%
%TO.N,unconnected-(X1-Pad107)*%
X113766600Y-94107000D03*
%TO.P,X1,108,PF5*%
%TO.N,unconnected-(X1-Pad108)*%
X116306600Y-94107000D03*
%TO.P,X1,109,PA3*%
%TO.N,unconnected-(X1-Pad109)*%
X113766600Y-96647000D03*
%TO.P,X1,110,PF4*%
%TO.N,unconnected-(X1-Pad110)*%
X116306600Y-96647000D03*
%TO.P,X1,111,GND*%
%TO.N,GND*%
X113766600Y-99187000D03*
%TO.P,X1,112,PE8*%
%TO.N,unconnected-(X1-Pad112)*%
X116306600Y-99187000D03*
%TO.P,X1,113,PD13*%
%TO.N,unconnected-(X1-Pad113)*%
X113766600Y-101727000D03*
%TO.P,X1,114,PF10*%
%TO.N,unconnected-(X1-Pad114)*%
X116306600Y-101727000D03*
%TO.P,X1,115,PD12*%
%TO.N,unconnected-(X1-Pad115)*%
X113766600Y-104267000D03*
%TO.P,X1,116,PE7*%
%TO.N,unconnected-(X1-Pad116)*%
X116306600Y-104267000D03*
%TO.P,X1,117,PD11*%
%TO.N,unconnected-(X1-Pad117)*%
X113766600Y-106807000D03*
%TO.P,X1,118,PD14*%
%TO.N,unconnected-(X1-Pad118)*%
X116306600Y-106807000D03*
%TO.P,X1,119,PE10*%
%TO.N,unconnected-(X1-Pad119)*%
X113766600Y-109347000D03*
%TO.P,X1,120,PD15*%
%TO.N,unconnected-(X1-Pad120)*%
X116306600Y-109347000D03*
%TO.P,X1,121,PE12*%
%TO.N,unconnected-(X1-Pad121)*%
X113766600Y-111887000D03*
%TO.P,X1,122,PF14*%
%TO.N,unconnected-(X1-Pad122)*%
X116306600Y-111887000D03*
%TO.P,X1,123,PE14*%
%TO.N,unconnected-(X1-Pad123)*%
X113766600Y-114427000D03*
%TO.P,X1,124,PE9*%
%TO.N,unconnected-(X1-Pad124)*%
X116306600Y-114427000D03*
%TO.P,X1,125,PE15*%
%TO.N,unconnected-(X1-Pad125)*%
X113766600Y-116967000D03*
%TO.P,X1,126,GND*%
%TO.N,GND*%
X116306600Y-116967000D03*
%TO.P,X1,127,PE13*%
%TO.N,unconnected-(X1-Pad127)*%
X113766600Y-119507000D03*
%TO.P,X1,128,PE11*%
%TO.N,unconnected-(X1-Pad128)*%
X116306600Y-119507000D03*
%TO.P,X1,129,PF13*%
%TO.N,unconnected-(X1-Pad129)*%
X113766600Y-122047000D03*
%TO.P,X1,130,PF3*%
%TO.N,unconnected-(X1-Pad130)*%
X116306600Y-122047000D03*
%TO.P,X1,131,PF12*%
%TO.N,unconnected-(X1-Pad131)*%
X113766600Y-124587000D03*
%TO.P,X1,132,PF15*%
%TO.N,unconnected-(X1-Pad132)*%
X116306600Y-124587000D03*
%TO.P,X1,133,PG14*%
%TO.N,/Interconnect/ERROR*%
X113766600Y-127127000D03*
%TO.P,X1,134,PF11*%
%TO.N,unconnected-(X1-Pad134)*%
X116306600Y-127127000D03*
%TO.P,X1,135,GND*%
%TO.N,GND*%
X113766600Y-129667000D03*
%TO.P,X1,136,PE0*%
%TO.N,unconnected-(X1-Pad136)*%
X116306600Y-129667000D03*
%TO.P,X1,137,PD10*%
%TO.N,unconnected-(X1-Pad137)*%
X113766600Y-132207000D03*
%TO.P,X1,138,PG8*%
%TO.N,/Interconnect/ACK*%
X116306600Y-132207000D03*
%TO.P,X1,139,PG7/USB_GPIO_IN*%
%TO.N,unconnected-(X1-Pad139)*%
X113766600Y-134747000D03*
%TO.P,X1,140,PG5*%
%TO.N,unconnected-(X1-Pad140)*%
X116306600Y-134747000D03*
%TO.P,X1,141,PG4*%
%TO.N,unconnected-(X1-Pad141)*%
X113766600Y-137287000D03*
%TO.P,X1,142,PG6/USB_GPIO_OUT*%
%TO.N,unconnected-(X1-Pad142)*%
X116306600Y-137287000D03*
%TO.P,X1,143,GND*%
%TO.N,GND*%
X113766600Y-139827000D03*
%TO.P,X1,144,GND*%
X116306600Y-139827000D03*
%TO.P,X1,145*%
%TO.N,N/C*%
X52806600Y-22987000D03*
%TO.P,X1,146*%
X52806600Y-25527000D03*
%TO.P,X1,147*%
X116306600Y-22987000D03*
%TO.P,X1,148*%
X116306600Y-25527000D03*
%TD*%
D10*
%TO.P,CS_DAC1,1,1*%
%TO.N,/MCU/CS_DAC1*%
X92100000Y-95700000D03*
X94100000Y-95700000D03*
%TD*%
%TO.P,TP1,1,1*%
%TO.N,Net-(TP1-Pad1)*%
X61400000Y-109900000D03*
X63400000Y-109900000D03*
%TD*%
%TO.P,MOSI_DAC1,1,1*%
%TO.N,/MCU/MOSI_DAC*%
X94100000Y-90620000D03*
X92100000Y-90620000D03*
%TD*%
%TO.P,GND1,1,1*%
%TO.N,GND*%
X100400000Y-125900000D03*
X102400000Y-125900000D03*
%TD*%
D12*
%TO.P,J2,1,Pin_1*%
%TO.N,Net-(FB2-Pad2)*%
X52806600Y-38227000D03*
D11*
%TO.P,J2,2,Pin_2*%
%TO.N,Net-(FB3-Pad1)*%
X55346600Y-38227000D03*
%TO.P,J2,3,Pin_3*%
%TO.N,GND*%
X52806600Y-40767000D03*
%TO.P,J2,4,Pin_4*%
X55346600Y-40767000D03*
%TO.P,J2,5,Pin_5*%
%TO.N,Net-(FB1-Pad2)*%
X52806600Y-43307000D03*
%TO.P,J2,6,Pin_6*%
%TO.N,GND*%
X55346600Y-43307000D03*
%TO.P,J2,7,Pin_7*%
%TO.N,+12V*%
X52806600Y-45847000D03*
%TO.P,J2,8,Pin_8*%
%TO.N,+24V*%
X55346600Y-45847000D03*
%TD*%
D10*
%TO.P,CS_DAC0,1,1*%
%TO.N,/MCU/CS_DAC0*%
X92100000Y-93160000D03*
X94100000Y-93160000D03*
%TD*%
%TO.P,CS_SYS1,1,1*%
%TO.N,/Interconnect/NSS*%
X102400000Y-133100000D03*
X100400000Y-133100000D03*
%TD*%
D14*
%TO.N,+12Vref*%
X96600000Y-27900000D03*
X93100000Y-27600000D03*
X93100000Y-25000000D03*
X94234000Y-27600000D03*
X110236000Y-32512000D03*
X87600000Y-46600000D03*
X93100000Y-26300000D03*
X94200000Y-25000000D03*
X94234000Y-26300000D03*
X87000000Y-49800000D03*
X97000000Y-39000000D03*
X107200000Y-50400000D03*
X95800000Y-35600000D03*
X103790500Y-49900000D03*
X97050000Y-35600000D03*
X94450000Y-35600000D03*
X92700000Y-36650000D03*
%TO.N,GND*%
X72800000Y-61300000D03*
X69596000Y-36576000D03*
X71200000Y-64600000D03*
X105050000Y-60700000D03*
X78390000Y-24700000D03*
X79900000Y-60750000D03*
X96400000Y-63000000D03*
X69200000Y-132800000D03*
X89800000Y-46000000D03*
X69600000Y-61300000D03*
X60706000Y-43434000D03*
X110800000Y-55400000D03*
X98000000Y-64600000D03*
X62230000Y-27686000D03*
X92300000Y-31600000D03*
X88845000Y-23755000D03*
X96400000Y-64600000D03*
X68249800Y-25527000D03*
X89800000Y-45000000D03*
X77200000Y-44196000D03*
X98300000Y-21100000D03*
X106450000Y-63650000D03*
X77500000Y-25470000D03*
X99700000Y-63000000D03*
X101600000Y-28200000D03*
X98000000Y-66300000D03*
X72800000Y-66300000D03*
X101600000Y-38354000D03*
X98000000Y-63000000D03*
X78400000Y-67950000D03*
X69600000Y-64600000D03*
X63500000Y-27686000D03*
X72800000Y-64600000D03*
X69200000Y-124700000D03*
X77520000Y-23710000D03*
X99700000Y-61300000D03*
X65278226Y-132142304D03*
X72800000Y-63000000D03*
X69400000Y-66300000D03*
X88061800Y-27101800D03*
X94800000Y-64600000D03*
X103600000Y-68050000D03*
X109372400Y-28956000D03*
X94800000Y-63000000D03*
X62230000Y-43434000D03*
X106000000Y-47242815D03*
X77200000Y-42700000D03*
X74500000Y-61300000D03*
X55397400Y-150283200D03*
X80010000Y-44196000D03*
X94800000Y-61300000D03*
X86500000Y-54900000D03*
X81050000Y-64350000D03*
X67200000Y-134100000D03*
X69600000Y-63000000D03*
X71200000Y-63000000D03*
X100700000Y-28200000D03*
X96400000Y-61300000D03*
X63754000Y-43434000D03*
X60960000Y-27686000D03*
X94900000Y-21100000D03*
X100100000Y-49900000D03*
X93300000Y-32600000D03*
X93300000Y-31600000D03*
X77216000Y-39624000D03*
X87500000Y-54900000D03*
X63949148Y-136524669D03*
X98000000Y-61300000D03*
X105100000Y-55400000D03*
X74930000Y-25146000D03*
X94600000Y-66300000D03*
X67132200Y-25527000D03*
X92300000Y-32600000D03*
X96600000Y-23100000D03*
X75438000Y-41148000D03*
X77216000Y-41148000D03*
X77470000Y-28702000D03*
X69596000Y-40640000D03*
X70612000Y-40640000D03*
X54254400Y-145000000D03*
X74500000Y-63000000D03*
X62314741Y-134854342D03*
X71200000Y-61300000D03*
X110464600Y-27203400D03*
X67500000Y-108400000D03*
X70612000Y-36576000D03*
%TO.N,-14Vreg*%
X106850000Y-61800000D03*
X85110000Y-30180000D03*
X83750000Y-62750000D03*
%TO.N,+14Vreg*%
X102850000Y-60000000D03*
X78300000Y-60550000D03*
X81325000Y-36570000D03*
D15*
%TO.N,+3V3*%
X74300000Y-90000000D03*
D14*
X101100000Y-98300000D03*
X95750000Y-66400000D03*
D15*
X76100000Y-84000000D03*
D14*
X96650000Y-66400000D03*
X88700000Y-93000000D03*
X70550000Y-66400000D03*
X71450000Y-66400000D03*
X101900000Y-99800000D03*
%TO.N,+5V*%
X104850000Y-64900000D03*
X104850000Y-65800000D03*
X79650000Y-65700000D03*
X66050000Y-60250000D03*
X79650000Y-64800000D03*
X74650000Y-65450000D03*
X99750000Y-65500000D03*
D15*
%TO.N,/MCU/CS_DAC0*%
X98450000Y-92800000D03*
D14*
%TO.N,REF_OUT*%
X86000000Y-51350000D03*
X95755000Y-39655000D03*
X87000000Y-51300000D03*
X88000000Y-51300000D03*
%TO.N,/MCU/ALARM_DAC1*%
X86233000Y-98679000D03*
%TO.N,/MCU/CS_DAC1*%
X88300000Y-97700000D03*
%TO.N,/MCU/LDAC*%
X86700000Y-70050000D03*
X64900000Y-63500000D03*
D15*
%TO.N,/MCU/SCK_DAC*%
X96500000Y-79900000D03*
X71790000Y-71030000D03*
%TO.N,/MCU/MOSI_DAC*%
X97350000Y-90000000D03*
X97337400Y-80572600D03*
X97320000Y-111030000D03*
X72000000Y-72400000D03*
%TO.N,/MCU/MISO_DAC*%
X81541985Y-79211985D03*
X99200000Y-87600000D03*
X99208015Y-79211985D03*
D14*
%TO.N,Net-(R11-Pad1)*%
X64200000Y-126200000D03*
X101000000Y-119950000D03*
%TO.N,Net-(R12-Pad2)*%
X64150000Y-128800000D03*
X100950000Y-123300000D03*
%TD*%
D16*
%TO.N,-14Vreg*%
X106850000Y-58950000D02*
X106850000Y-61800000D01*
X85110000Y-30180000D02*
X85110000Y-37910661D01*
X87000000Y-57650000D02*
X83750000Y-60900000D01*
X85110000Y-55760000D02*
X87000000Y-57650000D01*
X83750000Y-60900000D02*
X83750000Y-62750000D01*
X87000000Y-57650000D02*
X105550000Y-57650000D01*
X85110000Y-37910661D02*
X85110000Y-37981371D01*
X105550000Y-57650000D02*
X106850000Y-58950000D01*
X85110000Y-37981371D02*
X85110000Y-55760000D01*
X85110000Y-37910661D02*
X85115400Y-37916061D01*
D17*
%TO.N,+5V*%
X66050000Y-60250000D02*
X66050000Y-67850000D01*
X66050000Y-67850000D02*
X67400000Y-69200000D01*
D18*
X80400000Y-69200000D02*
X99500000Y-69200000D01*
D17*
X67400000Y-69200000D02*
X74150000Y-69200000D01*
X74150000Y-69200000D02*
X74200000Y-69250000D01*
D18*
%TO.N,/MCU/CS_DAC0*%
X94100000Y-93160000D02*
X98090000Y-93160000D01*
X98090000Y-93160000D02*
X98450000Y-92800000D01*
D17*
%TO.N,REF_OUT*%
X88000000Y-51300000D02*
X95755000Y-43545000D01*
X95755000Y-43545000D02*
X95755000Y-39655000D01*
D18*
%TO.N,/MCU/ALARM_DAC1*%
X89704000Y-102150000D02*
X93490000Y-102150000D01*
X89704000Y-102150000D02*
X86233000Y-98679000D01*
%TO.N,/MCU/CS_DAC1*%
X92100000Y-95700000D02*
X90300000Y-95700000D01*
X90300000Y-95700000D02*
X88300000Y-97700000D01*
%TO.N,/MCU/LDAC*%
X64900000Y-68250000D02*
X66700000Y-70050000D01*
X64900000Y-63500000D02*
X64900000Y-68250000D01*
X66700000Y-70050000D02*
X86700000Y-70050000D01*
%TO.N,/MCU/SCK_DAC*%
X80660000Y-79900000D02*
X71790000Y-71030000D01*
X96500000Y-79900000D02*
X80660000Y-79900000D01*
%TO.N,/MCU/MOSI_DAC*%
X97325000Y-111015000D02*
X93490000Y-114850000D01*
X71970000Y-72410000D02*
X80167400Y-80557400D01*
X80167400Y-80557400D02*
X97337400Y-80557400D01*
X94100000Y-90620000D02*
X96730000Y-90620000D01*
X96730000Y-90620000D02*
X97350000Y-90000000D01*
%TO.N,/MCU/MISO_DAC*%
X94100000Y-88080000D02*
X98720000Y-88080000D01*
X98720000Y-88080000D02*
X99200000Y-87600000D01*
X81541985Y-79211985D02*
X99208015Y-79211985D01*
%TO.N,/MCU/UART_TX*%
X99585000Y-150410000D02*
X93490000Y-150410000D01*
X108070000Y-141925000D02*
X99585000Y-150410000D01*
%TO.N,/MCU/UART_RX*%
X99585000Y-147870000D02*
X93490000Y-147870000D01*
X105530000Y-141925000D02*
X99585000Y-147870000D01*
D19*
%TO.N,Net-(J3-Pad1)*%
X77700000Y-100450000D02*
X77700000Y-100579729D01*
X65200000Y-100450000D02*
X77700000Y-100450000D01*
X87140000Y-103710000D02*
X87140000Y-102380000D01*
X58550000Y-107100000D02*
X65200000Y-100450000D01*
X86550000Y-104300000D02*
X87140000Y-103710000D01*
X81420271Y-104300000D02*
X86550000Y-104300000D01*
X77700000Y-100579729D02*
X81420271Y-104300000D01*
X63825000Y-141375000D02*
X58550000Y-136100000D01*
X63825000Y-142405000D02*
X63825000Y-141375000D01*
X58550000Y-136100000D02*
X58550000Y-107100000D01*
%TO.N,Net-(J3-Pad3)*%
X57500000Y-139000000D02*
X57500000Y-106350000D01*
X58745000Y-140245000D02*
X57500000Y-139000000D01*
X58745000Y-142405000D02*
X58745000Y-140245000D01*
X82060000Y-102310000D02*
X82060000Y-102380000D01*
X79000000Y-99250000D02*
X82060000Y-102310000D01*
X57500000Y-106350000D02*
X64600000Y-99250000D01*
X64600000Y-99250000D02*
X79000000Y-99250000D01*
D18*
%TO.N,Net-(R11-Pad1)*%
X99800000Y-121150000D02*
X98600000Y-121150000D01*
X101000000Y-119950000D02*
X99800000Y-121150000D01*
D19*
X86550000Y-126200000D02*
X91600000Y-121150000D01*
X64200000Y-126200000D02*
X86550000Y-126200000D01*
X91600000Y-121150000D02*
X98600000Y-121150000D01*
D18*
%TO.N,Net-(R12-Pad2)*%
X100500000Y-123750000D02*
X98900000Y-123750000D01*
X100950000Y-123300000D02*
X100500000Y-123750000D01*
D19*
X85750000Y-128800000D02*
X90800000Y-123750000D01*
X64150000Y-128800000D02*
X85750000Y-128800000D01*
X90800000Y-123750000D02*
X98900000Y-123750000D01*
D18*
%TO.N,/Interconnect/ACK*%
X112000000Y-134300000D02*
X112713000Y-133587000D01*
X112000000Y-137600000D02*
X112000000Y-134300000D01*
X112713000Y-133587000D02*
X114926600Y-133587000D01*
X114926600Y-133587000D02*
X116306600Y-132207000D01*
X110800000Y-138800000D02*
X112000000Y-137600000D01*
X93490000Y-142790000D02*
X99310000Y-142790000D01*
X103300000Y-138800000D02*
X110800000Y-138800000D01*
X99310000Y-142790000D02*
X103300000Y-138800000D01*
%TO.N,/Interconnect/ERROR*%
X111100000Y-128500000D02*
X111100000Y-136900000D01*
X111100000Y-136900000D02*
X110100000Y-137900000D01*
X113766600Y-127127000D02*
X112473000Y-127127000D01*
X112473000Y-127127000D02*
X111100000Y-128500000D01*
X110100000Y-137900000D02*
X100200000Y-137900000D01*
X97850000Y-140250000D02*
X93490000Y-140250000D01*
X100200000Y-137900000D02*
X97850000Y-140250000D01*
%TD*%
%TA.AperFunction,Conductor*%
%TO.N,REF_OUT*%
G36*
X88559191Y-50818907D02*
G01*
X88595155Y-50868407D01*
X88600000Y-50899000D01*
X88600000Y-51801000D01*
X88581093Y-51859191D01*
X88531593Y-51895155D01*
X88501000Y-51900000D01*
X85609500Y-51900000D01*
X85551309Y-51881093D01*
X85515345Y-51831593D01*
X85510500Y-51801000D01*
X85510500Y-50899000D01*
X85529407Y-50840809D01*
X85578907Y-50804845D01*
X85609500Y-50800000D01*
X88501000Y-50800000D01*
X88559191Y-50818907D01*
G37*
%TD.AperFunction*%
%TD*%
%TA.AperFunction,Conductor*%
%TO.N,+5V*%
G36*
X80415688Y-64368907D02*
G01*
X80451652Y-64418407D01*
X80455650Y-64436078D01*
X80459966Y-64468856D01*
X80464956Y-64506762D01*
X80525464Y-64652841D01*
X80621718Y-64778282D01*
X80747159Y-64874536D01*
X80778913Y-64887689D01*
X80788886Y-64891820D01*
X80835411Y-64931557D01*
X80850000Y-64983284D01*
X80850000Y-69351000D01*
X80831093Y-69409191D01*
X80781593Y-69445155D01*
X80751000Y-69450000D01*
X73649000Y-69450000D01*
X73590809Y-69431093D01*
X73554845Y-69381593D01*
X73550000Y-69351000D01*
X73550000Y-67950000D01*
X77794318Y-67950000D01*
X77814956Y-68106762D01*
X77875464Y-68252841D01*
X77971718Y-68378282D01*
X78097159Y-68474536D01*
X78243238Y-68535044D01*
X78400000Y-68555682D01*
X78556762Y-68535044D01*
X78702841Y-68474536D01*
X78828282Y-68378282D01*
X78924536Y-68252841D01*
X78985044Y-68106762D01*
X79005682Y-67950000D01*
X78985044Y-67793238D01*
X78924536Y-67647159D01*
X78828282Y-67521718D01*
X78702841Y-67425464D01*
X78556762Y-67364956D01*
X78400000Y-67344318D01*
X78243238Y-67364956D01*
X78097159Y-67425464D01*
X77971718Y-67521718D01*
X77875464Y-67647159D01*
X77814956Y-67793238D01*
X77794318Y-67950000D01*
X73550000Y-67950000D01*
X73550000Y-64449000D01*
X73568907Y-64390809D01*
X73618407Y-64354845D01*
X73649000Y-64350000D01*
X80357497Y-64350000D01*
X80415688Y-64368907D01*
G37*
%TD.AperFunction*%
%TD*%
%TA.AperFunction,Conductor*%
%TO.N,+5V*%
G36*
X106009191Y-64468907D02*
G01*
X106045155Y-64518407D01*
X106050000Y-64549000D01*
X106050000Y-69451000D01*
X106031093Y-69509191D01*
X105981593Y-69545155D01*
X105951000Y-69550000D01*
X98849000Y-69550000D01*
X98790809Y-69531093D01*
X98754845Y-69481593D01*
X98750000Y-69451000D01*
X98750000Y-68050000D01*
X102994318Y-68050000D01*
X103014956Y-68206762D01*
X103075464Y-68352841D01*
X103171718Y-68478282D01*
X103297159Y-68574536D01*
X103443238Y-68635044D01*
X103600000Y-68655682D01*
X103756762Y-68635044D01*
X103902841Y-68574536D01*
X104028282Y-68478282D01*
X104124536Y-68352841D01*
X104185044Y-68206762D01*
X104205682Y-68050000D01*
X104185044Y-67893238D01*
X104124536Y-67747159D01*
X104028282Y-67621718D01*
X103902841Y-67525464D01*
X103756762Y-67464956D01*
X103600000Y-67444318D01*
X103443238Y-67464956D01*
X103297159Y-67525464D01*
X103171718Y-67621718D01*
X103075464Y-67747159D01*
X103014956Y-67893238D01*
X102994318Y-68050000D01*
X98750000Y-68050000D01*
X98750000Y-64549000D01*
X98768907Y-64490809D01*
X98818407Y-64454845D01*
X98849000Y-64450000D01*
X105951000Y-64450000D01*
X106009191Y-64468907D01*
G37*
%TD.AperFunction*%
%TD*%
M02*
